<svg id="svg" xmlns="http://www.w3.org/2000/svg" viewBox="0 0 400 131.52"><g id="svgg"><path id="path0" d="M115.35,42l-.4,1a8.55,8.55,0,0,0-.37,1.33,4.69,4.69,0,0,1-.33,1.09,4.62,4.62,0,0,0-.33,1.2,2.13,2.13,0,0,1-.34,1,2.26,2.26,0,0,0-.33,1,3.92,3.92,0,0,1-.33,1.21,3.5,3.5,0,0,0-.34,1.17,3.55,3.55,0,0,1-.33,1.15,4.18,4.18,0,0,0-.33,1.09,3.45,3.45,0,0,1-.35,1.11c-.35.55-.34.55,1,.55,1.52,0,1.6-.06,1.81-1.28a5.26,5.26,0,0,1,.5-1.53l.31-.52H117c2,0,2.35.07,2.36.47a4,4,0,0,0,.27.94,8.94,8.94,0,0,1,.36,1.25l.12.59,1.31,0,1.31,0-.12-.79a5.07,5.07,0,0,0-.34-1.22,4.69,4.69,0,0,1-.33-1.09,8.05,8.05,0,0,0-.33-1.24c-.12-.32-.42-1.26-.67-2.09s-.58-1.95-.76-2.5a7,7,0,0,1-.33-1.33,2.36,2.36,0,0,0-.26-.83,6.29,6.29,0,0,1-.42-1.27c-.2-.91-.39-1-2.42-1-1.13,0-1.25,0-1.38.37m10.89-.17c0,.12-.06,3.1,0,6.63l0,6.42,1.21,0,1.21,0V50.59c0-4.16,0-4.42.3-4.42s.42.23.58.54.51.91.78,1.37.58,1,.67,1.17.4.67.67,1.08a11.26,11.26,0,0,1,.66,1.13c.09.2.22.37.3.37s.27.25.42.54.44.77.62,1.05.45.74.61,1l.28.54h2.94l0-6.63,0-6.62h-2.17v9l-.4-.07c-.27-.06-.48-.3-.7-.79a2.43,2.43,0,0,0-.47-.81,1.24,1.24,0,0,1-.27-.6c-.06-.28-.17-.5-.24-.5A5.22,5.22,0,0,1,132,46.11a.47.47,0,0,0-.16-.36A20.62,20.62,0,0,1,130.13,43c-.65-1.21-.83-1.3-2.38-1.3-1,0-1.45.06-1.51.2m17,0a9.28,9.28,0,0,0-1.21.23c-.35.13-.3,12.31.06,12.67.6.59,6.62,0,7.41-.68a.93.93,0,0,1,.46-.24,6.45,6.45,0,0,0,1.86-1.78,1.62,1.62,0,0,1,.32-.57c.91-1.16.91-5.76,0-6.74a1.34,1.34,0,0,1-.32-.5,2.84,2.84,0,0,0-1.13-1.07,2,2,0,0,1-.63-.38,4.41,4.41,0,0,0-1.48-.59,12.4,12.4,0,0,0-5.34-.35m14.92,0a6.6,6.6,0,0,0-1.16.24s-.09,3-.09,6.45v6.37h2.5l0-2.5c0-2.82,0-2.75,1.37-2.75A2.25,2.25,0,0,1,163,52.05a3.34,3.34,0,0,0,.27,1.08,6.63,6.63,0,0,1,.38,1.2l.11.59h2.49l-.05-.59a8.7,8.7,0,0,0-.38-1.54,7,7,0,0,1-.32-1.29,5.68,5.68,0,0,0-1.21-2.3c-.44-.33-.36-.58.38-1.2,2.11-1.77,1.63-5-.84-5.66-.41-.11-1.07-.31-1.46-.44a11.39,11.39,0,0,0-4.2,0m15.5.24a6.42,6.42,0,0,0-1.6.74,1.41,1.41,0,0,1-.45.33c-.3,0-1.06,1-1.6,2.08-.75,1.53-1,4.17-.45,5.17a2.29,2.29,0,0,1,.26.8,1.48,1.48,0,0,0,.34.73,1.7,1.7,0,0,1,.33.62,2,2,0,0,0,.62.73l.88.75c.85.76,4.11,1.21,5,.7a1.9,1.9,0,0,1,.77-.24,1.67,1.67,0,0,0,.8-.43,1.52,1.52,0,0,1,.68-.41.59.59,0,0,0,.41-.32,3,3,0,0,1,.38-.55c1.55-1.67,2-6.38.73-7.77a1.05,1.05,0,0,1-.27-.49,1.62,1.62,0,0,0-.42-.64,1.74,1.74,0,0,1-.41-.59c0-.08-.09-.14-.19-.14a2.13,2.13,0,0,1-.7-.38,5.53,5.53,0,0,0-5.11-.69m12-.33c-.07.07-.12,3.07-.12,6.67V55H188l0-6.63,0-6.62-1.09,0a3.63,3.63,0,0,0-1.21.07m8.63.08c-1.49.22-1.42-.12-1.42,6.6,0,7.24-.28,6.6,2.89,6.5,3.93-.13,6.46-1.17,7.3-3,.09-.2.27-.54.4-.77a2.67,2.67,0,0,0,.24-1.1,2.18,2.18,0,0,1,.25-1A2.16,2.16,0,0,0,204,47.2a3.13,3.13,0,0,1-.32-1.19,2.84,2.84,0,0,0-.38-1.27.87.87,0,0,1-.27-.39,3.25,3.25,0,0,0-1.12-1.18,1.74,1.74,0,0,1-.61-.35,9.14,9.14,0,0,0-3.35-1,12.19,12.19,0,0,0-3.67,0m22.37-.06c-.37.05-.45.15-.45.55a4.66,4.66,0,0,1-.31,1.28,8.34,8.34,0,0,0-.43,1.46,3.75,3.75,0,0,1-.33,1,3.4,3.4,0,0,0-.33,1.06,4.48,4.48,0,0,1-.36,1.2,2.42,2.42,0,0,0-.25.86,4.39,4.39,0,0,1-.26,1c-.14.37-.36,1-.49,1.5s-.34,1.13-.48,1.5a4.55,4.55,0,0,0-.26,1.21V55h2.5v-.55a3.29,3.29,0,0,1,.33-1.2,3.12,3.12,0,0,0,.33-.92c0-.55.37-.66,2.25-.66s2.25.1,2.25.7a1.6,1.6,0,0,0,.24.68,3.56,3.56,0,0,1,.35,1.16L221,55h1.48c1.54,0,1.63,0,1.23-.56a3,3,0,0,1-.35-1.09,2.65,2.65,0,0,0-.32-1,3.25,3.25,0,0,1-.39-1.08,11.17,11.17,0,0,0-.42-1.5,4,4,0,0,1-.26-1,4.14,4.14,0,0,0-.34-1.09,3.72,3.72,0,0,1-.33-1.19,1.8,1.8,0,0,0-.26-.84,4.22,4.22,0,0,1-.4-1.12,13.38,13.38,0,0,0-.44-1.57c-.16-.46-.32-.93-.34-1.05a8.38,8.38,0,0,0-3.28-.08m12.59.05a8.62,8.62,0,0,0-1.12.22c-.22.08-.26.95-.26,6.52V55h2.5V52.85c0-2.51,0-2.44,1.67-2.6a7.08,7.08,0,0,0,1.7-.35,2.1,2.1,0,0,1,.78-.23c.56,0,1.64-1.17,2.09-2.29,1.52-3.69-2-6.33-7.36-5.54m12.8,0a6.82,6.82,0,0,0-1.17.24c-.05,0-.09,3-.09,6.45v6.37h2.5l.05-2.08c0-2.46,0-2.44,1.63-2.59a6.12,6.12,0,0,0,1.7-.35,2,2,0,0,1,.72-.23c1.39,0,3.25-3.94,2.34-4.93a3.1,3.1,0,0,1-.34-.74c-.55-1.73-3.73-2.66-7.34-2.14m-94.21,2a1.09,1.09,0,0,0,.49.28c.16,0,.73.6,1.41,1.5,1,1.3.41,5-1,6.36-1,.92-3.71,1.5-4.17.87a49.35,49.35,0,0,1,0-9.1c.24-.45,2.76-.38,3.28.09m14.73,0a3.81,3.81,0,0,1,.82,1l.39.71-.33.61a2.79,2.79,0,0,1-3.48,1.36c-.63-.28-.67-3.63-.05-4a3.63,3.63,0,0,1,2.65.23m36.55.09c2.63,1.56,3,5.72.74,8-.84.86-3.58,1.48-4.12.94-.29-.3-.28-9,0-9.29s2.57-.15,3.37.33m34-.17a2.65,2.65,0,0,1,1.32,2.45c-.42,1.7-2.49,2.79-3.69,2-.44-.31-.57-3.76-.16-4.27a2.16,2.16,0,0,1,2.53-.13M246,43.78c2.36,1.12,1.38,4.72-1.29,4.72-1.29,0-1.33-.07-1.33-2.41,0-2.61.69-3.23,2.62-2.31M176.59,44c.83.41,1.06.65,1.64,1.75,1.12,2.14.11,6.92-1.47,6.92a.7.7,0,0,0-.43.25,1.8,1.8,0,0,1-1.83,0,.73.73,0,0,0-.49-.25c-.29,0-.67-.37-1.28-1.25a7.4,7.4,0,0,1-.53-4.25c.4-2.67,2.41-4.12,4.39-3.17m-59.42.35a4,4,0,0,0,.34.87,6.72,6.72,0,0,1,.5,1.64,6,6,0,0,0,.41,1.41c.3.58.32,1.09,0,1.36a5.2,5.2,0,0,1-2.74,0,5.94,5.94,0,0,1,.34-2.91,8.93,8.93,0,0,0,.35-1.5c.14-1,.75-1.75.75-.9m101.3.36a4.51,4.51,0,0,1,.35,1.33,4.82,4.82,0,0,0,.42,1.51,2.15,2.15,0,0,1,.23,1.31l-.05.89-1.23,0c-1.77.07-2-.42-1.26-2.47a12.84,12.84,0,0,0,.4-1.74c.25-1.53.46-1.7,1.14-.88M53.87,46.87c-.15.15-.2,2.5-.2,9.57v9.37l-.37.26c-.33.23-1.31.26-7.35.26H39l.11.35a1.91,1.91,0,0,0,.38.64c.16.16,1.14,1.22,2.2,2.35s2.1,2.26,2.33,2.49,1,1.06,1.65,1.84,2.56,2.84,4.18,4.58,3.58,3.88,4.35,4.75,2.09,2.3,2.93,3.17,1.93,2,2.42,2.58c2.48,2.8,2.11,2.82,4.77-.25.91-1,2.51-2.76,6.38-6.84.34-.35,1-1.11,1.48-1.69s2-2.21,3.33-3.63,2.86-3,3.36-3.6L81,70.67c.69-.77,1.59-1.74,2-2.17s1-1.08,1.38-1.47l.62-.7H77.82a71.93,71.93,0,0,1-7.5-.17C70,66,70,65.71,70,56.59c0-5.17,0-9.52-.1-9.66-.13-.35-15.69-.41-16-.06m62.55,22.31a8.61,8.61,0,0,0-2.54.53l-.38.18V91.68l.74.33a24.89,24.89,0,0,0,7.51.33c.55-.1,1.64-.27,2.42-.37a9.36,9.36,0,0,0,2.09-.49,3.42,3.42,0,0,1,1-.31,1,1,0,0,0,.58-.21,5.47,5.47,0,0,1,1-.62,10.4,10.4,0,0,0,3.23-3.1c.2-.36.42-.77.49-.91a6.81,6.81,0,0,0,.79-2c0-.32.25-1.18.44-1.91a9,9,0,0,0-.11-4.67,4,4,0,0,1-.25-1.14c0-1.51-2.42-4.71-4.2-5.62a2.69,2.69,0,0,1-.72-.49.64.64,0,0,0-.47-.17,2.26,2.26,0,0,1-.87-.27,7.93,7.93,0,0,0-1.83-.5l-2.17-.38a40.89,40.89,0,0,0-6.83,0m28.37.24a9.53,9.53,0,0,0-3.26,1.36.75.75,0,0,1-.35.22,1.78,1.78,0,0,0-.55.37c-.23.21-.66.57-.94.79a1.62,1.62,0,0,0-.52.57.87.87,0,0,1-.26.42,5.6,5.6,0,0,0-1.08,1.75,1.47,1.47,0,0,1-.31.62,2.91,2.91,0,0,0-.43,1.15,5.42,5.42,0,0,1-.39,1.25,15.93,15.93,0,0,0,0,6,5.14,5.14,0,0,1,.38,1.25,3,3,0,0,0,.33,1,3.08,3.08,0,0,1,.41.87c.12.34.27.63.35.63s.18.13.24.29a12,12,0,0,0,3.37,3.21,3.11,3.11,0,0,1,.72.31,5.26,5.26,0,0,0,1.25.42,12.8,12.8,0,0,1,1.38.36,10.21,10.21,0,0,0,4,.07c2.89-.67,3.38-.86,4.85-1.85,1-.7,2.74-2.5,2.74-2.89a.64.64,0,0,1,.23-.41,1.53,1.53,0,0,0,.35-.65,2,2,0,0,1,.35-.71,5.41,5.41,0,0,0,.49-1.58l.4-2.07A13.39,13.39,0,0,0,157,74.33c-.08-.13-.24-.43-.35-.66a1.63,1.63,0,0,0-.42-.55.54.54,0,0,1-.21-.38c0-.13-.07-.24-.15-.24a3.25,3.25,0,0,1-.84-.69,7.38,7.38,0,0,0-1-.91c-3.3-1.85-6.07-2.3-9.17-1.48m15.79,0a15.7,15.7,0,0,1,.33,1.63,10.43,10.43,0,0,0,.49,1.87,3.79,3.79,0,0,1,.27,1.17,6,6,0,0,0,.33,1.5,6,6,0,0,1,.33,1.5,5.62,5.62,0,0,0,.34,1.5,6.11,6.11,0,0,1,.33,1.58,2.8,2.8,0,0,0,.27,1.13,6,6,0,0,1,.4,1.59,6.26,6.26,0,0,0,.4,1.58,2.92,2.92,0,0,1,.26,1.12,6.58,6.58,0,0,0,.32,1.58,10.28,10.28,0,0,1,.42,1.82,5.71,5.71,0,0,0,.33,1.33,5.3,5.3,0,0,1,.35,1.37l.12.88,2.72,0c3.17-.06,2.88.09,3.08-1.63a5.52,5.52,0,0,1,.32-1.57,6.46,6.46,0,0,0,.33-1.59,6.73,6.73,0,0,1,.33-1.58,5.48,5.48,0,0,0,.33-1.44,9.61,9.61,0,0,1,.41-1.83,8.52,8.52,0,0,0,.35-1.73,6.28,6.28,0,0,1,.28-1.47,8.6,8.6,0,0,0,.32-1.89c.22-2.26.29-2.49.67-2.15a5.69,5.69,0,0,1,.92,3.24,11,11,0,0,0,.33,2.09,11.39,11.39,0,0,1,.33,1.92,8.24,8.24,0,0,0,.35,1.82,10.63,10.63,0,0,1,.39,2,6.34,6.34,0,0,0,.32,1.69,4.51,4.51,0,0,1,.28,1.45,8.25,8.25,0,0,0,.41,1.94l.31.71h5.14l.11-.86a5.49,5.49,0,0,1,.34-1.29,4.92,4.92,0,0,0,.31-1.33,2.92,2.92,0,0,1,.34-1.17,3.36,3.36,0,0,0,.36-1.27,5.22,5.22,0,0,1,.33-1.41,5,5,0,0,0,.33-1.34,6.64,6.64,0,0,1,.37-1.44,6.53,6.53,0,0,0,.38-1.42,9.42,9.42,0,0,1,.4-1.55,4.64,4.64,0,0,0,.27-1.23,2.93,2.93,0,0,1,.25-1.08,7.8,7.8,0,0,0,.41-1.59,4.22,4.22,0,0,1,.34-1.27,4.14,4.14,0,0,0,.35-1.27,4.92,4.92,0,0,1,.32-1.23,7.22,7.22,0,0,0,.41-2.59,9.14,9.14,0,0,0-2.32-.16h-2.23l-.11.69a8.41,8.41,0,0,1-.33,1.21,8.27,8.27,0,0,0-.33,1.73,8.13,8.13,0,0,1-.33,1.75,8.36,8.36,0,0,0-.34,1.7,6.23,6.23,0,0,1-.3,1.5,8.22,8.22,0,0,0-.31,1.72,17.65,17.65,0,0,1-.38,2.25,18.25,18.25,0,0,0-.41,2.57c-.18,1.93-.23,2-.75,2s-.7-.9-.85-3.13a9.41,9.41,0,0,0-.26-1.8,14.69,14.69,0,0,1-.35-2,9.49,9.49,0,0,0-.36-2,7.64,7.64,0,0,1-.3-1.66,7.08,7.08,0,0,0-.37-1.84,7.56,7.56,0,0,1-.36-1.89,8.26,8.26,0,0,0-.43-2.13l-.31-.73h-2.49c-2.81,0-2.68-.07-2.69,1.47a3,3,0,0,1-.25,1.19,6.48,6.48,0,0,0-.35,1.7,7.44,7.44,0,0,1-.33,1.72,9.5,9.5,0,0,0-.39,1.9,6.49,6.49,0,0,1-.35,1.61,5.52,5.52,0,0,0-.33,1.6,9.88,9.88,0,0,1-.38,2,8.17,8.17,0,0,0-.34,1.92c-.23,3.17-1.3,3.22-1.54.07A9.32,9.32,0,0,0,167.9,82a9.46,9.46,0,0,1-.33-2,8.09,8.09,0,0,0-.34-2,9.49,9.49,0,0,1-.38-2,9,9,0,0,0-.34-1.87,8.65,8.65,0,0,1-.33-1.89,10.43,10.43,0,0,0-.32-2,8,8,0,0,1-.27-.87l-.1-.46h-5l.12.37m32.5-.16c-.05.11-.06,5.38,0,11.71l0,11.5,2.21,0,2.21.05V84.45c0-9.49.05-9.79,1.15-7.42a9.52,9.52,0,0,1,.52,1.28.59.59,0,0,0,.22.33,2.43,2.43,0,0,1,.42.86c.11.37.27.67.35.67s.24.28.35.62a3.5,3.5,0,0,0,.38.85,7.42,7.42,0,0,1,.88,1.57,1.62,1.62,0,0,0,.4.62c.07,0,.25.28.41.63a15.41,15.41,0,0,0,1.36,2.4,6.45,6.45,0,0,1,.65,1.17,3,3,0,0,0,.43.78,1.44,1.44,0,0,1,.31.61.66.66,0,0,0,.24.4,5.32,5.32,0,0,1,.69,1.06c.86,1.67.78,1.63,3.65,1.58l2.51,0V69.08l-2.22,0L208,69l.06,7.8c0,5.77.11,7.92.26,8.28s.15.55.07.63S207,84.59,207,84.18a.57.57,0,0,0-.15-.42,1.92,1.92,0,0,1-.36-.72,4.13,4.13,0,0,0-.5-1,2.49,2.49,0,0,1-.41-.87c-.06-.27-.17-.49-.25-.49s-.19-.17-.26-.38a2.85,2.85,0,0,0-.43-.77,1.48,1.48,0,0,1-.31-.68,1,1,0,0,0-.32-.58,1.7,1.7,0,0,1-.43-.78c-.06-.26-.17-.48-.24-.48s-.25-.29-.4-.65a2.16,2.16,0,0,0-.42-.75,1.2,1.2,0,0,1-.27-.59.92.92,0,0,0-.33-.57.92.92,0,0,1-.33-.59,1.39,1.39,0,0,0-.27-.61,2,2,0,0,1-.41-.63,13.45,13.45,0,0,0-.65-1.19c-.23-.37-.54-.93-.69-1.25C199,69,199.08,69,196,69c-2.1,0-2.83,0-2.89.21m24.13-.1c-.36.14-.3,23.15,0,23.29s13.47.13,13.81,0,.26-.41.26-1.82c0-2.11.47-1.91-4.67-1.91-4.09,0-4.14,0-4.4-.37s-.26-1.54-.26-9.84V69h-2.29a21.43,21.43,0,0,0-2.5.1m24.42.12a8.83,8.83,0,0,1-1.3.33,7.11,7.11,0,0,0-2.26.93c-1.07.56-3.4,2.61-3.4,3a1.58,1.58,0,0,1-.31.54,4,4,0,0,0-.51,1,1.41,1.41,0,0,1-.36.67,2.15,2.15,0,0,0-.32,1,3.42,3.42,0,0,1-.38,1.15c-.35.42-.39,5.38,0,6.07a6.72,6.72,0,0,1,.43,1.37,2.75,2.75,0,0,0,.41,1.09,1,1,0,0,1,.24.51c0,.51,2.21,3.09,3.35,3.91a12.66,12.66,0,0,0,8.07,1.56l1.58-.39a8.41,8.41,0,0,0,2.34-.93c.13-.08.47-.28.75-.43a10.77,10.77,0,0,0,3.45-4.13,2.8,2.8,0,0,1,.39-.76,3,3,0,0,0,.32-1c.06-.42.22-1.24.36-1.84.44-1.9,0-6.32-.8-7.31a1.46,1.46,0,0,1-.31-.64,1.51,1.51,0,0,0-.33-.67,1.56,1.56,0,0,1-.33-.62,12.1,12.1,0,0,0-2.6-2.66l-1.23-.69c-1.75-1-5.75-1.54-7.21-1m22,0a2.08,2.08,0,0,0-.44,1,9.32,9.32,0,0,1-.42,1.45,3.87,3.87,0,0,0-.27,1,3.42,3.42,0,0,1-.32,1,3.53,3.53,0,0,0-.34,1.08,3.39,3.39,0,0,1-.31,1.09,6.55,6.55,0,0,0-.41,1.39,3.22,3.22,0,0,1-.37,1.08,1.8,1.8,0,0,0-.24.85,3.76,3.76,0,0,1-.31,1.18,6,6,0,0,0-.42,1.41,3.69,3.69,0,0,1-.34,1.09,3.43,3.43,0,0,0-.34,1.08,4,4,0,0,1-.33,1.08,3.7,3.7,0,0,0-.33,1.17,3.94,3.94,0,0,1-.34,1.17,3.72,3.72,0,0,0-.34,1.08,7.53,7.53,0,0,1-.43,1.45A3.36,3.36,0,0,0,257,91a2.23,2.23,0,0,1-.25.86,3.36,3.36,0,0,0-.25.55,22,22,0,0,0,2.54,0l2.54,0,.09-.59a4.1,4.1,0,0,1,.29-.93,4.83,4.83,0,0,0,.3-1.25,3.46,3.46,0,0,1,.32-1.15,2.86,2.86,0,0,0,.33-1c.15-1.07.31-1.12,3.84-1.12s3.69.07,3.84,1.15a5.33,5.33,0,0,0,.4,1.35,5,5,0,0,1,.39,1.35,5.07,5.07,0,0,0,.35,1.25,6.18,6.18,0,0,1,.34.78c.15.5,5.1.44,5.1-.07a1.11,1.11,0,0,0-.24-.63,3,3,0,0,1-.4-1.09,11.71,11.71,0,0,0-.34-1.34,31.93,31.93,0,0,1-.93-3.08,11.26,11.26,0,0,0-.49-1.54,3.57,3.57,0,0,1-.28-1,3.3,3.3,0,0,0-.32-1,3.31,3.31,0,0,1-.33-1.13,3,3,0,0,0-.34-1.08,2.94,2.94,0,0,1-.33-1.11,2.4,2.4,0,0,0-.31-1,3.94,3.94,0,0,1-.42-1.32,3.31,3.31,0,0,0-.36-1.16,1.71,1.71,0,0,1-.25-.78,4.5,4.5,0,0,0-.27-1.09c-.14-.37-.33-1-.42-1.33a10.8,10.8,0,0,0-.4-1.18A6.07,6.07,0,0,1,270.4,70a1.82,1.82,0,0,0-.3-.86,30.5,30.5,0,0,0-6.48.08m19.71-.09a3.05,3.05,0,0,0-1.07.22,1.1,1.1,0,0,1-.64.16c-1.21,0-1.12-.93-1.12,11.32v11l.72.27a27.67,27.67,0,0,0,7.45.28c.59-.11,1.75-.3,2.58-.42a12,12,0,0,0,3.42-1c.13-.08.55-.29.91-.48s.83-.43,1-.54A12.53,12.53,0,0,0,299,87.41a1.47,1.47,0,0,1,.31-.6,2.92,2.92,0,0,0,.44-.81,2.21,2.21,0,0,1,.34-.67,4.81,4.81,0,0,0,.39-1.44,11.64,11.64,0,0,1,.35-1.64,11.91,11.91,0,0,0-.07-4.37,8.09,8.09,0,0,1-.34-1.41,2,2,0,0,0-.34-1,.71.71,0,0,1-.25-.49,2.35,2.35,0,0,0-.41-.9,4,4,0,0,1-.42-.71,12.34,12.34,0,0,0-2.6-2.32,2.25,2.25,0,0,1-.73-.48.79.79,0,0,0-.53-.26A4.16,4.16,0,0,1,294,70a10.89,10.89,0,0,0-1.95-.52c-.64-.1-1.5-.25-1.91-.33a57.71,57.71,0,0,0-6.84,0m34.12.09a2.17,2.17,0,0,0-.44,1,7.55,7.55,0,0,1-.42,1.45,3.43,3.43,0,0,0-.26,1,3.22,3.22,0,0,1-.33,1,3.21,3.21,0,0,0-.33,1.08,4,4,0,0,1-.31,1.09,6,6,0,0,0-.42,1.39,3.23,3.23,0,0,1-.36,1.08,1.7,1.7,0,0,0-.25.85,3.51,3.51,0,0,1-.31,1.18,7.19,7.19,0,0,0-.42,1.41,3.42,3.42,0,0,1-.34,1.09,3.72,3.72,0,0,0-.34,1.08,3.37,3.37,0,0,1-.33,1.08,4.32,4.32,0,0,0-.33,1.17,3.66,3.66,0,0,1-.34,1.17,3.75,3.75,0,0,0-.33,1.08,7.56,7.56,0,0,1-.44,1.45,3.64,3.64,0,0,0-.32,1.08,2.23,2.23,0,0,1-.25.86,4.7,4.7,0,0,0-.25.55,22.12,22.12,0,0,0,2.54,0l2.54,0,.1-.59a3.67,3.67,0,0,1,.28-.93,4.76,4.76,0,0,0,.31-1.25,3,3,0,0,1,.32-1.15,2.89,2.89,0,0,0,.32-1c.15-1.07.32-1.12,3.85-1.12s3.69.07,3.84,1.15a5,5,0,0,0,.39,1.35,5.33,5.33,0,0,1,.4,1.35,4.33,4.33,0,0,0,.35,1.25,5.89,5.89,0,0,1,.33.78c.15.5,5.1.44,5.1-.07a1.11,1.11,0,0,0-.24-.63,3,3,0,0,1-.4-1.09,11.71,11.71,0,0,0-.34-1.34,31.93,31.93,0,0,1-.93-3.08,11.26,11.26,0,0,0-.49-1.54,3.2,3.2,0,0,1-.27-1,3.11,3.11,0,0,0-.33-1,3.31,3.31,0,0,1-.33-1.13,2.78,2.78,0,0,0-.34-1.08,2.86,2.86,0,0,1-.33-1,2.68,2.68,0,0,0-.31-1,5,5,0,0,1-.41-1.38,3.31,3.31,0,0,0-.36-1.16,1.61,1.61,0,0,1-.26-.78,4.42,4.42,0,0,0-.26-1.09c-.14-.37-.33-1-.43-1.33a7.75,7.75,0,0,0-.4-1.18,6.78,6.78,0,0,1-.34-1.25,1.72,1.72,0,0,0-.3-.86,30.5,30.5,0,0,0-6.48.08m19.63,0a8,8,0,0,0-2.6.61c-.09.09-.13,4.66-.11,11.4l.05,11.24,2.37,0,2.38.05V88.63c0-4.63-.17-4.26,2-4.34,3.11-.12,5.56-.88,7.12-2.21a6.28,6.28,0,0,0,1.88-2.73,3.22,3.22,0,0,1,.25-1,5.92,5.92,0,0,0,.1-3.85,5.15,5.15,0,0,1-.35-1.18,1,1,0,0,0-.34-.6,1,1,0,0,1-.33-.52c0-2-7-3.77-12.42-3.06m17.8-.06c-.17.07-.21,2.55-.21,11.65V92.33l.37.09a19.47,19.47,0,0,0,2.46,0l2.08,0,.09-3.92c.06-2.84.14-4,.29-4.17s.49-.6.82-1c.81-1.07,1.37-1,2,.38.12.23.39.71.61,1.08s.52.89.66,1.17a8.21,8.21,0,0,0,.43.75,4,4,0,0,1,.34.66c.1.23.36.72.58,1.09s.53.89.67,1.16.45.8.67,1.17.52.91.66,1.21l.25.54h2.74c2.72,0,3.17-.09,2.65-.52a2.53,2.53,0,0,1-.51-.73c-.13-.28-.42-.8-.64-1.17s-.47-.82-.55-1a2,2,0,0,0-.41-.56,1.37,1.37,0,0,1-.37-.7c-.06-.27-.18-.49-.26-.49s-.26-.24-.4-.54a7.23,7.23,0,0,0-1-1.68,1.67,1.67,0,0,1-.38-.76,1,1,0,0,0-.33-.6,1,1,0,0,1-.34-.44,9.67,9.67,0,0,0-1.08-1.72,1.17,1.17,0,0,1-.25-.56,1.77,1.77,0,0,0-.42-.73c-.85-1-.39-2.35,1.47-4.2a1.09,1.09,0,0,0,.28-.42,18.36,18.36,0,0,1,1.81-2.35,1.44,1.44,0,0,0,.28-.35,17.1,17.1,0,0,1,1.43-2,9,9,0,0,0,1.32-1.87,16.46,16.46,0,0,0-2.88-.11h-2.87l-2,3c-1.1,1.66-2.08,3.14-2.17,3.29l-.67,1a18.93,18.93,0,0,0-1.39,2.29q-.35.73-.78.39c-.2-.17-.25-1.07-.28-5.06l-.05-4.86-2.25,0a20.24,20.24,0,0,0-2.45.06m-11.35,3.71c2.91.89,3.1,5.65.29,7.22-1,.57-4.36.71-4.55.2a54.06,54.06,0,0,1,0-7.21c.33-.53,2.77-.65,4.22-.21m-219.44.24a4.79,4.79,0,0,0,1,.43c.35.11.63.27.63.34s.15.19.33.25a5.14,5.14,0,0,1,1.67,1.64.92.92,0,0,0,.22.43c.91,1.08,1.43,5.82.75,6.87a3.36,3.36,0,0,0-.37,1c-.24,1.28-2.63,4-3.55,4a2.77,2.77,0,0,0-.94.34c-.56.3-.88.33-2.91.29l-2.29,0,0-7.66c0-4.22,0-7.76,0-7.88.11-.31,5.06-.29,5.51,0m25-.07a2.65,2.65,0,0,0,.81.48,5.48,5.48,0,0,1,2.23,2.11c.13.28.34.69.47.92a1.91,1.91,0,0,1,.24.75,2.25,2.25,0,0,0,.28.83,11.88,11.88,0,0,1,0,5.37,2.35,2.35,0,0,0-.29.83,9.34,9.34,0,0,1-1.23,2.48,3.82,3.82,0,0,1-1.85,1.34,1.29,1.29,0,0,0-.6.33c-.32.39-2.83.32-3.61-.1a3,3,0,0,0-.82-.33.49.49,0,0,1-.34-.22,1.11,1.11,0,0,0-.42-.38,7,7,0,0,1-1.63-2.22,3.61,3.61,0,0,0-.33-.93c-.28-.58-.32-1-.32-3.42s0-2.84.32-3.41a3.65,3.65,0,0,0,.33-.94,1.45,1.45,0,0,1,.34-.69,1.71,1.71,0,0,0,.33-.58,7.92,7.92,0,0,1,2.34-2c.79-.42,3.53-.6,3.74-.26m96.56.26a6.84,6.84,0,0,1,2.63,2.53,2,2,0,0,0,.38.63,1.56,1.56,0,0,1,.27.77,4.35,4.35,0,0,0,.35,1.12,12.72,12.72,0,0,1,0,4.88,4.64,4.64,0,0,0-.34,1.07c-.63,3.33-4.71,5.47-7.59,4-1.39-.72-3-2.47-3-3.27a1.79,1.79,0,0,0-.3-.74c-.43-.66-.43-6,0-6.79a2.21,2.21,0,0,0,.29-.75A8.87,8.87,0,0,1,240.21,74a5.17,5.17,0,0,1,5.43-.75m45.28-.19a2.86,2.86,0,0,0,.81.34A6.19,6.19,0,0,1,295.25,77a2.61,2.61,0,0,0,.31.8c.31.38.35,4.05.05,5-.13.43-.33,1.1-.44,1.49s-.25.71-.34.71-.16.11-.16.25c0,.51-2.47,2.74-3.05,2.76a3.87,3.87,0,0,0-.87.32c-.91.44-5.15.5-5.32.07s-.11-14.68.07-15.14l.16-.43h2.46a7.43,7.43,0,0,1,2.8.23m-23.66,1.11a7.93,7.93,0,0,0,.38,1.5,7.84,7.84,0,0,1,.35,1.39,4.32,4.32,0,0,0,.34,1.18,3.07,3.07,0,0,1,.26.93A8.34,8.34,0,0,0,269,80.7c.37.89.41,1.64.12,1.93a14,14,0,0,1-4.66,0c-.37-.2-.31-1.8.11-2.65a8,8,0,0,0,.41-1.5,5.42,5.42,0,0,1,.37-1.29,4.83,4.83,0,0,0,.32-1.41c.32-2.62,1.25-3.58,1.58-1.63m53.84,0a9,9,0,0,0,.37,1.5,8.64,8.64,0,0,1,.36,1.39,4.07,4.07,0,0,0,.33,1.18,2.57,2.57,0,0,1,.26.93,7.66,7.66,0,0,0,.43,1.53c.36.89.41,1.64.12,1.93a14,14,0,0,1-4.66,0c-.38-.2-.32-1.8.1-2.65a8.72,8.72,0,0,0,.42-1.5,5,5,0,0,1,.37-1.29,4.94,4.94,0,0,0,.31-1.41c.32-2.62,1.25-3.58,1.59-1.63" style="fill:#eff3ec;fill-rule:evenodd"/><path id="path1" d="M58.59,27.45a5.22,5.22,0,0,0-1.52.22,6.5,6.5,0,0,1-1.75.27,13.79,13.79,0,0,0-2.55.42,6.64,6.64,0,0,1-1.5.31,3.07,3.07,0,0,0-1.15.33,2.82,2.82,0,0,1-1,.33,3,3,0,0,0-1,.34,3.19,3.19,0,0,1-.91.33,2.67,2.67,0,0,0-.84.31,5.23,5.23,0,0,1-1.07.42,2.77,2.77,0,0,0-.89.45,1.58,1.58,0,0,1-.72.32.53.53,0,0,0-.41.18,2,2,0,0,1-.64.43c-.28.13-.82.42-1.18.64s-.86.49-1.09.61a9.22,9.22,0,0,0-1.08.74,8.58,8.58,0,0,1-1.07.73,4.58,4.58,0,0,0-1.26,1,1.33,1.33,0,0,1-.52.38,3.22,3.22,0,0,0-.81.63c-1.32,1.25-4,4-4.42,4.46a32,32,0,0,0-2.37,3.05,3.45,3.45,0,0,1-.52.71,5.3,5.3,0,0,0-.86,1.43,2.16,2.16,0,0,1-.4.62,11.43,11.43,0,0,0-1.19,2.4.61.61,0,0,1-.24.35,1.5,1.5,0,0,0-.34.68,1.5,1.5,0,0,1-.34.68.66.66,0,0,0-.24.47,2.62,2.62,0,0,1-.31.85,5.08,5.08,0,0,0-.44,1.17,3.29,3.29,0,0,1-.33.91,4.23,4.23,0,0,0-.33,1.16,3.85,3.85,0,0,1-.36,1.18,5.36,5.36,0,0,0-.39,1.51,9.07,9.07,0,0,1-.34,1.65c-.6,1.53-.56,13.17,0,14.37A5.84,5.84,0,0,1,22.56,76a4.42,4.42,0,0,0,.34,1.43,3.85,3.85,0,0,1,.36,1.18,4.15,4.15,0,0,0,.33,1.15,3,3,0,0,1,.32.86,6.2,6.2,0,0,0,.43,1.16,3.15,3.15,0,0,1,.33.86,1.59,1.59,0,0,0,.33.66,1.54,1.54,0,0,1,.33.66,1.45,1.45,0,0,0,.34.67,1.51,1.51,0,0,1,.33.67,1.54,1.54,0,0,0,.33.66,1.53,1.53,0,0,1,.34.72.71.71,0,0,0,.26.5,2.63,2.63,0,0,1,.49.73,8.07,8.07,0,0,0,1.26,1.93,6.44,6.44,0,0,1,.67,1c.25.76,4.21,4.95,6.32,6.68,1,.78,1.88,1.56,2,1.73a1,1,0,0,0,.47.3,2.11,2.11,0,0,1,.7.42,9.51,9.51,0,0,0,1.69,1.15,12.53,12.53,0,0,1,1.09.68,3.39,3.39,0,0,0,.87.41c.34.11.63.26.63.35s.29.22.64.32a2,2,0,0,1,.86.42.71.71,0,0,0,.48.25,2.62,2.62,0,0,1,.85.31,5.41,5.41,0,0,0,1.16.42,2.08,2.08,0,0,1,.83.34,3.26,3.26,0,0,0,1,.4,12.72,12.72,0,0,1,1.25.34,24.2,24.2,0,0,0,3.83.86c.64.09,1.54.23,2,.33a31.27,31.27,0,0,0,10,.08,16.67,16.67,0,0,1,2.2-.35A6.7,6.7,0,0,0,70,105.9a5,5,0,0,1,1.33-.33,4.92,4.92,0,0,0,1.32-.33,4.4,4.4,0,0,1,1.09-.33,2.53,2.53,0,0,0,.91-.33,2.26,2.26,0,0,1,.83-.33,2.45,2.45,0,0,0,.83-.33,2.16,2.16,0,0,1,.79-.33,13.33,13.33,0,0,0,3-1.43,9.19,9.19,0,0,1,1.13-.59c.34-.15.62-.33.62-.41s.27-.22.59-.33.58-.25.58-.32a3.54,3.54,0,0,1,.88-.68,39.35,39.35,0,0,0,7.37-6.56c.37-.45.87-1,1.12-1.29A34.11,34.11,0,0,0,95,88.27c.3-.47.65-1,.79-1.18a1.23,1.23,0,0,0,.26-.6,1,1,0,0,1,.33-.57,1,1,0,0,0,.34-.54,3.85,3.85,0,0,1,.41-1,4.31,4.31,0,0,0,.42-1,.64.64,0,0,1,.24-.39,1.55,1.55,0,0,0,.35-.73,3.23,3.23,0,0,1,.33-.88,3.32,3.32,0,0,0,.34-1,3.35,3.35,0,0,1,.34-1,5.22,5.22,0,0,0,.38-1.29,6.93,6.93,0,0,1,.41-1.42,6.08,6.08,0,0,0,.33-1.6,4,4,0,0,1,.32-1.41c.37-.44.3-12.4-.08-13.33a5.06,5.06,0,0,1-.3-1.5,4.4,4.4,0,0,0-.33-1.51,3.76,3.76,0,0,1-.33-1.17A4.13,4.13,0,0,0,99.16,55a3.84,3.84,0,0,1-.33-1,2.87,2.87,0,0,0-.33-.9,2.93,2.93,0,0,1-.33-.86,3.83,3.83,0,0,0-.39-1,9.59,9.59,0,0,1-.5-1.05,2.44,2.44,0,0,0-.28-.56,4.6,4.6,0,0,1-.34-.67c-.1-.23-.34-.69-.54-1l-.93-1.58a11.54,11.54,0,0,0-.82-1.27,4.28,4.28,0,0,1-.44-.61,40.71,40.71,0,0,0-6.28-7.09A39.54,39.54,0,0,0,82.4,33.5a1.85,1.85,0,0,1-.7-.42,1.89,1.89,0,0,0-.66-.41.65.65,0,0,1-.36-.24,1.5,1.5,0,0,0-.68-.35,1.36,1.36,0,0,1-.66-.32,1.3,1.3,0,0,0-.63-.34,2.58,2.58,0,0,1-.84-.43,1.47,1.47,0,0,0-.73-.32,2.67,2.67,0,0,1-.93-.34,2.9,2.9,0,0,0-.88-.33,1.36,1.36,0,0,1-.61-.25,3.19,3.19,0,0,0-1.07-.35,2.49,2.49,0,0,1-1-.36,3.33,3.33,0,0,0-1.33-.36,5,5,0,0,1-1.44-.33A9.37,9.37,0,0,0,67.74,28a13.15,13.15,0,0,1-2.12-.3,49.2,49.2,0,0,0-7-.23M70.18,46.83c.07.23.13,4.64.14,9.79V66h7.32c8.59,0,8.2-.1,6.59,1.59-.6.62-1.48,1.58-1.95,2.13-1.57,1.8-3.68,4.1-5.54,6-.94,1-2,2.19-4.34,4.75-1.1,1.22-2.27,2.47-3.49,3.74-.46.47-1.36,1.44-2,2.16-2.72,3-3.19,3.56-4.13,4.48-1.18,1.16-1,1.25-3.42-1.48-.9-1-1.79-2-2-2.17-.61-.63-4-4.32-5-5.4-1.22-1.36-3.62-4-5.27-5.73-.69-.74-1.66-1.8-2.15-2.35-1.72-2-3.43-3.83-4.42-4.84C38.71,67,38.3,66.47,38.5,66.27s2.42-.2,7.42-.24l7.25,0V56.85c0-9.76,0-10.13.56-10.35.19-.08,4-.13,8.35-.12l8,0,.11.41" style="fill:#52ba47;fill-rule:evenodd"/><path id="path2" d="M14,.17c0,.09-.56.16-1.33.16-1.23,0-1.34,0-1.34.34s-.11.33-.68.33-.7.07-.77.33-.23.34-.66.34-.61.08-.67.31-.29.35-.73.42-.65.2-.65.33S7,3,6.83,3.05a.44.44,0,0,0-.33.43c0,.24-.11.35-.33.35a.3.3,0,0,0-.34.34.29.29,0,0,1-.33.33.29.29,0,0,0-.33.33.3.3,0,0,1-.34.34.29.29,0,0,0-.33.33.29.29,0,0,1-.33.33.3.3,0,0,0-.34.34c0,.22-.11.33-.35.33a.44.44,0,0,0-.43.33c0,.19-.19.34-.32.34s-.27.26-.33.65-.21.68-.42.73-.31.24-.31.66-.08.61-.34.67-.33.23-.33.75-.07.68-.33.75-.34.23-.34,1.35C.33,13.47.26,14,.17,14S0,31.25,0,65.42s.06,51.41.17,51.41.16.56.16,1.34c0,1.22,0,1.33.34,1.33s.33.11.33.91.07,1,.33,1.13a.69.69,0,0,1,.34.5c0,.18.12.29.33.29s.33.11.33.6.08.62.34.69.33.19.33.32a.41.41,0,0,0,.29.34c.4.15.54.39.54.93,0,.34.08.46.34.46a.29.29,0,0,1,.33.33.29.29,0,0,0,.33.33.3.3,0,0,1,.34.34.29.29,0,0,0,.33.33.29.29,0,0,1,.33.32c0,.24.16.34.67.43s.67.2.67.36a.42.42,0,0,0,.33.34c.18.05.33.19.33.32s.27.27.66.33.67.2.73.42.23.31.67.31.61.09.69.34.26.33,1.1.33,1,0,1,.33.11.34,187,.34,187,0,187-.34.11-.33,1-.33,1-.05,1.11-.33.22-.34.66-.34.6-.08.67-.33.23-.33.67-.33.6-.09.66-.33.29-.35.73-.43.65-.2.65-.32.15-.26.34-.31a.43.43,0,0,0,.33-.43c0-.24.11-.35.33-.35s.34-.11.34-.33.11-.34.33-.34a.29.29,0,0,0,.33-.33c0-.22.11-.33.34-.33s.33-.11.33-.34.11-.33.35-.33a.45.45,0,0,0,.44-.33c0-.19.18-.34.3-.34s.26-.28.32-.65.21-.67.44-.73.32-.23.32-.67.08-.6.33-.66.33-.23.33-.68.09-.61.34-.69.33-.25.33-1.1,0-1,.33-1,.34-.11.34-52.42,0-52.42-.34-52.42-.33-.11-.33-1.26,0-1.28-.33-1.36-.34-.22-.34-.75-.07-.68-.31-.74-.35-.29-.42-.73-.19-.66-.35-.66a.26.26,0,0,1-.25-.26.43.43,0,0,0-.33-.36.43.43,0,0,1-.34-.4c0-.22-.12-.31-.41-.31s-.42-.07-.42-.67-.06-.66-.33-.66a.3.3,0,0,1-.34-.34.29.29,0,0,0-.33-.33.29.29,0,0,1-.33-.33c0-.27-.11-.34-.59-.34s-.62-.08-.75-.41-.26-.42-.39-.42-.27-.15-.32-.33-.23-.34-.69-.34-.6-.06-.6-.33-.11-.33-.29-.33a.69.69,0,0,1-.5-.34c-.17-.26-.39-.33-1.12-.33S388,1,388,.67s-.11-.34-1-.34c-.56,0-1-.07-1-.16S323.89,0,200,0,14,.06,14,.17M66,27.69c.41.1,1.35.23,2.08.31a8.29,8.29,0,0,1,2,.4,3.69,3.69,0,0,0,1.25.27,3.19,3.19,0,0,1,1.25.33,3,3,0,0,0,1,.33,2.67,2.67,0,0,1,1,.34,2.94,2.94,0,0,0,.92.33,2,2,0,0,1,.79.33,2.24,2.24,0,0,0,.85.34,1.57,1.57,0,0,1,.78.33,1.78,1.78,0,0,0,.55.33,19.36,19.36,0,0,1,3.45,1.85,1,1,0,0,0,.53.32,7.39,7.39,0,0,1,1.56,1,9.3,9.3,0,0,0,1.5,1,.44.44,0,0,1,.31.24,5.24,5.24,0,0,0,.82.79,31.44,31.44,0,0,1,3.32,3,11.77,11.77,0,0,0,1,1.19,21.89,21.89,0,0,1,2.41,2.88,4.46,4.46,0,0,0,.63.9,9.62,9.62,0,0,1,1.32,2,2.6,2.6,0,0,0,.47.65.67.67,0,0,1,.25.45,1.7,1.7,0,0,0,.32.7,3.15,3.15,0,0,1,.43.89,1.55,1.55,0,0,0,.34.63,1.45,1.45,0,0,1,.33.66,1.36,1.36,0,0,0,.33.67,1.51,1.51,0,0,1,.35.72A5.1,5.1,0,0,0,98.52,53a2.64,2.64,0,0,1,.31,1,2.79,2.79,0,0,0,.34,1,2.93,2.93,0,0,1,.33,1.12,2.45,2.45,0,0,0,.27,1,6.31,6.31,0,0,1,.4,1.75,6.49,6.49,0,0,0,.4,1.75c.39.74.39,12.35,0,13.1a5.52,5.52,0,0,0-.36,1.62A5.86,5.86,0,0,1,99.81,77a3.19,3.19,0,0,0-.31,1.17,3.1,3.1,0,0,1-.33,1.18,2.69,2.69,0,0,0-.34,1,2.32,2.32,0,0,1-.33.93,2.33,2.33,0,0,0-.33.78,3.89,3.89,0,0,1-.42,1,4,4,0,0,0-.42,1,.64.64,0,0,1-.23.4,1.35,1.35,0,0,0-.34.63,2.76,2.76,0,0,1-.44.85,1.44,1.44,0,0,0-.32.69,1,1,0,0,1-.33.59,1.09,1.09,0,0,0-.34.43,4.23,4.23,0,0,1-.54.91c-.3.42-.62.9-.71,1a12.76,12.76,0,0,1-1.52,2.12c-.26.27-.92,1-1.46,1.7a36.79,36.79,0,0,1-5.35,5l-2.2,1.69a3.82,3.82,0,0,1-1.1.67.71.71,0,0,0-.45.25,6.36,6.36,0,0,1-1.22.76c-.57.29-1.48.77-2,1.08a6.24,6.24,0,0,1-1.25.57,3,3,0,0,0-.88.34,2.77,2.77,0,0,1-.83.34,2.68,2.68,0,0,0-.81.32,5.14,5.14,0,0,1-1.25.43,3.87,3.87,0,0,0-1,.32,4.35,4.35,0,0,1-1.33.34,5.73,5.73,0,0,0-1.42.33,6.31,6.31,0,0,1-1.67.33,17.2,17.2,0,0,0-2.25.39,43.21,43.21,0,0,1-9.23.06,22.62,22.62,0,0,0-2.33-.45,27.07,27.07,0,0,1-4.27-.93c-.28-.09-.88-.26-1.35-.38a4.25,4.25,0,0,1-1.24-.49,1.55,1.55,0,0,0-.7-.27,2.78,2.78,0,0,1-.92-.34,2.84,2.84,0,0,0-.89-.33.69.69,0,0,1-.46-.22,2.18,2.18,0,0,0-.86-.43c-.36-.11-.66-.27-.66-.35s-.29-.23-.65-.33a1.91,1.91,0,0,1-.85-.42.67.67,0,0,0-.35-.25,8.88,8.88,0,0,1-1.57-1c-.09-.07-.54-.37-1-.66a13,13,0,0,1-1.08-.76c-.14-.12-1-.87-2-1.65-2.11-1.73-6.07-5.92-6.32-6.68a6.44,6.44,0,0,0-.67-1,8.07,8.07,0,0,1-1.26-1.93,2.79,2.79,0,0,0-.48-.72,1.42,1.42,0,0,1-.36-.68,1.36,1.36,0,0,0-.33-.67,1.28,1.28,0,0,1-.33-.66,1.36,1.36,0,0,0-.34-.67,1.44,1.44,0,0,1-.33-.67,1.45,1.45,0,0,0-.33-.66,1.61,1.61,0,0,1-.35-.72,3.29,3.29,0,0,0-.32-.86,3.17,3.17,0,0,1-.33-.92,3.56,3.56,0,0,0-.34-.93,4.14,4.14,0,0,1-.34-1.17,3.72,3.72,0,0,0-.35-1.17A4.45,4.45,0,0,1,22.56,76a5.84,5.84,0,0,0-.34-1.54c-.61-1.21-.65-13.34,0-14.46a6.44,6.44,0,0,0,.35-1.54,5.09,5.09,0,0,1,.38-1.53,3.85,3.85,0,0,0,.36-1.18,4.23,4.23,0,0,1,.33-1.16,3.29,3.29,0,0,0,.33-.91,5.08,5.08,0,0,1,.44-1.17,2.62,2.62,0,0,0,.31-.85.69.69,0,0,1,.22-.46,2.34,2.34,0,0,0,.42-.86c.11-.36.27-.66.36-.66a.18.18,0,0,0,.16-.2A9.78,9.78,0,0,1,27,47.07a2.16,2.16,0,0,0,.4-.62A5.3,5.3,0,0,1,28.28,45a3.45,3.45,0,0,0,.52-.71,34.67,34.67,0,0,1,2.36-3.06,63.19,63.19,0,0,1,5.69-5.47c.22-.16.62-.48.9-.7a2.08,2.08,0,0,1,.65-.41,3.35,3.35,0,0,0,.83-.55,9.34,9.34,0,0,1,1.1-.76c.23-.12.72-.39,1.09-.61s.9-.51,1.18-.64a2,2,0,0,0,.64-.43.53.53,0,0,1,.41-.18,1.58,1.58,0,0,0,.72-.32,2.56,2.56,0,0,1,.89-.44,6.61,6.61,0,0,0,1.07-.41,11.56,11.56,0,0,1,2.42-.87A9.51,9.51,0,0,0,50.1,29a3.62,3.62,0,0,1,1.19-.31,6.71,6.71,0,0,0,1.54-.34,8,8,0,0,1,2-.33A3.63,3.63,0,0,0,56,27.82c.84-.45,8.1-.54,10-.13m53.24,14a.87.87,0,0,1,.26.57,1.57,1.57,0,0,0,.23.7,3.45,3.45,0,0,1,.36,1.16,3.86,3.86,0,0,0,.34,1.16,3.69,3.69,0,0,1,.32,1.08,2.79,2.79,0,0,0,.33,1,2.56,2.56,0,0,1,.33,1,5.68,5.68,0,0,0,.36,1.25,5,5,0,0,1,.35,1.25,3.51,3.51,0,0,0,.31,1.09,3.25,3.25,0,0,1,.33,1,5.67,5.67,0,0,0,.43,1.32c.46.9.24,1-1.62,1s-2-.17-2.41-1.91C118.85,52,118.86,52,117,52H115.4l-.29.87c-.16.49-.36,1.17-.43,1.52-.2.92-.3,1-2,.91l-1.57,0,0-.55a1.64,1.64,0,0,1,.22-1,5,5,0,0,0,.44-1.35,4.33,4.33,0,0,1,.41-1.29,1.59,1.59,0,0,0,.23-.79,4.58,4.58,0,0,1,.31-1.25,8.18,8.18,0,0,0,.43-1.47,4,4,0,0,1,.33-1,3.37,3.37,0,0,0,.33-1.08,3.62,3.62,0,0,1,.34-1.08,3.58,3.58,0,0,0,.31-1.1c.12-.86.58-1.77,1-1.89a13,13,0,0,1,3.91.23m10.26-.18a1.34,1.34,0,0,1,.69.65,5.39,5.39,0,0,0,.48.79,13.87,13.87,0,0,1,1.07,1.83c.14.27.44.8.67,1.17s.52.89.67,1.16.45.8.67,1.17a9.21,9.21,0,0,1,.6,1.12c.38,1,.48.16.48-3.71,0-4.56-.08-4.33,1.54-4.33s1.47-.52,1.42,7.17l0,6.75-1.69,0-1.69,0-.52-.7a3.9,3.9,0,0,1-.52-.85.67.67,0,0,0-.17-.34c-.24-.3-2.28-3.4-2.53-3.86a12.1,12.1,0,0,0-1.5-2.42,33.84,33.84,0,0,0-.17,4l0,4-1.33,0c-1.11,0-1.37,0-1.55-.24-.35-.48-.3-13.11.06-13.47a7.27,7.27,0,0,1,3.4-.11m19.42.26a3,3,0,0,0,.86.33,1.77,1.77,0,0,1,.81.44.94.94,0,0,0,.48.32,5.33,5.33,0,0,1,1.7,2,4.85,4.85,0,0,0,.36,1c1.3,2.62-.55,7.37-3.38,8.66-.46.21-1,.46-1.17.57a32.05,32.05,0,0,1-7.06.13c-.43-.23-.57-13.19-.14-13.46.62-.41,6.9-.38,7.54,0m15.22.12A4.72,4.72,0,0,1,166.29,44a5,5,0,0,1-.17,3,1.19,1.19,0,0,0-.29.48c0,.21-.84,1-1.23,1.13s-.29.13.09.52c.85.86.95,1,1.07,1.67a3.75,3.75,0,0,0,.33,1,4.18,4.18,0,0,1,.32,1.32,4.41,4.41,0,0,0,.38,1.38c.44.67.06.88-1.6.88-1.85,0-2.17-.32-2.46-2.4-.25-1.82-1-2.93-1.92-2.93h-.64v2.49c0,2.95.07,2.84-2,2.84-1.15,0-1.36,0-1.51-.32s-.22-11.67,0-12.76l.11-.67,1.17-.1c2.32-.22,5.36,0,6.22.38m13.69-.12a3,3,0,0,0,.78.39c3.35,1.12,4.51,7.59,1.94,10.86-2.23,2.83-7,3.27-9.47.89a6.13,6.13,0,0,1-1.58-2.21,1.09,1.09,0,0,0-.29-.55c-.25-.27-.29-.67-.29-2.62s0-2.35.29-2.62a1.13,1.13,0,0,0,.29-.58c0-.69,2.17-3,3-3.24a2,2,0,0,0,.69-.32c.5-.43,4.15-.43,4.66,0m10.43-.17.57.25V48.4c0,7.65.21,6.93-2.05,6.93-1.13,0-1.43,0-1.51-.26-.26-.67-.11-13.21.16-13.48a4.09,4.09,0,0,1,2.83,0m12,.28a5.06,5.06,0,0,0,.85.32,1.48,1.48,0,0,1,.54.33,1.33,1.33,0,0,0,.57.33A5.26,5.26,0,0,1,204,45.19a2.1,2.1,0,0,0,.25.75c.58,1.12,0,5.78-.74,6a.3.3,0,0,0-.18.28c0,.54-2.2,2.41-2.85,2.42a2.21,2.21,0,0,0-.73.28c-.74.42-6.57.54-7.18.14l-.4-.26v-6.3c0-7.38-.12-6.9,1.69-7.06a21.51,21.51,0,0,1,6.42.38m19.63-.41a3.33,3.33,0,0,1,1,2.06,3.72,3.72,0,0,0,.34,1.08,3.34,3.34,0,0,1,.34,1.09,7.19,7.19,0,0,0,.42,1.41,3.45,3.45,0,0,1,.31,1.13,1.86,1.86,0,0,0,.24.84,4.38,4.38,0,0,1,.4,1.2,6.37,6.37,0,0,0,.44,1.34,2.7,2.7,0,0,1,.26,1,3.72,3.72,0,0,0,.34,1.22c.62,1.37.52,1.48-1.5,1.48h-1.74l-.15-.58a2.73,2.73,0,0,0-.31-.79,2.92,2.92,0,0,1-.28-1l-.12-.8h-3.66l-.11.79a3.59,3.59,0,0,1-.25,1,3.8,3.8,0,0,0-.31.8l-.17.58-1.6,0c-1.94.05-2.11-.06-1.63-1.12A3.79,3.79,0,0,0,212.5,53a2.4,2.4,0,0,1,.23-.88,6.44,6.44,0,0,0,.42-1.32,4,4,0,0,1,.36-1.08,4.21,4.21,0,0,0,.34-1.17,6.64,6.64,0,0,1,.4-1.4,5.6,5.6,0,0,0,.33-1.17,3,3,0,0,1,.29-1,3.12,3.12,0,0,0,.32-1c.27-1.43.81-2.52,1.3-2.59a17.7,17.7,0,0,1,3.42,0m14.69.38a4.07,4.07,0,0,0,.78.35,2.34,2.34,0,0,1,.68.54c2.09,2.1,1.44,6.57-1.06,7.21a1.89,1.89,0,0,0-.69.36,4.27,4.27,0,0,1-1.75.36l-1.48.11,0,2.12c-.06,2.53,0,2.5-2.08,2.43l-1.38,0,0-6.65c0-4.63,0-6.71.14-6.87.43-.51,5.92-.44,6.92.09m13,0a3.46,3.46,0,0,0,.78.34,1.68,1.68,0,0,1,.58.45c2.17,2.31,1.6,6.35-1,7.26a1.67,1.67,0,0,0-.69.41,3.59,3.59,0,0,1-1.71.33l-1.54.1v2.13c0,2.54,0,2.48-2,2.48-1.16,0-1.37,0-1.51-.32s-.23-11.67,0-12.76l.12-.67,1.16-.1c2.2-.21,5.16,0,5.87.35M145,44.21c-.26.19-.29.59-.24,4.21l0,4,1.37,0c4.25,0,5.06-7.08.94-8.14-1.24-.31-1.74-.33-2.11,0m15.42,0c-.55.55-.18,3.13.45,3.13,2.2,0,3-2.6.93-3.15-.86-.23-1.14-.23-1.38,0m35.75-.09c-.26.07-.29.42-.29,4.26v4.18l1.43-.1a3.24,3.24,0,0,0,3.22-2.4c.36-.94.49-3,.21-3.31a3.89,3.89,0,0,1-.36-.74,3.94,3.94,0,0,0-4.21-1.89m35,.21c-.49.92-.12,3.68.49,3.68,1.56,0,2.46-1.46,1.93-3.14-.21-.66-2.13-1.08-2.42-.54m13-.12a8.1,8.1,0,0,0,0,3.6c.44.44,2.19-.19,2.36-.84a5.65,5.65,0,0,0,0-2.05c-.15-.57-2-1.11-2.37-.71m-69.87.27c-.4.18-1,.75-1,1a1.83,1.83,0,0,1-.37.67c-.59.75-.56,4,0,4.9.95,1.34,1.07,1.42,2.4,1.42,1.16,0,1.25,0,1.72-.54,1-1.05,1.59-4.13,1-5.08a3.13,3.13,0,0,1-.36-.88,2.7,2.7,0,0,0-3.43-1.45m-57.55,1.2-.2,1.25a2.81,2.81,0,0,1-.24.83,2,2,0,0,0-.24,1.32c.14.37,1.49.37,1.7,0a4.55,4.55,0,0,0-.31-2.34,3.74,3.74,0,0,1-.39-.92l-.22-.73-.1.59m100.8,1.13a6.66,6.66,0,0,1-.36,1.56c-.34.81-.2,1,.86,1s1.21-.15.87-.88a5.59,5.59,0,0,1-.36-1.39c-.19-1.39-.86-1.57-1-.26M125.46,69a5.14,5.14,0,0,0,1.33.39,4,4,0,0,1,1.21.39,2,2,0,0,0,.66.34c.91.28,3.67,2.58,3.67,3.06a.44.44,0,0,0,.22.31,5.26,5.26,0,0,1,1.18,2.24,4.66,4.66,0,0,0,.39,1.16,20.45,20.45,0,0,1,0,7,7.86,7.86,0,0,0-.44,1.32,1.86,1.86,0,0,1-.31.83,2.06,2.06,0,0,0-.36.73c-.11.34-.27.62-.36.62s-.22.18-.31.4a10.6,10.6,0,0,1-2.19,2.44,3.75,3.75,0,0,0-.94.55A9.31,9.31,0,0,1,126.12,92l-1.33.33c-2.72.69-10.92.7-11.47,0C113,92,113,91.54,113,80.83c0-12.73-.12-11.75,1.5-12a81,81,0,0,1,11,.13m25.71.07a3.59,3.59,0,0,0,.93.36,11.13,11.13,0,0,1,3.68,2.52,7.36,7.36,0,0,1,1.77,2.53,2,2,0,0,0,.42.62,1.85,1.85,0,0,1,.29.82,4.45,4.45,0,0,0,.38,1.2c.39.73.39,6.43,0,7.17a4.41,4.41,0,0,0-.38,1.21,1.88,1.88,0,0,1-.27.8,4.06,4.06,0,0,0-.59,1,7.09,7.09,0,0,1-.83,1.36,14,14,0,0,1-3.24,2.82,1.81,1.81,0,0,0-.67.31,3.06,3.06,0,0,1-.91.39,14.14,14.14,0,0,0-1.42.44c-1,.36-5.94.3-6.39-.07a2.81,2.81,0,0,0-1-.37c-1.33-.24-4.78-2.94-4.78-3.73,0-.14-.07-.25-.16-.25a6.69,6.69,0,0,1-1.18-2.33,1.55,1.55,0,0,0-.27-.66c-.74-1.06-.74-7.82,0-8.66a2.12,2.12,0,0,0,.35-.8,1.55,1.55,0,0,1,.35-.73.72.72,0,0,0,.24-.46c0-.66,2.29-3.24,3.58-4l1-.62a12.18,12.18,0,0,1,2.67-1.05,24,24,0,0,1,6.42.21M166,69c.23.23.35.68.44,1.7a12,12,0,0,0,.33,2,10.44,10.44,0,0,1,.34,1.92,7,7,0,0,0,.34,1.76,7.13,7.13,0,0,1,.34,1.83,8.88,8.88,0,0,0,.32,1.92,8.42,8.42,0,0,1,.32,1.83c.17,2,.23,2.25.65,2.19s.37-.19.48-1.3a12.42,12.42,0,0,1,.37-2,5.25,5.25,0,0,0,.26-1.25,9.78,9.78,0,0,1,.26-1.55c.13-.6.35-1.69.47-2.43a9,9,0,0,1,.39-1.66,9.74,9.74,0,0,0,.36-1.73,15.81,15.81,0,0,1,.34-1.92l.29-1,.14-.5,2.76,0c3.36,0,3.31-.07,3.48,1.65A6.71,6.71,0,0,0,179,72a7.83,7.83,0,0,1,.37,1.82,20.54,20.54,0,0,0,.39,2.29,12.53,12.53,0,0,1,.33,2,7.52,7.52,0,0,0,.33,1.67,9.7,9.7,0,0,1,.33,2c.18,2.51,1,2.76,1.08.32a11.25,11.25,0,0,1,.35-2.08,11,11,0,0,0,.34-1.92,6.14,6.14,0,0,1,.26-1.5,16,16,0,0,0,.48-2.24,16.79,16.79,0,0,1,.39-1.91,12.13,12.13,0,0,0,.34-1.8c.24-2,.25-2,3.15-2s3.6.3,2.81,1.42a4.1,4.1,0,0,0-.35,1.33,4.13,4.13,0,0,1-.33,1.33,4.62,4.62,0,0,0-.33,1.25,4,4,0,0,1-.34,1.27,3.83,3.83,0,0,0-.34,1.25A7.52,7.52,0,0,1,187.9,78a9.51,9.51,0,0,0-.41,1.66,5.31,5.31,0,0,1-.31,1.27,5.25,5.25,0,0,0-.32,1.31,5,5,0,0,1-.36,1.37,4,4,0,0,0-.34,1.29,6.21,6.21,0,0,1-.4,1.55,2.38,2.38,0,0,0-.26.9,7.51,7.51,0,0,1-.32,1.5c-.17.6-.4,1.44-.5,1.88a8.44,8.44,0,0,1-.47,1.42l-.3.62-2.71,0c-3.24,0-3.29,0-3.44-1.25a11,11,0,0,0-.34-1.63,10.54,10.54,0,0,1-.33-1.75,11.39,11.39,0,0,0-.35-1.84,18.34,18.34,0,0,1-.4-2.13,8,8,0,0,0-.32-1.66,12.42,12.42,0,0,1-.35-2,5.86,5.86,0,0,0-.56-2.33l-.36-.59-.17,1.67a9.77,9.77,0,0,1-.36,2,5.69,5.69,0,0,0-.31,1.42,7,7,0,0,1-.29,1.5,13.07,13.07,0,0,0-.38,1.66,12.23,12.23,0,0,1-.47,1.92,4.68,4.68,0,0,0-.26,1.38,4.41,4.41,0,0,1-.25,1.29,6.49,6.49,0,0,0-.35,1.32c-.17,1.1-.19,1.11-3.43,1.06l-2.89,0-.17-.58a6.32,6.32,0,0,0-.36-.92,5.36,5.36,0,0,1-.29-1.4,4,4,0,0,0-.27-1.26,5.07,5.07,0,0,1-.33-1.41,8.55,8.55,0,0,0-.32-1.49,7.48,7.48,0,0,1-.35-1.36,13.6,13.6,0,0,0-.41-1.67,7.4,7.4,0,0,1-.34-1.58,5.56,5.56,0,0,0-.34-1.41,6.59,6.59,0,0,1-.33-1.5,5.59,5.59,0,0,0-.35-1.54,6,6,0,0,1-.38-1.52A6.51,6.51,0,0,0,161,73.7a5,5,0,0,1-.29-1.31,5.82,5.82,0,0,0-.31-1.39,3,3,0,0,1-.24-2.1c.33-.4,5.39-.33,5.8.08m33.52,0a1.13,1.13,0,0,1,.33.65.72.72,0,0,0,.22.49,8.55,8.55,0,0,1,.85,1.39c.34.67.8,1.52,1,1.89s.67,1.19,1,1.83c.71,1.36,1.09,2.07,1.29,2.42.08.13.26.47.4.75s.43.8.65,1.16a30.36,30.36,0,0,1,2.08,4.32c0,.15.07.27.16.27a74.84,74.84,0,0,0,.06-7.5c-.08-6-.06-7.54.11-7.75s4.65-.38,5,0,.29,23.47,0,23.76c-.74.75-6.3.14-6.3-.69a.69.69,0,0,0-.26-.45,2.49,2.49,0,0,1-.49-.73,8.4,8.4,0,0,0-1-1.57,1.51,1.51,0,0,1-.29-.69.78.78,0,0,0-.27-.52,2.73,2.73,0,0,1-.51-.73c-.13-.28-.41-.8-.63-1.17s-.52-.89-.66-1.16-.45-.8-.68-1.17c-.58-1-1-1.77-1.26-2.25-.1-.23-.25-.53-.33-.67s-.57-1.09-1.08-2.12-1-1.88-1-1.88,0,3.49,0,7.75c.07,6.13,0,7.8-.12,8s-4.65.38-5,0-.29-23.47,0-23.76,6.23-.27,6.63.13m22.65-.11c.12.16.19,3,.22,9.62l0,9.41,4.5,0c4,0,4.52.07,4.7.32a11.17,11.17,0,0,1,0,4.35c-.21.21-14.16.31-14.7.1-.35-.13-.41-23.81-.05-24a21.25,21.25,0,0,1,5.27.11m25.07.16a2,2,0,0,0,.83.28,1.58,1.58,0,0,1,.83.34,1.64,1.64,0,0,0,.59.33c.77,0,4.2,3.67,4.2,4.49a1.58,1.58,0,0,0,.33.63,1.57,1.57,0,0,1,.33.78,2.42,2.42,0,0,0,.3.85c.43.74.42,7.08,0,7.83a2.47,2.47,0,0,0-.29.94,1.66,1.66,0,0,1-.29.83,11.54,11.54,0,0,0-.71,1.21,10.83,10.83,0,0,1-5.66,4.61,13.81,13.81,0,0,0-1.34.41c-1,.39-5.86.31-6.5-.11a3.6,3.6,0,0,0-1-.37,1.66,1.66,0,0,1-.81-.35.69.69,0,0,0-.4-.25c-1.08,0-4.77-4.5-4.77-5.81a1.34,1.34,0,0,0-.24-.57c-.66-1-.67-7.38,0-8.38a5,5,0,0,0,.41-1c.11-.38.25-.69.33-.69s.19-.19.25-.41a4.58,4.58,0,0,1,1.19-1.81.5.5,0,0,0,.25-.33c0-.4,2.61-2.45,3.1-2.45a.37.37,0,0,0,.28-.24c.05-.13.38-.29.73-.36a4.49,4.49,0,0,0,1-.28c1-.55,6.34-.6,7.14-.07m23.25-.18a.87.87,0,0,1,.2.54,2.9,2.9,0,0,0,.33,1,2.92,2.92,0,0,1,.33,1.08,1.69,1.69,0,0,0,.26.83,4.49,4.49,0,0,1,.43,1.32,6.8,6.8,0,0,0,.39,1.39,4.91,4.91,0,0,1,.34,1.16,3.8,3.8,0,0,0,.34,1.09,3.4,3.4,0,0,1,.34,1,4.54,4.54,0,0,0,.33,1.09,5.65,5.65,0,0,1,.33,1.25,3.86,3.86,0,0,0,.34,1.16,3.37,3.37,0,0,1,.33,1.08,2.71,2.71,0,0,0,.34,1,2.56,2.56,0,0,1,.33,1,3.49,3.49,0,0,0,.32,1.08,4.09,4.09,0,0,1,.33,1.08,5.32,5.32,0,0,0,.35,1.19,4.41,4.41,0,0,1,.34,1.17,3.32,3.32,0,0,0,.34,1.1,3.28,3.28,0,0,1,.36,2.16c-.38.46-5.8.26-5.8-.2a.66.66,0,0,0-.24-.41,2.16,2.16,0,0,1-.35-1,4.62,4.62,0,0,0-.33-1.2,5.72,5.72,0,0,1-.33-1.13,5.83,5.83,0,0,0-.44-1.38l-.32-.66H267c-3.51,0-3.78.11-3.78,1.42a6.73,6.73,0,0,1-.32,1.37,10.37,10.37,0,0,0-.42,1.69,3.28,3.28,0,0,1-.45,1.21l-.34.47h-2.47c-3.12,0-3.66-.31-2.77-1.59a4.65,4.65,0,0,0,.42-1.31,4.21,4.21,0,0,1,.34-1.17,2.75,2.75,0,0,0,.27-.94,5.38,5.38,0,0,1,.43-1.32,2.83,2.83,0,0,0,.31-1.08,2.6,2.6,0,0,1,.26-1,6.42,6.42,0,0,0,.43-1.41,4.2,4.2,0,0,1,.41-1.25,1.8,1.8,0,0,0,.23-.84,2.46,2.46,0,0,1,.33-1,2.29,2.29,0,0,0,.34-1,4.48,4.48,0,0,1,.27-1.12,11.17,11.17,0,0,0,.42-1.5,4.3,4.3,0,0,1,.38-1.17,3.72,3.72,0,0,0,.34-1.08,5,5,0,0,1,.34-1.17,5.49,5.49,0,0,0,.33-1.16,3.77,3.77,0,0,1,.32-1.09,3,3,0,0,0,.32-.9c.2-1,.16-1,3.93-1,2.46,0,3.5,0,3.65.2m22.12.16a8.84,8.84,0,0,0,1.41.39,2.28,2.28,0,0,1,.83.23,9.53,9.53,0,0,0,1.22.67,11.33,11.33,0,0,1,3.41,3,7.51,7.51,0,0,1,1.21,2.32,2.29,2.29,0,0,0,.28.81c.48.85.53,6.18.07,7.49a5.86,5.86,0,0,0-.35,1.37.67.67,0,0,1-.18.48,2.55,2.55,0,0,0-.5.8c-1,2.12-3.48,4.44-5.32,4.94a6,6,0,0,0-1.11.42,2.89,2.89,0,0,1-1,.25,4.54,4.54,0,0,0-1.25.28c-1.17.47-10.73.44-11.07,0-.45-.62-.35-22.78.11-23.19.67-.61,10.75-.78,12.24-.21m31.71-.16a.87.87,0,0,1,.2.54,2.9,2.9,0,0,0,.33,1,2.78,2.78,0,0,1,.34,1.08,1.68,1.68,0,0,0,.25.83,4.21,4.21,0,0,1,.43,1.32,6.7,6.7,0,0,0,.4,1.39,5,5,0,0,1,.33,1.16,4.14,4.14,0,0,0,.34,1.09,2.91,2.91,0,0,1,.34,1,5,5,0,0,0,.33,1.09,4.73,4.73,0,0,1,.33,1.25,3.82,3.82,0,0,0,.35,1.16,3.65,3.65,0,0,1,.33,1.08,2.56,2.56,0,0,0,.33,1,2.56,2.56,0,0,1,.33,1,3.79,3.79,0,0,0,.32,1.08,3.72,3.72,0,0,1,.34,1.08,4.44,4.44,0,0,0,.35,1.19,4.85,4.85,0,0,1,.33,1.17,3.58,3.58,0,0,0,.34,1.1,3.22,3.22,0,0,1,.36,2.16c-.38.46-5.8.26-5.8-.2a.64.64,0,0,0-.23-.41,1.94,1.94,0,0,1-.35-1,5.59,5.59,0,0,0-.33-1.2,4.62,4.62,0,0,1-.33-1.13,6.92,6.92,0,0,0-.44-1.38l-.33-.66h-2.7c-3.51,0-3.79.11-3.79,1.42a6.11,6.11,0,0,1-.32,1.37,13,13,0,0,0-.42,1.69,3.46,3.46,0,0,1-.44,1.21l-.34.47H313c-3.11,0-3.66-.31-2.77-1.59a4.65,4.65,0,0,0,.42-1.31,4.21,4.21,0,0,1,.34-1.17,2.94,2.94,0,0,0,.28-.94,5,5,0,0,1,.42-1.32,2.83,2.83,0,0,0,.31-1.08,2.6,2.6,0,0,1,.26-1,5.92,5.92,0,0,0,.43-1.41,4.51,4.51,0,0,1,.41-1.25,1.69,1.69,0,0,0,.23-.84,2.35,2.35,0,0,1,.34-1,2.58,2.58,0,0,0,.34-1,4,4,0,0,1,.26-1.12,11.17,11.17,0,0,0,.42-1.5,4.3,4.3,0,0,1,.38-1.17,3.68,3.68,0,0,0,.35-1.08,4.6,4.6,0,0,1,.33-1.17,5,5,0,0,0,.33-1.16,3.45,3.45,0,0,1,.33-1.09,3.36,3.36,0,0,0,.31-.9c.2-1,.16-1,3.93-1,2.46,0,3.51,0,3.65.2m20.37-.05c2.19.41,4.73,1.92,5.08,3a.7.7,0,0,0,.34.39.38.38,0,0,1,.24.31,3.24,3.24,0,0,0,.35.88c.66,1.26.62,4.31-.08,6.19-.51,1.38-2.27,3.47-3.09,3.67a2,2,0,0,0-.68.3c-.72.58-2.59,1-4.91,1.08l-2.34.09-.08,4-.08,4-2.56,0a8.86,8.86,0,0,1-2.8-.15c-.44-.37-.33-23,.12-23.41s8.3-.82,10.49-.42m15.13.05c.15.14.2,1.44.2,4.8,0,5.36,0,5.48,1,3.33a2.07,2.07,0,0,1,.38-.59,4.28,4.28,0,0,0,.95-1.4,1,1,0,0,1,.29-.47,9.09,9.09,0,0,0,.84-1.12c.72-1.11.89-1.36,1.33-2a2.09,2.09,0,0,0,.38-.67,1.85,1.85,0,0,1,.37-.62c.21-.25.55-.69.77-1l.39-.51h3c4,0,4.11.09,2.68,1.78L372,71c-.15.21-.62.8-1,1.32a5.87,5.87,0,0,0-.75,1.09.92.92,0,0,1-.29.42,21.84,21.84,0,0,0-2.11,2.63c-.6.78-1.24,1.6-1.43,1.82-.45.53-.43,1,.08,1.68a2.19,2.19,0,0,1,.41.76,1,1,0,0,0,.34.49,1.05,1.05,0,0,1,.33.47.87.87,0,0,0,.23.43,10.22,10.22,0,0,1,.74,1.22,6.78,6.78,0,0,0,.77,1.22.94.94,0,0,1,.26.49.84.84,0,0,0,.23.46,8.09,8.09,0,0,1,.76,1.22,10.43,10.43,0,0,0,.75,1.23,2.61,2.61,0,0,1,.41.68,15.69,15.69,0,0,0,1.31,2.2c1.23,1.94,1.19,2-2.63,2-3.15,0-3,0-3.68-1.28a3.68,3.68,0,0,0-.5-.88,3.21,3.21,0,0,1-.39-.67c-.15-.32-.45-.88-.68-1.25s-.51-.9-.64-1.19a2,2,0,0,0-.41-.63,1.14,1.14,0,0,1-.28-.59c-.06-.26-.2-.52-.32-.56a.91.91,0,0,1-.34-.55,2.78,2.78,0,0,0-.43-.86,1.51,1.51,0,0,1-.33-.65c0-.59-.73-.54-1.29.09l-.79.87c-.21.22-.25.93-.25,4,0,2.69-.06,3.8-.2,3.94a21.73,21.73,0,0,1-5.2.1c-.36-.13-.41-23.81-.06-24a23.42,23.42,0,0,1,5.26.09m-20.19,4.24a31.17,31.17,0,0,0-.11,3.58v3.48H341a4.37,4.37,0,0,0,3.83-1.63,4.23,4.23,0,0,0,.21-3.91,1.7,1.7,0,0,1-.33-.57c0-.08-.21-.24-.46-.35a9.1,9.1,0,0,1-.88-.45,9.85,9.85,0,0,0-3.72-.14m-220.67.17c-.06.06-.11,3.48-.11,7.59v7.48l1.79-.06c5.26-.21,7.66-2.64,7.7-7.79a10.33,10.33,0,0,0-.74-4,.9.9,0,0,1-.25-.41,7,7,0,0,0-1.76-1.76.61.61,0,0,1-.38-.22,2.87,2.87,0,0,0-1.1-.43,2.59,2.59,0,0,1-1-.36,16.83,16.83,0,0,0-4.14,0m166.89.31c-.1.26-.16,3.35-.16,7.6v7.17l1.87-.08c5.39-.23,7.7-2.59,7.69-7.86a11.33,11.33,0,0,0-.54-3.75,1.68,1.68,0,0,1-.35-.48,5.43,5.43,0,0,0-3.13-2.45,5.07,5.07,0,0,1-1.08-.35c-.9-.46-4.11-.31-4.3.2m-140,.06c-1.19.43-2.48,1.44-2.49,1.95a1.58,1.58,0,0,1-.32.59,2.86,2.86,0,0,0-.43,1.14,4.77,4.77,0,0,1-.36,1.2,10.55,10.55,0,0,0,0,4.44,4.87,4.87,0,0,1,.34,1.19c.15,1,1.4,3,1.88,3a.45.45,0,0,1,.33.22c.83,1.42,5.56.7,6.45-1,.15-.28.48-.88.74-1.34,1.13-2,1.24-6.77.18-8.28a1.91,1.91,0,0,1-.32-.63c0-1.75-3.76-3.33-6-2.52m96,0c-1.4.44-3.21,2.53-3.21,3.69a4.69,4.69,0,0,1-.34,1.17,7.94,7.94,0,0,0,0,4.63,4.91,4.91,0,0,1,.34,1.22c0,1.13,1.87,3.14,3.3,3.55,3.47,1,6.22-1.12,6.84-5.2.95-6.11-2.41-10.49-6.93-9.06M266.42,75a13.34,13.34,0,0,0-.45,1.88,7.48,7.48,0,0,1-.49,1.76,3.58,3.58,0,0,0-.31,1.17,2.51,2.51,0,0,1-.24.95,3.31,3.31,0,0,0-.29,1l-.06.54,2,0c2.38,0,2.56,0,2.22-.51a3.41,3.41,0,0,1-.36-1.13A13,13,0,0,0,268,79a6,6,0,0,1-.32-1.41,1.19,1.19,0,0,0-.25-.71,4,4,0,0,1-.41-1.41c-.2-1.42-.24-1.45-.59-.48m53.84,0a13.28,13.28,0,0,0-.46,1.88,8,8,0,0,1-.48,1.76,3.39,3.39,0,0,0-.32,1.17,2.51,2.51,0,0,1-.24.95,3.31,3.31,0,0,0-.29,1l-.05.54,2,0c2.38,0,2.56,0,2.21-.51a3.66,3.66,0,0,1-.36-1.13,11.58,11.58,0,0,0-.44-1.7,6,6,0,0,1-.32-1.41,1.19,1.19,0,0,0-.25-.71,4,4,0,0,1-.4-1.41c-.2-1.42-.24-1.45-.59-.48" style="fill:#040404;fill-rule:evenodd"/><path id="path3" d="M115.33,41.43c-.37.12-.83,1-1,1.89a3.58,3.58,0,0,1-.31,1.1,3.62,3.62,0,0,0-.34,1.08,3.37,3.37,0,0,1-.33,1.08,4,4,0,0,0-.33,1,8.18,8.18,0,0,1-.43,1.47,4.58,4.58,0,0,0-.31,1.25,1.59,1.59,0,0,1-.23.79,4.33,4.33,0,0,0-.41,1.29,5,5,0,0,1-.44,1.35,1.64,1.64,0,0,0-.22,1l0,.55,1.57,0c1.73.05,1.83,0,2-.91.07-.35.27-1,.43-1.52l.29-.87H117c1.85,0,1.84,0,2.15,1.42.37,1.74.59,1.91,2.41,1.91s2.08-.14,1.62-1a5.67,5.67,0,0,1-.43-1.32,3.25,3.25,0,0,0-.33-1,3.51,3.51,0,0,1-.31-1.09,5,5,0,0,0-.35-1.25,5.68,5.68,0,0,1-.36-1.25,2.56,2.56,0,0,0-.33-1,2.79,2.79,0,0,1-.33-1,3.69,3.69,0,0,0-.32-1.08,3.86,3.86,0,0,1-.34-1.16,3.45,3.45,0,0,0-.36-1.16,1.57,1.57,0,0,1-.23-.7c0-.68-2.83-1.22-4.17-.8m10.77.16c-.36.36-.41,13-.06,13.47.18.24.44.28,1.55.24l1.33,0,0-4a33.84,33.84,0,0,1,.17-4,12.1,12.1,0,0,1,1.5,2.42c.25.46,2.29,3.56,2.53,3.86a.67.67,0,0,1,.17.34,3.9,3.9,0,0,0,.52.85l.52.7,1.69,0,1.69,0,0-6.75c.05-7.69.16-7.17-1.42-7.17s-1.54-.23-1.54,4.33c0,3.87-.1,4.66-.48,3.71a9.21,9.21,0,0,0-.6-1.12c-.22-.37-.52-.89-.67-1.17s-.45-.8-.67-1.16-.53-.9-.67-1.17a13.87,13.87,0,0,0-1.07-1.83,5.39,5.39,0,0,1-.48-.79c-.33-.65-.68-.76-2.47-.78-1,0-1.43,0-1.62.24m16.73-.11a5.89,5.89,0,0,0-1.45.24c-.43.27-.29,13.23.14,13.46a32.05,32.05,0,0,0,7.06-.13c.19-.11.71-.36,1.17-.57,1.54-.7,2.46-1.79,3.36-4a9,9,0,0,0,0-4.68,4.85,4.85,0,0,1-.36-1,5.33,5.33,0,0,0-1.7-2,.94.94,0,0,1-.48-.32,1.77,1.77,0,0,0-.81-.44,3,3,0,0,1-.86-.33,25.55,25.55,0,0,0-6.09-.26m15.09,0-1.17.1-.11.67c-.19,1.09-.16,12.39,0,12.76s.36.32,1.51.32c2.06,0,2,.11,2-2.84V50h.64c.94,0,1.67,1.11,1.92,2.93.29,2.08.61,2.4,2.46,2.4,1.66,0,2-.21,1.6-.88a4.41,4.41,0,0,1-.38-1.38,4.18,4.18,0,0,0-.32-1.32,3.75,3.75,0,0,1-.33-1c-.12-.65-.22-.81-1.07-1.67-.38-.39-.38-.41-.09-.52s1.23-.92,1.23-1.13a1.19,1.19,0,0,1,.29-.48c.22-.23.3-.61.3-1.43,0-3.37-2.57-4.59-8.5-4m16.16,0a2.06,2.06,0,0,0-.91.29,2,2,0,0,1-.69.32c-.81.19-3,2.55-3,3.24a1.13,1.13,0,0,1-.29.58c-.25.27-.29.66-.29,2.62s0,2.35.29,2.62a1.09,1.09,0,0,1,.29.55,6.13,6.13,0,0,0,1.58,2.21c2.52,2.38,7.24,1.94,9.47-.89,2.57-3.27,1.41-9.74-1.94-10.86a3,3,0,0,1-.78-.39,11.27,11.27,0,0,0-3.75-.29m11.35.14c-.27.27-.42,12.81-.16,13.48.08.21.38.26,1.51.26,2.26,0,2.05.72,2.05-6.93V41.82l-.57-.25a4.09,4.09,0,0,0-2.83,0m8.43-.12c-1.81.16-1.69-.32-1.69,7.06v6.3l.4.26c.61.4,6.44.28,7.18-.14a2.21,2.21,0,0,1,.73-.28c.65,0,2.85-1.88,2.85-2.42a.3.3,0,0,1,.18-.28c.75-.25,1.32-4.91.74-6a2.1,2.1,0,0,1-.25-.75,5.26,5.26,0,0,0-1.76-2.36,1.33,1.33,0,0,1-.57-.33,1.48,1.48,0,0,0-.54-.33,5.06,5.06,0,0,1-.85-.32,21.51,21.51,0,0,0-6.42-.38m22.63,0c-.49.07-1,1.16-1.3,2.59a3.12,3.12,0,0,1-.32,1,3,3,0,0,0-.29,1,5.6,5.6,0,0,1-.33,1.17,6.64,6.64,0,0,0-.4,1.4,4.21,4.21,0,0,1-.34,1.17,4,4,0,0,0-.36,1.08,6.44,6.44,0,0,1-.42,1.32,2.4,2.4,0,0,0-.23.88,3.79,3.79,0,0,1-.32,1.16c-.48,1.06-.31,1.17,1.63,1.12l1.6,0,.17-.58a3.8,3.8,0,0,1,.31-.8,3.59,3.59,0,0,0,.25-1l.11-.79h3.66l.12.8a2.92,2.92,0,0,0,.28,1,2.73,2.73,0,0,1,.31.79l.15.58h1.74c2,0,2.12-.11,1.5-1.48a3.72,3.72,0,0,1-.34-1.22,2.7,2.7,0,0,0-.26-1,6.37,6.37,0,0,1-.44-1.34,4.38,4.38,0,0,0-.4-1.2,1.86,1.86,0,0,1-.24-.84,3.45,3.45,0,0,0-.31-1.13,7.19,7.19,0,0,1-.42-1.41,3.34,3.34,0,0,0-.34-1.09,3.72,3.72,0,0,1-.34-1.08c-.34-2-1.37-2.53-4.43-2m12.4,0c-1.49.11-1.4-.35-1.35,7.16l0,6.65,1.38,0c2,.07,2,.1,2.08-2.43l0-2.12,1.48-.11a4.27,4.27,0,0,0,1.75-.36,1.89,1.89,0,0,1,.69-.36c2.5-.64,3.15-5.11,1.06-7.21a2.34,2.34,0,0,0-.68-.54,4.07,4.07,0,0,1-.78-.35c-.67-.36-3.35-.54-5.71-.38m12.86,0-1.16.1-.12.67c-.19,1.09-.16,12.39,0,12.76s.35.32,1.51.32c2,0,2,.06,2-2.48V50.72l1.54-.1a3.59,3.59,0,0,0,1.71-.33,1.67,1.67,0,0,1,.69-.41c2.64-.91,3.21-5,1-7.26a1.68,1.68,0,0,0-.58-.45,3.46,3.46,0,0,1-.78-.34c-.71-.38-3.67-.56-5.87-.35m-122.64.39a4.12,4.12,0,0,1,.33.88l.55,1.83c.19.64.49,1.66.67,2.25s.47,1.61.67,2.25c.63,2,1,3.31,1.27,4.34a5.23,5.23,0,0,0,.45,1.22c.31.38-.21.53-1.63.49l-1.34-.05-.26-.58a8.79,8.79,0,0,1-.48-1.45c-.28-1.19-.37-1.24-2.36-1.18s-1.92,0-2.42,2c-.32,1.27-.38,1.3-2.15,1.22-1.31-.05-1.32-.07-.85-1.46.14-.42.41-1.32.61-2,.63-2.24,1-3.57,1.33-4.5.16-.51.46-1.52.67-2.25s.52-1.77.7-2.3l.34-.95h1.88c1.33,0,1.93.06,2,.2m10.72.13a1.11,1.11,0,0,1,.34.5,4.79,4.79,0,0,0,.56,1c.31.49.83,1.37,1.14,2s.79,1.41,1,1.82a17.93,17.93,0,0,1,1.31,2.31c.57,1.21.68.63.73-3.79l0-4.2,1.28.05,1.29,0V55.08l-1.53.05-1.54,0-.45-.72c-.25-.39-.91-1.42-1.48-2.29-1.7-2.63-2.17-3.37-2.75-4.42-.3-.55-.58-1-.61-1.07-.23-.28-.31.7-.39,4.29l-.08,4.11-1.29.05-1.29,0V41.67h1.66c1.45,0,1.71,0,2,.33m18.9,0a6.8,6.8,0,0,1,1.37.52,5.43,5.43,0,0,0,.77.47c3.28,1.66,2.88,8.75-.62,11-1.52,1-7.21,1.69-8.39,1-.48-.26-.57-12.6-.1-13.08s5.43-.38,7,.06m14.94,0a3.42,3.42,0,0,1,1.17,6.11c-.68.58-.69.59-.39.94.92,1.08,1.21,1.78,1.8,4.47a6.38,6.38,0,0,0,.34,1.14c.21.34-.29.49-1.62.49h-1.28l-.34-.92a10.18,10.18,0,0,1-.45-1.63c-.3-2-1-2.86-2.33-2.76l-.65.06,0,2.4c-.06,2.9,0,2.85-1.72,2.85h-1.32V48.62c0-4.88,0-6.61.2-6.75.38-.38,5.45-.27,6.64.14m14.08,0a4.53,4.53,0,0,0,.83.33c.85,0,2.59,2.53,3,4.29,1.26,5.55-3.46,10.07-8.53,8.17-4.5-1.7-5.41-8.54-1.57-11.76a4.9,4.9,0,0,1,1-.7,4.89,4.89,0,0,0,.81-.33,8.07,8.07,0,0,1,4.5,0m10.5,6.42v6.66h-2.83l0-6.5c-.05-7.71-.22-6.94,1.5-6.88l1.38,0v6.67M199.83,42c2.93.83,4.43,2.91,4.39,6.1,0,3.39-1.65,5.71-4.64,6.66-1.21.4-6,.59-6.56.27s-.56-12.87-.06-13.16,5.65-.22,6.87.13m20.46.44c.14.36.38,1.11.55,1.66s.37,1.23.46,1.5c.17.5.55,1.76,1.2,4s1,3.5,1.36,4.41c.4,1.15.34,1.2-1.45,1.14l-1.47-.05-.14-.58a10.62,10.62,0,0,0-.38-1.17c-.12-.32-.27-.79-.33-1l-.1-.46h-3.82l-.1.46a7,7,0,0,1-.32,1c-.12.32-.28.85-.37,1.17l-.14.58-1.16.05c-1.49.07-2-.05-1.83-.43s.68-2.11,1-3.28c.13-.46.34-1.17.48-1.59s.41-1.31.6-2,.49-1.7.66-2.25c.29-.93,1-3.23,1.11-3.71.05-.16.53-.2,2-.17l2,0,.24.67M234.44,42c4.76,1.79,2.82,8.44-2.47,8.47-1.34,0-1.3,0-1.3,2.25,0,2.46,0,2.45-1.7,2.38l-1.22-.05,0-6.48c0-4.64,0-6.54.14-6.71.35-.42,5.39-.31,6.59.14m12.93,0c4.85,1.86,2.86,8.47-2.56,8.49-1.25,0-1.29.08-1.35,2.51l0,2.07-1.38.05-1.37,0V48.62c0-4.87.05-6.61.2-6.75.37-.38,5.43-.27,6.5.14M145.08,43.78c-.55.15-.57.33-.58,4.5,0,4.73,0,4.55,1,4.55,3.17,0,5.05-2.56,4.36-5.9a4.17,4.17,0,0,0-4.76-3.15m15.13.14c-.59.42-.57,3.11,0,3.5.82.54,2.34-.09,2.86-1.19.68-1.42-1.59-3.23-2.89-2.31m36-.11c-.58.17-.63.52-.65,4.55,0,4.81.11,5,2.74,4.22,3.48-1.06,3.83-7.12.48-8.45a5,5,0,0,0-2.57-.32M231,44c-.59.59-.45,3.81.18,4.16.88.49,2.48-.43,2.8-1.61.48-1.78-1.8-3.73-3-2.55m13,0c-.88.71-.62,4.07.32,4.28a2.39,2.39,0,0,0,2.43-3.41c-.47-.91-2.08-1.42-2.75-.87m-96.94.29c4.12,1.06,3.31,8.09-.94,8.14l-1.37,0,0-4c-.06-4.88-.11-4.79,2.35-4.16m14.69-.08a1.53,1.53,0,0,1-.05,3c-1.34.37-1.53.19-1.53-1.49s.18-1.87,1.58-1.49m12.42.12c-2.51,1.23-2.51,6.92,0,8.2,2.26,1.16,4.31-.76,4.32-4s-2-5.29-4.33-4.15m24.34,0A3,3,0,0,1,200.33,46a3.89,3.89,0,0,0,.36.74c.28.32.15,2.37-.21,3.31a3.24,3.24,0,0,1-3.22,2.4l-1.43.1V48.37c0-3.84,0-4.19.29-4.26a6.25,6.25,0,0,1,2.39.22m34.2-.07c.84.29,1,.51,1,1.63s-.17,1.44-1,1.79c-1.46.63-1.72.38-1.72-1.68s.21-2.25,1.71-1.74m13,0c.86.3,1,.5,1,1.63s-.14,1.39-.95,1.75c-1.5.66-1.71.45-1.71-1.67s.14-2.26,1.68-1.71m-69.17.21a2.6,2.6,0,0,1,1.25,1.42,3.13,3.13,0,0,0,.36.88c.59,1,0,4-1,5.08-.47.51-.56.54-1.72.54-1.33,0-1.45-.08-2.4-1.42-.6-.85-.63-4.15,0-4.9a1.83,1.83,0,0,0,.37-.67c0-.21.6-.78,1-1a4.35,4.35,0,0,1,2.18,0m-59.72.11a7.08,7.08,0,0,0-.29,1.3,6.9,6.9,0,0,1-.34,1.43c-.81,1.53-.3,2.46,1.27,2.28,1-.11,1-.08.53-2s-1-3.27-1.17-3m100.79,1c-.06.35-.23,1-.37,1.56a8.34,8.34,0,0,0-.28,1.66v.75h2.33l.05-.57a2.06,2.06,0,0,0-.13-.93,8.28,8.28,0,0,1-.47-1.49c-.37-1.48-.95-2-1.12-1M117.49,46.73a4.55,4.55,0,0,1,.31,2.34c-.21.37-1.56.37-1.7,0a2,2,0,0,1,.24-1.32,2.81,2.81,0,0,0,.24-.83l.2-1.25.1-.59.22.73a3.74,3.74,0,0,0,.39.92m101.1.33a5.59,5.59,0,0,0,.36,1.39c.34.73.18.88-.87.88s-1.2-.16-.86-1a6.66,6.66,0,0,0,.36-1.56c.15-1.31.82-1.13,1,.26M114.5,68.83c-1.62.25-1.5-.73-1.5,12,0,10.71,0,11.15.32,11.53.55.68,8.75.67,11.47,0l1.33-.33a9.31,9.31,0,0,0,3.09-1.29,3.75,3.75,0,0,1,.94-.55,10.6,10.6,0,0,0,2.19-2.44c.09-.22.22-.4.31-.4s.25-.28.36-.62a2.06,2.06,0,0,1,.36-.73,1.86,1.86,0,0,0,.31-.83,7.86,7.86,0,0,1,.44-1.32,20.45,20.45,0,0,0,0-7,4.66,4.66,0,0,1-.39-1.16,5.26,5.26,0,0,0-1.18-2.24.44.44,0,0,1-.22-.31c0-.48-2.76-2.78-3.67-3.06a2,2,0,0,1-.66-.34,4,4,0,0,0-1.21-.39,5.14,5.14,0,0,1-1.33-.39,81,81,0,0,0-11-.13m30.25,0a12.18,12.18,0,0,0-2.67,1.05l-1,.62c-1.29.8-3.58,3.38-3.58,4a.72.72,0,0,1-.24.46,1.55,1.55,0,0,0-.35.73,2.12,2.12,0,0,1-.35.8c-.74.84-.74,7.6,0,8.66a1.55,1.55,0,0,1,.27.66A6.69,6.69,0,0,0,138,88.17c.09,0,.16.11.16.25,0,.79,3.45,3.49,4.78,3.73a2.81,2.81,0,0,1,1,.37c.45.37,5.42.43,6.39.07a14.14,14.14,0,0,1,1.42-.44,3.06,3.06,0,0,0,.91-.39,1.81,1.81,0,0,1,.67-.31,14,14,0,0,0,3.24-2.82,7.09,7.09,0,0,0,.83-1.36,4.06,4.06,0,0,1,.59-1,1.88,1.88,0,0,0,.27-.8,4.41,4.41,0,0,1,.38-1.21c.39-.74.39-6.44,0-7.17a4.45,4.45,0,0,1-.38-1.2,1.85,1.85,0,0,0-.29-.82,2,2,0,0,1-.42-.62,7.36,7.36,0,0,0-1.77-2.53,11.13,11.13,0,0,0-3.68-2.52,3.59,3.59,0,0,1-.93-.36,24,24,0,0,0-6.42-.21m15.43.08a3,3,0,0,0,.24,2.1,5.82,5.82,0,0,1,.31,1.39A5,5,0,0,0,161,73.7a6.51,6.51,0,0,1,.33,1.41,6,6,0,0,0,.38,1.52,5.59,5.59,0,0,1,.35,1.54,6.59,6.59,0,0,0,.33,1.5,5.56,5.56,0,0,1,.34,1.41,7.4,7.4,0,0,0,.34,1.58,13.6,13.6,0,0,1,.41,1.67,7.48,7.48,0,0,0,.35,1.36,8.55,8.55,0,0,1,.32,1.49,5.07,5.07,0,0,0,.33,1.41,4,4,0,0,1,.27,1.26,5.36,5.36,0,0,0,.29,1.4,6.32,6.32,0,0,1,.36.92l.17.58,2.89,0c3.24,0,3.26,0,3.43-1.06a6.49,6.49,0,0,1,.35-1.32,4.41,4.41,0,0,0,.25-1.29,4.68,4.68,0,0,1,.26-1.38,12.23,12.23,0,0,0,.47-1.92,13.07,13.07,0,0,1,.38-1.66,7,7,0,0,0,.29-1.5,5.69,5.69,0,0,1,.31-1.42,9.77,9.77,0,0,0,.36-2l.17-1.67.36.59a5.86,5.86,0,0,1,.56,2.33,12.42,12.42,0,0,0,.35,2,8,8,0,0,1,.32,1.66,18.34,18.34,0,0,0,.4,2.13,11.39,11.39,0,0,1,.35,1.84,10.54,10.54,0,0,0,.33,1.75,11,11,0,0,1,.34,1.63c.15,1.28.2,1.3,3.44,1.25l2.71,0,.3-.62a8.44,8.44,0,0,0,.47-1.42c.1-.44.33-1.28.5-1.88a7.51,7.51,0,0,0,.32-1.5,2.38,2.38,0,0,1,.26-.9,6.21,6.21,0,0,0,.4-1.55,4,4,0,0,1,.34-1.29,5,5,0,0,0,.36-1.37,5.25,5.25,0,0,1,.32-1.31,5.31,5.31,0,0,0,.31-1.27A9.51,9.51,0,0,1,187.9,78a7.52,7.52,0,0,0,.34-1.46,3.83,3.83,0,0,1,.34-1.25,4,4,0,0,0,.34-1.27,4.62,4.62,0,0,1,.33-1.25,4.13,4.13,0,0,0,.33-1.33,4.1,4.1,0,0,1,.35-1.33c.79-1.12.18-1.42-2.81-1.42s-2.91,0-3.15,2a12.13,12.13,0,0,1-.34,1.8,16.79,16.79,0,0,0-.39,1.91,16,16,0,0,1-.48,2.24,6.14,6.14,0,0,0-.26,1.5,11,11,0,0,1-.34,1.92,11.25,11.25,0,0,0-.35,2.08c-.05,2.44-.9,2.19-1.08-.32a9.7,9.7,0,0,0-.33-2,7.52,7.52,0,0,1-.33-1.67,12.53,12.53,0,0,0-.33-2,20.54,20.54,0,0,1-.39-2.29A7.83,7.83,0,0,0,179,72a6.71,6.71,0,0,1-.32-1.62c-.17-1.72-.12-1.7-3.48-1.65l-2.76,0-.14.5-.29,1a15.81,15.81,0,0,0-.34,1.92,9.74,9.74,0,0,1-.36,1.73,9,9,0,0,0-.39,1.66c-.12.74-.34,1.83-.47,2.43a9.78,9.78,0,0,0-.26,1.55,5.25,5.25,0,0,1-.26,1.25,12.42,12.42,0,0,0-.37,2c-.11,1.11-.16,1.26-.48,1.3s-.48-.14-.65-2.19a8.42,8.42,0,0,0-.32-1.83,8.88,8.88,0,0,1-.32-1.92,7.13,7.13,0,0,0-.34-1.83,7,7,0,0,1-.34-1.76,10.44,10.44,0,0,0-.34-1.92,12,12,0,0,1-.33-2c-.18-2-.15-2-3.4-2-2.05,0-2.69,0-2.84.23m32.69,0c-.29.29-.29,23.47,0,23.76s4.69.28,5,0,.19-1.87.12-8c-.05-4.26-.07-7.75,0-7.75s.47.85,1,1.88,1,2,1.08,2.12.23.44.33.67c.23.48.68,1.3,1.26,2.25.23.37.53.89.68,1.17s.44.8.66,1.16.5.89.63,1.17a2.73,2.73,0,0,0,.51.73.78.78,0,0,1,.27.52,1.51,1.51,0,0,0,.29.69,8.4,8.4,0,0,1,1,1.57,2.49,2.49,0,0,0,.49.73.69.69,0,0,1,.26.45c0,.83,5.56,1.44,6.3.69.29-.29.29-23.47,0-23.76s-4.69-.28-5,0-.19,1.79-.11,7.75a74.84,74.84,0,0,1-.06,7.5c-.09,0-.16-.12-.16-.27a30.36,30.36,0,0,0-2.08-4.32c-.22-.36-.51-.89-.65-1.16s-.32-.62-.4-.75c-.2-.35-.58-1.06-1.29-2.42-.33-.64-.78-1.47-1-1.83s-.67-1.22-1-1.89a8.55,8.55,0,0,0-.85-1.39.72.72,0,0,1-.22-.49c0-.87-.43-1-3.71-1-2.15,0-3.11.06-3.25.2m24-.09c-.36.14-.3,23.82.05,24,.54.21,14.49.11,14.7-.1a11.17,11.17,0,0,0,0-4.35c-.18-.25-.71-.28-4.7-.32l-4.5,0,0-9.41c0-6.6-.1-9.46-.22-9.62a21.25,21.25,0,0,0-5.27-.11m24,0a4.5,4.5,0,0,0-.84.31,4.49,4.49,0,0,1-1,.28c-.35.07-.68.23-.73.36a.37.37,0,0,1-.28.24c-.49,0-3.1,2-3.1,2.45a.5.5,0,0,1-.25.33,4.58,4.58,0,0,0-1.19,1.81c-.06.22-.17.41-.25.41s-.22.31-.33.69a5,5,0,0,1-.41,1c-.66,1-.65,7.37,0,8.38a1.34,1.34,0,0,1,.24.57c0,1.31,3.69,5.81,4.77,5.81a.69.69,0,0,1,.4.25,1.66,1.66,0,0,0,.81.35,3.6,3.6,0,0,1,1,.37c.64.42,5.46.5,6.5.11a13.81,13.81,0,0,1,1.34-.41,10.83,10.83,0,0,0,5.66-4.61,11.54,11.54,0,0,1,.71-1.21,1.66,1.66,0,0,0,.29-.83,2.47,2.47,0,0,1,.29-.94c.43-.75.44-7.09,0-7.83a2.42,2.42,0,0,1-.3-.85,1.57,1.57,0,0,0-.33-.78,1.58,1.58,0,0,1-.33-.63c0-.82-3.43-4.49-4.2-4.49a1.64,1.64,0,0,1-.59-.33,1.58,1.58,0,0,0-.83-.34,2,2,0,0,1-.83-.28,22.16,22.16,0,0,0-6.3-.24m22.27.08a2.24,2.24,0,0,0-.3.79,3,3,0,0,1-.32.9,3.77,3.77,0,0,0-.32,1.09,5.49,5.49,0,0,1-.33,1.16,5,5,0,0,0-.34,1.17,3.72,3.72,0,0,1-.34,1.08,4.3,4.3,0,0,0-.38,1.17,11.17,11.17,0,0,1-.42,1.5,4.48,4.48,0,0,0-.27,1.12,2.29,2.29,0,0,1-.34,1,2.46,2.46,0,0,0-.33,1,1.8,1.8,0,0,1-.23.84,4.2,4.2,0,0,0-.41,1.25,6.42,6.42,0,0,1-.43,1.41,2.6,2.6,0,0,0-.26,1,2.83,2.83,0,0,1-.31,1.08,5.38,5.38,0,0,0-.43,1.32,2.75,2.75,0,0,1-.27.94,4.21,4.21,0,0,0-.34,1.17,4.65,4.65,0,0,1-.42,1.31c-.89,1.28-.35,1.59,2.77,1.59h2.47l.34-.47a3.28,3.28,0,0,0,.45-1.21,10.37,10.37,0,0,1,.42-1.69,6.73,6.73,0,0,0,.32-1.37c0-1.31.27-1.42,3.78-1.42h2.71l.32.66a5.83,5.83,0,0,1,.44,1.38,5.72,5.72,0,0,0,.33,1.13,4.62,4.62,0,0,1,.33,1.2,2.16,2.16,0,0,0,.35,1,.66.66,0,0,1,.24.41c0,.46,5.42.66,5.8.2a3.28,3.28,0,0,0-.36-2.16,3.32,3.32,0,0,1-.34-1.1,4.41,4.41,0,0,0-.34-1.17,5.32,5.32,0,0,1-.35-1.19,4.09,4.09,0,0,0-.33-1.08,3.49,3.49,0,0,1-.32-1.08,2.56,2.56,0,0,0-.33-1,2.71,2.71,0,0,1-.34-1,3.37,3.37,0,0,0-.33-1.08,3.86,3.86,0,0,1-.34-1.16,5.65,5.65,0,0,0-.33-1.25,4.54,4.54,0,0,1-.33-1.09,3.4,3.4,0,0,0-.34-1,3.8,3.8,0,0,1-.34-1.09,4.91,4.91,0,0,0-.34-1.16,6.8,6.8,0,0,1-.39-1.39,4.49,4.49,0,0,0-.43-1.32,1.69,1.69,0,0,1-.26-.83,2.92,2.92,0,0,0-.33-1.08,2.9,2.9,0,0,1-.33-1c0-.7-.24-.74-3.85-.74-2.68,0-3.49,0-3.63.22m18.36-.08c-1.69.22-1.55-.87-1.55,12,0,9.47,0,11.32.24,11.6.34.46,9.9.49,11.07,0a4.54,4.54,0,0,1,1.25-.28,2.89,2.89,0,0,0,1-.25,6,6,0,0,1,1.11-.42c1.84-.5,4.34-2.82,5.32-4.94a2.55,2.55,0,0,1,.5-.8.67.67,0,0,0,.18-.48,5.86,5.86,0,0,1,.35-1.37c.46-1.31.41-6.64-.07-7.49a2.29,2.29,0,0,1-.28-.81,7.51,7.51,0,0,0-1.21-2.32,11.33,11.33,0,0,0-3.41-3,9.53,9.53,0,0,1-1.22-.67,2.28,2.28,0,0,0-.83-.23,8.84,8.84,0,0,1-1.41-.39,76.32,76.32,0,0,0-11-.22m35.47.08a2.46,2.46,0,0,0-.3.79,3.36,3.36,0,0,1-.31.9,3.45,3.45,0,0,0-.33,1.09,5,5,0,0,1-.33,1.16,4.6,4.6,0,0,0-.33,1.17,3.68,3.68,0,0,1-.35,1.08,4.3,4.3,0,0,0-.38,1.17,11.17,11.17,0,0,1-.42,1.5,4,4,0,0,0-.26,1.12,2.58,2.58,0,0,1-.34,1,2.35,2.35,0,0,0-.34,1,1.69,1.69,0,0,1-.23.84,4.51,4.51,0,0,0-.41,1.25,5.92,5.92,0,0,1-.43,1.41,2.6,2.6,0,0,0-.26,1,2.83,2.83,0,0,1-.31,1.08,5,5,0,0,0-.42,1.32,2.94,2.94,0,0,1-.28.94,4.21,4.21,0,0,0-.34,1.17,4.65,4.65,0,0,1-.42,1.31c-.89,1.28-.34,1.59,2.77,1.59h2.48l.34-.47a3.46,3.46,0,0,0,.44-1.21,13,13,0,0,1,.42-1.69,6.11,6.11,0,0,0,.32-1.37c0-1.31.28-1.42,3.79-1.42h2.7l.33.66a6.92,6.92,0,0,1,.44,1.38,4.62,4.62,0,0,0,.33,1.13,5.59,5.59,0,0,1,.33,1.2,1.94,1.94,0,0,0,.35,1,.64.64,0,0,1,.23.41c0,.46,5.42.66,5.8.2a3.22,3.22,0,0,0-.36-2.16,3.58,3.58,0,0,1-.34-1.1,4.85,4.85,0,0,0-.33-1.17,4.44,4.44,0,0,1-.35-1.19,3.72,3.72,0,0,0-.34-1.08,3.79,3.79,0,0,1-.32-1.08,2.56,2.56,0,0,0-.33-1,2.56,2.56,0,0,1-.33-1,3.65,3.65,0,0,0-.33-1.08,3.82,3.82,0,0,1-.35-1.16,4.73,4.73,0,0,0-.33-1.25,5,5,0,0,1-.33-1.09,2.91,2.91,0,0,0-.34-1,4.14,4.14,0,0,1-.34-1.09,5,5,0,0,0-.33-1.16,6.7,6.7,0,0,1-.4-1.39,4.21,4.21,0,0,0-.43-1.32,1.68,1.68,0,0,1-.25-.83,2.78,2.78,0,0,0-.34-1.08,2.9,2.9,0,0,1-.33-1c0-.7-.23-.74-3.85-.74-2.68,0-3.48,0-3.63.22m18.28-.07c-1.6.22-1.47-.86-1.47,12.18,0,9.56,0,11.49.23,11.65a8.86,8.86,0,0,0,2.8.15l2.56,0,.08-4,.08-4,2.34-.09c2.32-.09,4.19-.5,4.91-1.08a2,2,0,0,1,.68-.3c.82-.2,2.58-2.29,3.09-3.67.7-1.88.74-4.93.08-6.19a3.24,3.24,0,0,1-.35-.88.38.38,0,0,0-.24-.31.7.7,0,0,1-.34-.39c-.35-1.1-2.89-2.61-5.08-3a91.47,91.47,0,0,0-9.37,0m19.24,0c-.35.14-.3,23.82.06,24a21.73,21.73,0,0,0,5.2-.1c.14-.14.2-1.25.2-3.94,0-3.08,0-3.79.25-4l.79-.87c.56-.63,1.29-.68,1.29-.09a1.51,1.51,0,0,0,.33.65,2.78,2.78,0,0,1,.43.86.91.91,0,0,0,.34.55c.12,0,.26.3.32.56a1.14,1.14,0,0,0,.28.59,2,2,0,0,1,.41.63c.13.29.42.82.64,1.19s.53.93.68,1.25a3.21,3.21,0,0,0,.39.67,3.68,3.68,0,0,1,.5.88c.64,1.32.53,1.28,3.68,1.28,3.82,0,3.86,0,2.63-2a15.69,15.69,0,0,1-1.31-2.2,2.61,2.61,0,0,0-.41-.68,10.43,10.43,0,0,1-.75-1.23,8.09,8.09,0,0,0-.76-1.22.84.84,0,0,1-.23-.46.94.94,0,0,0-.26-.49,6.78,6.78,0,0,1-.77-1.22,10.22,10.22,0,0,0-.74-1.22.87.87,0,0,1-.23-.43,1.05,1.05,0,0,0-.33-.47,1,1,0,0,1-.34-.49,2.19,2.19,0,0,0-.41-.76c-.51-.69-.53-1.15-.08-1.68.19-.22.83-1,1.43-1.82a21.84,21.84,0,0,1,2.11-2.63.92.92,0,0,0,.29-.42,5.87,5.87,0,0,1,.75-1.09c.42-.52.89-1.11,1-1.32l.46-.59c1.43-1.69,1.28-1.78-2.68-1.78h-3l-.39.51c-.22.29-.56.73-.77,1a1.85,1.85,0,0,0-.37.62,2.09,2.09,0,0,1-.38.67c-.44.61-.61.86-1.33,2a9.09,9.09,0,0,1-.84,1.12,1,1,0,0,0-.29.47,4.28,4.28,0,0,1-.95,1.4A2.07,2.07,0,0,0,361,77c-1,2.15-1,2-1-3.33,0-3.36-.05-4.66-.2-4.8a23.42,23.42,0,0,0-5.26-.09m-229,.52c6.86,1.59,10.21,7.51,8.27,14.65-.94,3.45-2.1,5-5.28,6.92-2.88,1.77-14.34,2.5-15.16,1-.31-.58-.22-21.92.1-22.24.8-.79,9-1,12.07-.29m25.42-.06a11.3,11.3,0,0,1,4.6,2.71,13.61,13.61,0,0,1,1.81,2.49,6.4,6.4,0,0,0,.41,1,10.32,10.32,0,0,1,1,5.1,12.55,12.55,0,0,1-2.44,8.06c-2.13,3.12-8.78,5.14-12.2,3.71a3.35,3.35,0,0,0-.91-.27c-.9,0-4.85-3-4.86-3.7a.72.72,0,0,0-.21-.33c-1.69-1.72-2.47-7.92-1.38-11,1-2.94,2.6-5.18,4.36-6.17l1.23-.7a13,13,0,0,1,8.59-.82M165.63,69a4.33,4.33,0,0,1,.47,1.54l.42,2.32c.1.51.31,1.74.49,2.75s.39,2.21.48,2.67c.17.8.61,3.45,1,6.1l.21,1.27.39-.46a3.39,3.39,0,0,0,.56-1.84,8.34,8.34,0,0,1,.31-1.64,5.12,5.12,0,0,0,.26-1.26,20.73,20.73,0,0,1,.43-2.24A10.09,10.09,0,0,0,171,76.5a6.64,6.64,0,0,1,.26-1.32c.14-.48.37-1.48.5-2.23.82-4.62.4-4.12,3.47-4.12s3,0,3.26,1.9c.1.73.29,1.74.42,2.25s.32,1.57.43,2.35a8.86,8.86,0,0,0,.32,1.66,6,6,0,0,1,.24,1.26c.06.55.22,1.56.36,2.25s.34,2,.45,2.83c.19,1.42.24,1.59.57,1.64s.46-.13.65-1.89a19.8,19.8,0,0,1,.32-2c.12-.55.27-1.41.33-1.91s.25-1.56.41-2.34.47-2.24.66-3.25c1-5.27.65-4.75,3.5-4.74,3.18,0,3.07-.48,1.34,5.66-.16.6-.35,1.35-.41,1.67s-.21,1-.34,1.41c-.31,1.09-.72,2.75-1,4-.12.55-.34,1.45-.49,2s-.38,1.42-.51,1.92l-.49,1.92c-.15.55-.37,1.45-.51,2s-.38,1.48-.55,2.08l-.31,1.08-2.4,0c-3.48.07-3.34.16-3.72-2.33-.25-1.6-.38-2.33-.92-4.88-.42-2-1-5-1.18-6.68-.33-2.38-.91-2.7-1.16-.64-.08.72-.34,2.18-.56,3.23s-.5,2.37-.61,2.92-.33,1.52-.5,2.17-.39,1.66-.49,2.26a12.59,12.59,0,0,1-.33,1.58,11,11,0,0,0-.26,1.28c-.14,1.1-.29,1.14-3.36,1.09l-2.61,0-.15-.5a32.29,32.29,0,0,1-.87-3.41c-.38-1.9-.84-3.88-1.41-6.09-.28-1.1-.51-2.13-.51-2.29a12.55,12.55,0,0,0-.33-1.5c-.17-.66-.43-1.73-.57-2.37-.37-1.67-1.07-4.64-1.43-6-.22-.86-.26-1.24-.13-1.37a21.39,21.39,0,0,1,5.25,0M199,69a2.2,2.2,0,0,1,.66.88A30.85,30.85,0,0,0,201.44,73a2.46,2.46,0,0,1,.31.65,2.26,2.26,0,0,0,.33.66c.12.14.6,1,1.09,1.92s.93,1.74,1,1.83a52.32,52.32,0,0,1,3.07,6.13c.11.47.34.59.52.29.06-.1.12-3.64.14-7.88l0-7.7,2.23,0c1.68,0,2.28,0,2.38.17s.19,23,0,23.36c-.09.23-.48.27-2.63.27-2.7,0-3.1-.11-3.45-.9-.09-.19-.39-.69-.66-1.1s-.54-.87-.61-1c-.16-.35-1.18-2.15-1.55-2.75-.17-.28-.47-.82-.67-1.21s-.55-1-.78-1.32a9.75,9.75,0,0,1-.58-1c-.09-.19-.34-.65-.56-1s-.48-.86-.58-1.09a4,4,0,0,0-.33-.66c-.32-.5-2-4-2-4.16a.24.24,0,0,0-.37-.14s-.08,3.68-.13,8.13l-.09,8.08-2.23,0c-1.68,0-2.28,0-2.38-.17s-.19-23,0-23.36,5.51-.4,6.09-.09m23.15,9.41c0,5.22.14,9.59.21,9.7s1.2.21,4.54.21c5.17,0,4.75-.21,4.75,2.32,0,1.48,0,1.69-.33,1.84s-13.77.26-14.24.08-.41-23.48-.06-23.63a21.88,21.88,0,0,1,2.63,0l2.41,0,.09,9.5m25.08-9.11c8.64,2.89,10.45,15.4,3.08,21.22-3.23,2.56-10.46,2.77-13.29.39-2.57-2.17-3.35-3.29-4.28-6.15a14.63,14.63,0,0,1,.76-9.59,3.81,3.81,0,0,0,.31-.71,10,10,0,0,1,1.47-2.1,14.09,14.09,0,0,1,3.2-2.4,14.58,14.58,0,0,1,3-1,18.32,18.32,0,0,1,5.75.33m23-.27a5.63,5.63,0,0,1,.33.88c.11.36.36,1.19.56,1.83s.51,1.65.68,2.25c.29,1,.43,1.49,1.14,3.75.17.55.47,1.56.67,2.25s.44,1.47.54,1.75.25.8.34,1.17.31,1,.47,1.5.61,1.92,1,3.25.85,2.8,1,3.28c.61,1.61.59,1.63-2.11,1.68-3.43.07-2.91.66-4.62-5.26-.24-.8-.52-.87-3.58-.86-3.79,0-3.37-.35-4.36,3.82a10.4,10.4,0,0,1-.54,1.75l-.24.5H259c-2.48,0-2.58,0-2.55-.33s1-3.77,1.6-5.58c.13-.42.4-1.32.6-2,.93-3.18,1.47-5,1.88-6.25.09-.28.3-1,.47-1.67s.37-1.35.46-1.58.32-1,.51-1.59.54-1.79.77-2.55a12.13,12.13,0,0,0,.43-1.62c0-.58,6.75-.93,7.11-.37m22.05.21c4.69,1.07,7.3,3.42,8.46,7.66a15,15,0,0,1-.88,9.34l-.66,1.2c-.72,1.34-3.91,3.87-4.92,3.89a3.3,3.3,0,0,0-.91.33,3.45,3.45,0,0,1-1.12.32,12,12,0,0,0-1.58.29c-2.17.54-9.7.38-10.3-.22-.39-.39-.38-22.08,0-22.47.77-.77,9-1,11.9-.34M324.11,69a4.12,4.12,0,0,1,.33.88l.57,1.83c.2.64.5,1.65.67,2.25.3,1,.44,1.49,1.14,3.75.17.55.48,1.56.68,2.25s.43,1.47.53,1.75.25.8.35,1.17.3,1,.46,1.5.61,1.92,1,3.25.85,2.8,1,3.28c.61,1.61.59,1.63-2.11,1.68-3.42.07-2.91.66-4.62-5.26-.23-.8-.51-.87-3.58-.86-3.78,0-3.36-.35-4.35,3.82a11.22,11.22,0,0,1-.55,1.75l-.24.5h-2.58c-2.48,0-2.58,0-2.55-.33s1-3.77,1.6-5.58c.14-.42.41-1.32.61-2,.92-3.18,1.46-5,1.87-6.25.09-.28.31-1,.47-1.67s.38-1.35.47-1.58.31-1,.51-1.59.54-1.79.77-2.55a13.19,13.19,0,0,0,.42-1.62c0-.58,6.75-.93,7.11-.37m21.4.24a7.58,7.58,0,0,1,1.54.6,1.82,1.82,0,0,0,.61.29c1.3,0,3.26,3.66,3.25,6.08,0,5.14-3.16,7.93-9.33,8.23l-2.16.1-.09,4-.08,4-2.29,0a10.32,10.32,0,0,1-2.63-.13c-.46-.25-.53-22.45-.07-22.91.79-.78,8.79-1,11.25-.31m14.33,4.55c.05,2.71.11,4.94.12,5,.21.24.4,0,1.12-1.37.15-.28,1.49-2.3,3-4.5l2.71-4,2.91,0c3.75-.05,3.8,0,2,2.12-.12.14-.59.75-1,1.34l-1.09,1.42c-.15.18-.52.67-.84,1.08L367,77.08c-1.26,1.63-1.42,2.19-.86,2.94.17.22.64,1,1,1.65l.91,1.52.55.91.75,1.26,1.09,1.84c.39.67.86,1.44,1,1.72a11.25,11.25,0,0,1,.58,1,7.65,7.65,0,0,0,1.13,1.86c.71.78.39.89-2.68.89s-3,.06-3.78-1.42c-.24-.46-.6-1.12-.8-1.46l-1-1.84-1-1.78c-.18-.32-.5-.89-.72-1.25s-.51-.91-.65-1.21a1.41,1.41,0,0,0-1-.88,4.52,4.52,0,0,0-.89,1l-.74,1-.09,3.91-.08,3.92-2.25,0a21.78,21.78,0,0,1-2.62,0l-.38-.1V80.76c0-9.23,0-11.75.21-11.82a21.58,21.58,0,0,1,2.62,0l2.42,0,.09,4.91M119.26,73c-.41.09-.52.23-.64.78-.17.85-.08,14.51.1,14.69a7.2,7.2,0,0,0,1.92.11c5.16-.09,8-3,8-8.11a10.56,10.56,0,0,0-.92-4.12.92.92,0,0,1-.24-.42,6.79,6.79,0,0,0-2-1.94,10.5,10.5,0,0,0-6.21-1m166.94,0a.86.86,0,0,0-.54.5c-.26.67-.21,14.84,0,15,.81.52,5.17-.16,6.54-1,4.29-2.72,4.59-10.58.5-13.22a10.88,10.88,0,0,0-6.55-1.26m53.34.08c-.37.38-.29,7.12.08,7.28a6.45,6.45,0,0,0,3.88-.4,3.82,3.82,0,0,0,.64-6.5c-.8-.56-4.15-.83-4.6-.38m-193.84.37c-2.57,1.11-3.92,3.66-3.93,7.44,0,6.21,4.24,9.4,8.81,6.6,2.51-1.54,3.34-7.71,1.53-11.35a5.06,5.06,0,0,0-6.41-2.69m96.47-.16a4.41,4.41,0,0,0-2.25,1.38,4,4,0,0,0-.75,1,1,1,0,0,1-.23.43c-1.46,1.68-1.4,7.31.1,9.84a5.1,5.1,0,0,0,8.7.35c3.8-5.9-.12-15-5.57-13m101.16,0a9.1,9.1,0,0,0,.88.45c.25.11.46.27.46.35a1.7,1.7,0,0,0,.33.57,4.23,4.23,0,0,1-.21,3.91A4.37,4.37,0,0,1,341,80.16H339.5V76.69a31.17,31.17,0,0,1,.11-3.58,9.85,9.85,0,0,1,3.72.14m-220.25.07a2.59,2.59,0,0,0,1,.36,2.87,2.87,0,0,1,1.1.43.61.61,0,0,0,.38.22,7,7,0,0,1,1.76,1.76.9.9,0,0,0,.25.41,10.33,10.33,0,0,1,.74,4c0,5.15-2.44,7.58-7.7,7.79l-1.79.06V80.87c0-4.11,0-7.53.11-7.59a16.83,16.83,0,0,1,4.14,0m143.19,1.17a9.46,9.46,0,0,0-.44,1.74,10.43,10.43,0,0,1-.42,1.8l-.67,2.22a7.72,7.72,0,0,0-.29,1.5l0,.67h2.33c2.72,0,2.54.22,1.85-2.25-1.06-3.79-1.29-4.65-1.5-5.72-.29-1.5-.32-1.5-.83,0m23.86-1.1a5.07,5.07,0,0,0,1.08.35,5.43,5.43,0,0,1,3.13,2.45,1.68,1.68,0,0,0,.35.48,11.33,11.33,0,0,1,.54,3.75c0,5.27-2.3,7.63-7.69,7.86l-1.87.08V81.19c0-4.25.06-7.34.16-7.6.19-.51,3.4-.66,4.3-.2m30,1.1a8.68,8.68,0,0,0-.44,1.74,9.82,9.82,0,0,1-.43,1.8l-.67,2.22a7,7,0,0,0-.28,1.5l0,.67h2.33c2.72,0,2.54.22,1.85-2.25-1.06-3.79-1.29-4.65-1.49-5.72-.3-1.5-.32-1.5-.83,0m-171.17-.91c1.26.44,2.89,1.9,2.89,2.59a1.91,1.91,0,0,0,.32.63c1.06,1.51.95,6.26-.18,8.28-.26.46-.59,1.06-.74,1.34-.89,1.67-5.62,2.39-6.45,1a.45.45,0,0,0-.33-.22c-.48,0-1.73-2-1.88-3a4.87,4.87,0,0,0-.34-1.19,10.55,10.55,0,0,1,0-4.44,4.77,4.77,0,0,0,.36-1.2,2.86,2.86,0,0,1,.43-1.14,1.58,1.58,0,0,0,.32-.59c0-1.36,3.7-2.68,5.6-2m96.16,0c5.23,1.61,5.16,12.72-.09,14.31-2.64.8-6.34-1.3-6.34-3.58a4.91,4.91,0,0,0-.34-1.22,7.94,7.94,0,0,1,0-4.63,4.69,4.69,0,0,0,.34-1.17c0-2.46,3.64-4.56,6.43-3.71M267,75.43a4,4,0,0,0,.41,1.41,1.19,1.19,0,0,1,.25.71A6,6,0,0,0,268,79a13,13,0,0,1,.44,1.7,3.41,3.41,0,0,0,.36,1.13c.34.52.16.56-2.22.51l-2,0,.06-.54a3.31,3.31,0,0,1,.29-1,2.51,2.51,0,0,0,.24-.95,3.58,3.58,0,0,1,.31-1.17,7.48,7.48,0,0,0,.49-1.76,6.82,6.82,0,0,1,.81-2.6,6.24,6.24,0,0,1,.23,1.2m53.84,0a4,4,0,0,0,.4,1.41,1.19,1.19,0,0,1,.25.71,6,6,0,0,0,.32,1.41,11.58,11.58,0,0,1,.44,1.7,3.66,3.66,0,0,0,.36,1.13c.35.52.17.56-2.21.51l-2,0,.05-.54a3.31,3.31,0,0,1,.29-1,2.51,2.51,0,0,0,.24-.95,3.39,3.39,0,0,1,.32-1.17,8,8,0,0,0,.48-1.76,7,7,0,0,1,.81-2.6,6.76,6.76,0,0,1,.24,1.2" style="fill:#747474;fill-rule:evenodd"/><path id="path4" d="M114.87,42.62c-.18.53-.5,1.56-.7,2.3s-.51,1.74-.67,2.25c-.31.93-.7,2.26-1.33,4.5-.2.68-.47,1.58-.61,2-.47,1.39-.46,1.41.85,1.46,1.77.08,1.83,0,2.15-1.22.5-2,.43-2,2.42-2s2.08,0,2.36,1.18a8.79,8.79,0,0,0,.48,1.45l.26.58,1.34.05c1.42,0,1.94-.11,1.63-.49a5.23,5.23,0,0,1-.45-1.22c-.27-1-.64-2.31-1.27-4.34-.2-.64-.5-1.65-.67-2.25s-.48-1.61-.67-2.25-.44-1.48-.55-1.87c-.25-.85-.47-1.1-.88-1s-.26.09,0,.1.39.18.53.82a6.69,6.69,0,0,0,.43,1.29,2.36,2.36,0,0,1,.26.83,7,7,0,0,0,.33,1.33c.18.55.52,1.68.76,2.5s.55,1.77.67,2.09a8.05,8.05,0,0,1,.33,1.24,4.69,4.69,0,0,0,.33,1.09,5.07,5.07,0,0,1,.34,1.22l.12.79-1.31,0-1.31,0-.12-.59a8.94,8.94,0,0,0-.36-1.25,4,4,0,0,1-.27-.94c0-.4-.35-.47-2.36-.47h-1.82l-.31.52a5.26,5.26,0,0,0-.5,1.53c-.21,1.22-.29,1.27-1.81,1.28-1.31,0-1.32,0-1-.55a3.45,3.45,0,0,0,.35-1.11,4.18,4.18,0,0,1,.33-1.09,3.55,3.55,0,0,0,.33-1.15,3.5,3.5,0,0,1,.34-1.17,3.92,3.92,0,0,0,.33-1.21,2.26,2.26,0,0,1,.33-1,2.13,2.13,0,0,0,.34-1,4.62,4.62,0,0,1,.33-1.2,6.13,6.13,0,0,0,.39-1.26,12,12,0,0,1,.5-1.7c.18-.48.27-.87.2-.87a2.66,2.66,0,0,0-.47.95m14.64-.56a6.06,6.06,0,0,1,.62.91,20.62,20.62,0,0,0,1.71,2.78.47.47,0,0,1,.16.36A5.22,5.22,0,0,0,133.18,48c.07,0,.18.22.24.5a1.24,1.24,0,0,0,.27.6,2.43,2.43,0,0,1,.47.81c.21.49.43.73.7.79l.39.07V46.22a42.25,42.25,0,0,0-.12-4.55,36.44,36.44,0,0,0-.17,4.19c-.05,4.41-.16,5-.73,3.78a17.93,17.93,0,0,0-1.31-2.31c-.26-.41-.74-1.23-1-1.82s-.83-1.48-1.14-2a4.79,4.79,0,0,1-.56-1,1.55,1.55,0,0,0-.84-.83c-.09,0,0,.17.18.39m8,6.28,0,6.66h-2.95l-.28-.54c-.16-.3-.43-.77-.61-1s-.46-.75-.62-1.05-.34-.54-.42-.54-.21-.17-.3-.37a11.26,11.26,0,0,0-.66-1.13c-.27-.41-.57-.9-.67-1.08s-.39-.71-.67-1.17-.62-1.07-.78-1.37-.41-.54-.58-.54-.3.26-.3,4.43V55L127.42,55a3.07,3.07,0,0,0-1.25.08,3.27,3.27,0,0,0,1.29.08l1.29-.05.08-4.11c.08-3.59.16-4.57.39-4.29,0,0,.31.52.61,1.07.58,1,1,1.79,2.75,4.42.57.87,1.23,1.9,1.48,2.29l.45.72,1.54,0,1.53-.05,0-6.57c0-3.62,0-6.63-.09-6.7s-.1,2.87-.08,6.53m4.3-6.41c-.47.48-.38,12.82.1,13.08,1.18.64,6.87-.07,8.39-1,3.5-2.23,3.9-9.32.62-11a5.43,5.43,0,0,1-.77-.47,8.67,8.67,0,0,0-3.27-.82l-.75,0,.75.14a8.36,8.36,0,0,1,3.24.94,2,2,0,0,0,.63.38,2.84,2.84,0,0,1,1.13,1.07,1.34,1.34,0,0,0,.32.5c.91,1,.91,5.58,0,6.74a1.62,1.62,0,0,0-.32.57A6.45,6.45,0,0,1,150,53.83a.93.93,0,0,0-.46.24c-.79.72-6.81,1.27-7.41.68-.36-.36-.41-12.54-.06-12.67a9.28,9.28,0,0,1,1.21-.23l1-.14-1.11,0c-.81,0-1.19.05-1.38.24m15.25,0a.7.7,0,0,0-.13.54c.07.24.08.23.1-.06s.15-.38,1-.47c1.36-.16,1.44-.23.27-.24-.7,0-1.08.06-1.22.23m5.41,0c.36.13,1,.32,1.41.43,2.47.65,2.95,3.89.84,5.66-.74.62-.82.87-.38,1.2a5.68,5.68,0,0,1,1.21,2.3,7,7,0,0,0,.32,1.29,8.7,8.7,0,0,1,.38,1.54l.05.59h-2.49l-.11-.59a6.63,6.63,0,0,0-.38-1.2,3.34,3.34,0,0,1-.27-1.08,2.25,2.25,0,0,0-2.17-2.38c-1.35,0-1.32-.07-1.37,2.75l0,2.5h-1.3a3.49,3.49,0,0,0-1.29.12,5.88,5.88,0,0,0,2.81-.09,10.48,10.48,0,0,0,.23-2.63l0-2.4.65-.06c1.31-.1,2,.75,2.33,2.76a10.18,10.18,0,0,0,.45,1.63l.34.92H165c1.33,0,1.83-.15,1.62-.49a6.38,6.38,0,0,1-.34-1.14c-.59-2.69-.88-3.39-1.8-4.47-.3-.35-.29-.36.39-.94a3.65,3.65,0,0,0-2.63-6.45c-.41,0-.38,0,.21.24m10.83.09a4.89,4.89,0,0,1-.81.33,4.9,4.9,0,0,0-1,.7c-3.84,3.22-2.93,10.06,1.57,11.76,5.07,1.9,9.79-2.62,8.53-8.17-.39-1.76-2.13-4.26-3-4.29a4.53,4.53,0,0,1-.83-.33,3.28,3.28,0,0,0-1.17-.32c-.38,0-.25.09.59.37a7.71,7.71,0,0,1,1.61.74,2.13,2.13,0,0,0,.7.38c.1,0,.19.06.19.14a1.74,1.74,0,0,0,.41.59,1.62,1.62,0,0,1,.42.64,1.05,1.05,0,0,0,.27.49c1.27,1.39.82,6.1-.73,7.77a3,3,0,0,0-.38.55.59.59,0,0,1-.41.32,1.52,1.52,0,0,0-.68.41,1.67,1.67,0,0,1-.8.43,1.9,1.9,0,0,0-.77.24c-.89.51-4.15.06-5-.7l-.88-.75a2,2,0,0,1-.62-.73,1.7,1.7,0,0,0-.33-.62,1.48,1.48,0,0,1-.34-.73,2.29,2.29,0,0,0-.26-.8c-.53-1-.3-3.64.45-5.17.54-1.1,1.3-2.08,1.6-2.08a1.41,1.41,0,0,0,.45-.33,6.42,6.42,0,0,1,1.6-.74c.9-.3,1.11-.41.75-.42a3.28,3.28,0,0,0-1.17.32m12.16-.13c0,.12-.06,3.14,0,6.71l0,6.5h2.83V48.43a53.54,53.54,0,0,0-.17-6.71,49.62,49.62,0,0,0-.12,6.61L188,55h-2.52l0-6.67c0-3.66,0-6.66,0-6.66s-.09.09-.13.2m7.55,0c-.5.29-.44,12.89.06,13.16s5.35.13,6.56-.27a7.12,7.12,0,0,0,3.8-10.23A6.51,6.51,0,0,0,198,41.69l-.75,0,.75.14a9.16,9.16,0,0,1,3.27,1,1.74,1.74,0,0,0,.61.35A3.25,3.25,0,0,1,203,44.35a.87.87,0,0,0,.27.39,2.84,2.84,0,0,1,.38,1.27A3.13,3.13,0,0,0,204,47.2a2.16,2.16,0,0,1-.06,1.87,2.18,2.18,0,0,0-.25,1,2.67,2.67,0,0,1-.24,1.1c-.13.23-.31.57-.4.77-.84,1.84-3.37,2.88-7.3,3-3.17.1-2.89.74-2.89-6.5,0-6.72-.07-6.38,1.42-6.6l1-.14-1,0a3.45,3.45,0,0,0-1.29.16m23.14,0c-.12.45-.81,2.76-1.11,3.71-.17.55-.47,1.57-.66,2.25s-.46,1.59-.6,2-.35,1.13-.48,1.59c-.32,1.17-.86,2.94-1,3.28s.34.5,1.83.43l1.16-.05.14-.58c.09-.32.25-.85.37-1.17a7,7,0,0,0,.32-1l.1-.46H220l.1.46c.06.25.21.72.33,1a10.62,10.62,0,0,1,.38,1.17l.14.58,1.47.05c1.79.06,1.85,0,1.45-1.14s-.9-2.78-1.36-4.41c-.2-.73-.51-1.73-.68-2.22a5.51,5.51,0,0,1-.32-1.16,5.25,5.25,0,0,0-.31-1.11c-.18-.46-.5-1.39-.71-2.06a6.5,6.5,0,0,0-.5-1.29c-.17-.11.17,1.24.44,1.77a2.23,2.23,0,0,1,.25.86,3.09,3.09,0,0,0,.33,1.05,3.16,3.16,0,0,1,.34,1.07,3.67,3.67,0,0,0,.33,1.15,4.14,4.14,0,0,1,.34,1.09,4,4,0,0,0,.26,1,11.17,11.17,0,0,1,.42,1.5,3.25,3.25,0,0,0,.39,1.08,2.65,2.65,0,0,1,.32,1,3,3,0,0,0,.35,1.09c.4.52.31.56-1.23.56H221l-.12-.79a3.56,3.56,0,0,0-.35-1.16,1.6,1.6,0,0,1-.24-.68c0-.6-.33-.7-2.25-.7s-2.25.11-2.25.66a3.12,3.12,0,0,1-.33.92,3.29,3.29,0,0,0-.33,1.2V55h-2.5v-.54a4.55,4.55,0,0,1,.26-1.21c.14-.37.36-1,.48-1.5s.35-1.13.49-1.5a4.39,4.39,0,0,0,.26-1,2.42,2.42,0,0,1,.25-.86,4.48,4.48,0,0,0,.36-1.2,3.4,3.4,0,0,1,.33-1.06,3.75,3.75,0,0,0,.33-1,8.34,8.34,0,0,1,.43-1.46,4.66,4.66,0,0,0,.31-1.28c0-.4.08-.5.45-.55l.46-.07-.46,0c-.25,0-.49.07-.52.18m11.75,0c-.13.17-.17,2.07-.14,6.71l0,6.48,1.22.05c1.7.07,1.7.08,1.7-2.38,0-2.3,0-2.25,1.3-2.25,4.35,0,6.79-4.62,4-7.54a5.38,5.38,0,0,0-2.9-1.26c-.18,0,.2.23.86.44A4.21,4.21,0,0,1,237,45.86c0,1.34-1.64,3.81-2.52,3.81a2.1,2.1,0,0,0-.78.23,7.08,7.08,0,0,1-1.7.35c-1.71.16-1.67.09-1.67,2.6V55h-2.5V48.58c0-5.57,0-6.44.26-6.52a8.62,8.62,0,0,1,1.12-.22l.87-.13-1,0c-.68,0-1.08.05-1.21.2m13,0a.66.66,0,0,0-.12.54c.06.24.08.23.09-.06s.15-.38,1-.47c1.37-.16,1.44-.23.27-.24-.7,0-1.08.06-1.22.23m6,.18c1.46.49,2.3,1.12,2.55,1.91a3.1,3.1,0,0,0,.34.74c.91,1-.95,4.92-2.34,4.93a2,2,0,0,0-.72.23,6.12,6.12,0,0,1-1.7.35c-1.59.15-1.58.13-1.63,2.59l-.05,2.08H242a3.36,3.36,0,0,0-1.29.13,3.69,3.69,0,0,0,1.37.08l1.38-.05,0-2.07c.06-2.43.1-2.51,1.35-2.51,3.65,0,6.15-3,5-6.07A4.4,4.4,0,0,0,246,41.68c-.29,0,0,.15.77.41M144.52,43.8a49.35,49.35,0,0,0,0,9.1c.46.63,3.2.05,4.17-.87,1.39-1.32,2-5.06,1-6.36-.68-.9-1.25-1.5-1.41-1.5a1.09,1.09,0,0,1-.49-.28c-.52-.47-3-.54-3.28-.09m15.36-.11c-.62.32-.58,3.67.05,4a2.79,2.79,0,0,0,3.48-1.36l.33-.61-.39-.71a2.77,2.77,0,0,0-3.47-1.27m35.83,0a1,1,0,0,0-.19.64v.43l.12-.41c.28-1,3-.68,4.19.48a5.35,5.35,0,0,1-.2,7c-1.07,1-3.66,1.4-4,.64-.14-.36-.15-.36-.16,0,0,1.14,3.08.86,4.31-.39,1.8-1.83,2-5.67.28-7.28-1.06-1-3.79-1.69-4.39-1.07M231,43.62c-.8.28-1,4.1-.3,4.62.9.62,2.62.08,3.3-1a2.5,2.5,0,0,0-3-3.58m12.7.14c-.53.37-.57,4.28,0,4.57,1.43.76,3.67-.67,3.67-2.35s-2.29-3.16-3.63-2.22m-95.9.46c3.2,1.52,2.74,7.47-.65,8.37-1.24.33-2.42.32-2.55,0a83.13,83.13,0,0,1,0-8.51c.32-.49,2-.41,3.17.16m14.51-.12c1.64.82,1,3.11-1,3.47-1.18.21-1.45-.14-1.45-1.9,0-2,.7-2.46,2.48-1.57m11.78,0c-1.43.79-2.31,3.17-1.93,5.26.11.66.13.56.15-.75.05-3.48,1.85-5.34,4.21-4.35,2.73,1.15,2.68,7.2-.06,8.35a3,3,0,0,1-4-2.16c-.1-.31-.11-.31-.13,0,0,.61,1.17,2.21,1.66,2.21a.73.73,0,0,1,.49.25,1.8,1.8,0,0,0,1.83,0,.7.7,0,0,1,.43-.25c1.58,0,2.59-4.78,1.47-6.92-1-1.92-2.57-2.55-4.14-1.68m59,.06c1.61.83,1.18,3.24-.7,4-1.4.54-1.66.24-1.72-2-.06-2.5.52-3,2.42-2m12.87,0a2.19,2.19,0,0,1-.33,3.89c-1.7.73-2.26.1-2.13-2.4.09-1.91.78-2.32,2.46-1.49m-129.29.11a3.08,3.08,0,0,0-.28,1,8.93,8.93,0,0,1-.35,1.5,5.94,5.94,0,0,0-.34,2.91,5.2,5.2,0,0,0,2.74,0c.27-.27.25-.78,0-1.36a6,6,0,0,1-.41-1.41,6.72,6.72,0,0,0-.5-1.64,4,4,0,0,1-.34-.87c0-.27-.29-.36-.47-.14m100.9.09a10.74,10.74,0,0,0-.27,1.29,12.84,12.84,0,0,1-.4,1.74c-.76,2.05-.51,2.54,1.26,2.47l1.23,0,.05-.89a2.15,2.15,0,0,0-.23-1.31,4.82,4.82,0,0,1-.42-1.51,4.51,4.51,0,0,0-.35-1.33c-.28-.33-.77-.57-.87-.41M118,47.62c.49,1.92.5,1.89-.53,2-1.57.18-2.08-.75-1.27-2.28a6.9,6.9,0,0,0,.34-1.43c.31-1.95.63-1.58,1.46,1.71m100.74-1a8.28,8.28,0,0,0,.47,1.49,2.06,2.06,0,0,1,.13.93l-.05.57h-2.33v-.75a8.34,8.34,0,0,1,.28-1.66c.14-.51.31-1.21.37-1.56.17-1,.75-.5,1.12,1m-165-.09c-.54.22-.56.59-.56,10.35V66l-7.25,0c-5,0-7.29.11-7.42.24s.21.71,2.08,2.64c1,1,2.7,2.89,4.42,4.84.49.55,1.46,1.61,2.15,2.35,1.65,1.75,4.05,4.37,5.27,5.73,1,1.08,4.37,4.77,5,5.4.18.18,1.07,1.16,2,2.17,2.44,2.73,2.24,2.64,3.42,1.48.94-.92,1.41-1.43,4.13-4.48.64-.72,1.54-1.69,2-2.16,1.22-1.27,2.39-2.52,3.49-3.74,2.29-2.56,3.4-3.77,4.34-4.75,1.86-1.93,4-4.23,5.54-6,.47-.55,1.35-1.51,1.95-2.13,1.61-1.69,2-1.59-6.59-1.59H70.33V56.62c0-5.15-.07-9.56-.14-9.79l-.11-.41-8,0c-4.4,0-8.16,0-8.35.12m16.17.43c0,.14.1,4.49.1,9.66,0,9.12,0,9.4.32,9.57a71.93,71.93,0,0,0,7.5.17H85l-.62.7c-.35.39-1,1-1.38,1.47s-1.31,1.4-2,2.17l-2.15,2.4c-.5.56-2,2.18-3.36,3.6s-2.85,3-3.33,3.63S71,81.64,70.68,82c-3.87,4.08-5.47,5.79-6.38,6.84-2.66,3.07-2.29,3-4.77.25C59,88.53,58,87.37,57.11,86.5S55,84.2,54.18,83.33s-2.73-3-4.35-4.75-3.5-3.8-4.18-4.58S44.22,72.39,44,72.16s-1.28-1.35-2.33-2.49-2-2.19-2.2-2.35a1.91,1.91,0,0,1-.38-.64L39,66.33h7c6,0,7,0,7.35-.26l.37-.26V56.44c0-7.07,0-9.42.2-9.57.34-.35,15.9-.29,16,.06M115.83,69c-1.75.19-2.07.26-2.4.59s-.41,21.66-.1,22.24c.82,1.54,12.28.81,15.16-1,2.54-1.56,3.55-2.62,4.56-4.79a16.34,16.34,0,0,0,1.1-4.13c0-.65-.38.51-.65,2a7,7,0,0,1-.86,2.33c-.07.14-.29.55-.49.91a10.4,10.4,0,0,1-3.23,3.1,5.47,5.47,0,0,0-1,.62,1,1,0,0,1-.58.21,3.42,3.42,0,0,0-1,.31,9.36,9.36,0,0,1-2.09.49c-.78.1-1.87.27-2.42.37a24.89,24.89,0,0,1-7.51-.33l-.74-.33V69.89l.38-.18c1.2-.59,7.23-.94,9.37-.53l2.17.38a7.93,7.93,0,0,1,1.83.5,2.26,2.26,0,0,0,.87.27.64.64,0,0,1,.47.17,2.69,2.69,0,0,0,.72.49c1.76.89,4.19,4.13,4.19,5.58a4.69,4.69,0,0,0,.24,1.13,8.74,8.74,0,0,1,.31,1.22c0,.41.07.38.09-.17.11-3.48-2.65-7.27-6.39-8.79-2.32-.94-7.83-1.38-11.92-1m28.67.23a12.11,12.11,0,0,0-2.17.83l-1.23.7c-1.76,1-3.34,3.23-4.36,6.17-1.09,3.12-.31,9.32,1.38,11a.72.72,0,0,1,.21.33c0,.69,4,3.7,4.86,3.7a3.35,3.35,0,0,1,.91.27c3.42,1.43,10.07-.59,12.2-3.71a12.55,12.55,0,0,0,2.44-8.06,10.32,10.32,0,0,0-1-5.1,6.4,6.4,0,0,1-.41-1A13.61,13.61,0,0,0,155.52,72c-2.49-2.64-7.17-3.8-11-2.72M160.38,69c-.13.13-.09.51.13,1.37.36,1.39,1.06,4.36,1.43,6,.14.64.4,1.71.57,2.37a12.55,12.55,0,0,1,.33,1.5c0,.16.23,1.19.51,2.29.57,2.21,1,4.19,1.41,6.09a32.29,32.29,0,0,0,.87,3.41l.15.5,2.61,0c3.07.05,3.21,0,3.37-1.09a14,14,0,0,1,.34-1.61,5.18,5.18,0,0,0,.21-1.25l0-.43-.08.42a1.47,1.47,0,0,1-.23.6,5.76,5.76,0,0,0-.31,1.57c-.2,1.72.09,1.57-3.08,1.63l-2.72,0-.12-.88a5.3,5.3,0,0,0-.35-1.37,5.71,5.71,0,0,1-.33-1.33,10.28,10.28,0,0,0-.42-1.82,6.58,6.58,0,0,1-.32-1.58,2.92,2.92,0,0,0-.26-1.12,6.26,6.26,0,0,1-.4-1.58,6,6,0,0,0-.4-1.59,2.8,2.8,0,0,1-.27-1.13,6.11,6.11,0,0,0-.33-1.58,5.62,5.62,0,0,1-.34-1.5,6,6,0,0,0-.33-1.5,6,6,0,0,1-.33-1.5,3.79,3.79,0,0,0-.27-1.17,10.43,10.43,0,0,1-.49-1.87,15.7,15.7,0,0,0-.33-1.63l-.12-.37h5l.1.46a8,8,0,0,0,.27.87,10.43,10.43,0,0,1,.32,2,8.65,8.65,0,0,0,.33,1.89,9,9,0,0,1,.34,1.87,9.49,9.49,0,0,0,.38,2,8.09,8.09,0,0,1,.34,2,9.46,9.46,0,0,0,.33,2,9.32,9.32,0,0,1,.34,2.12c.24,3.15,1.31,3.1,1.54-.07a8.17,8.17,0,0,1,.34-1.92,9.88,9.88,0,0,0,.38-2,5.52,5.52,0,0,1,.33-1.6,6.49,6.49,0,0,0,.35-1.61,9.5,9.5,0,0,1,.39-1.9,7.44,7.44,0,0,0,.33-1.72,6.48,6.48,0,0,1,.35-1.7,3,3,0,0,0,.25-1.19c0-1.54-.12-1.47,2.69-1.47h2.49l.31.73a8.26,8.26,0,0,1,.43,2.13,7.56,7.56,0,0,0,.36,1.89,7.08,7.08,0,0,1,.37,1.84,7.64,7.64,0,0,0,.3,1.66,9.49,9.49,0,0,1,.36,2,14.69,14.69,0,0,0,.35,2,9.41,9.41,0,0,1,.26,1.8c.15,2.23.39,3.13.85,3.13s.57-.12.75-2a18.25,18.25,0,0,1,.41-2.57,17.65,17.65,0,0,0,.38-2.25,8.22,8.22,0,0,1,.31-1.72,6.23,6.23,0,0,0,.3-1.5,8.36,8.36,0,0,1,.34-1.7,8.13,8.13,0,0,0,.33-1.75,8.27,8.27,0,0,1,.33-1.73,8.41,8.41,0,0,0,.33-1.21l.11-.69h2.23a9.14,9.14,0,0,1,2.32.16,7.22,7.22,0,0,1-.41,2.59,4.92,4.92,0,0,0-.32,1.23,4.14,4.14,0,0,1-.35,1.27,4.22,4.22,0,0,0-.34,1.27,7.8,7.8,0,0,1-.41,1.59,2.93,2.93,0,0,0-.25,1.08,4.64,4.64,0,0,1-.27,1.23,9.42,9.42,0,0,0-.4,1.55,6.53,6.53,0,0,1-.38,1.42,6.64,6.64,0,0,0-.37,1.44,5,5,0,0,1-.33,1.34,5.22,5.22,0,0,0-.33,1.41,3.36,3.36,0,0,1-.36,1.27,2.92,2.92,0,0,0-.34,1.17,4.92,4.92,0,0,1-.31,1.33,5.49,5.49,0,0,0-.34,1.29l-.11.86h-5.14l-.31-.71a8.25,8.25,0,0,1-.41-1.94,4.51,4.51,0,0,0-.28-1.45,6.34,6.34,0,0,1-.32-1.69,10.63,10.63,0,0,0-.39-2,8.24,8.24,0,0,1-.35-1.82,11.39,11.39,0,0,0-.33-1.92,11,11,0,0,1-.33-2.09,5.69,5.69,0,0,0-.92-3.24c-.38-.34-.45-.11-.67,2.15a8.6,8.6,0,0,1-.32,1.89,6.28,6.28,0,0,0-.28,1.47,8.52,8.52,0,0,1-.35,1.73,9.61,9.61,0,0,0-.41,1.83,5.56,5.56,0,0,1-.34,1.45,3.37,3.37,0,0,0-.24,1.17l-.08,1,.35-1.17a20.46,20.46,0,0,0,.5-2.22,6.55,6.55,0,0,1,.25-1.19,53.77,53.77,0,0,0,1.08-5.57c.25-2.06.83-1.74,1.16.64.23,1.65.76,4.67,1.18,6.68.54,2.55.67,3.28.92,4.88.38,2.49.24,2.4,3.72,2.33l2.4,0,.31-1.08c.17-.6.42-1.53.55-2.08s.36-1.45.51-2l.49-1.92c.13-.5.36-1.37.51-1.92s.37-1.45.49-2c.28-1.25.69-2.91,1-4,.13-.46.28-1.09.34-1.41s.25-1.07.41-1.67c1.73-6.14,1.84-5.66-1.34-5.66-2.85,0-2.47-.53-3.5,4.74-.19,1-.49,2.47-.66,3.25s-.35,1.83-.41,2.34-.21,1.36-.33,1.91a19.8,19.8,0,0,0-.32,2c-.19,1.76-.25,1.94-.65,1.89s-.38-.22-.57-1.64c-.11-.87-.32-2.14-.45-2.83s-.3-1.7-.36-2.25a6,6,0,0,0-.24-1.26,8.86,8.86,0,0,1-.32-1.66c-.11-.78-.3-1.83-.43-2.35s-.32-1.52-.42-2.25c-.27-1.92-.22-1.9-3.26-1.9s-2.65-.5-3.47,4.12c-.13.75-.36,1.75-.5,2.23A6.64,6.64,0,0,0,171,76.5a10.09,10.09,0,0,1-.32,1.68,20.73,20.73,0,0,0-.43,2.24,5.12,5.12,0,0,1-.26,1.26,8.34,8.34,0,0,0-.31,1.64,3.39,3.39,0,0,1-.56,1.84l-.39.46-.21-1.27c-.42-2.65-.86-5.3-1-6.1-.09-.46-.31-1.66-.48-2.67s-.39-2.24-.49-2.75l-.42-2.32a4.33,4.33,0,0,0-.47-1.54,21.39,21.39,0,0,0-5.25,0m32.55.08c-.15.4-.11,23.12,0,23.36s.7.2,2.38.17l2.23,0,.09-8.08c.05-4.45.1-8.1.13-8.13a.24.24,0,0,1,.37.14c0,.17,1.68,3.66,2,4.16a4,4,0,0,1,.33.66c.1.23.36.72.58,1.09s.47.82.56,1a9.75,9.75,0,0,0,.58,1c.23.34.58.94.78,1.32s.5.93.67,1.21c.37.6,1.39,2.4,1.55,2.75.07.13.34.58.61,1s.57.91.66,1.1c.35.79.75.9,3.45.9,2.15,0,2.54,0,2.63-.27.15-.4.11-23.12,0-23.36s-.7-.21-2.38-.17l-2.23,0,0,7.7c0,4.24-.08,7.78-.14,7.88-.18.3-.41.18-.52-.29a52.32,52.32,0,0,0-3.07-6.13c-.06-.09-.51-.91-1-1.83s-1-1.78-1.09-1.92a2.26,2.26,0,0,1-.33-.66,2.46,2.46,0,0,0-.31-.65,30.85,30.85,0,0,1-1.76-3.13c-.47-1-.65-1.06-3.82-1.06-2.42,0-2.84,0-2.93.27M217,68.94c-.35.15-.3,23.49.06,23.63s13.9.11,14.24-.08.33-.36.33-1.84c0-2.53.42-2.32-4.75-2.32-3.34,0-4.43,0-4.54-.21s-.17-4.48-.21-9.7l-.09-9.5-2.41,0a21.88,21.88,0,0,0-2.63,0m24.46,0a14.58,14.58,0,0,0-3,1,14.09,14.09,0,0,0-3.2,2.4,10,10,0,0,0-1.47,2.1,3.81,3.81,0,0,1-.31.71,14.63,14.63,0,0,0-.76,9.59c.93,2.86,1.71,4,4.28,6.15,2.83,2.38,10.06,2.17,13.29-.39,6.74-5.32,5.92-16.59-1.5-20.57a14,14,0,0,0-7.33-1m22,0a.6.6,0,0,0-.29.4,12.13,12.13,0,0,1-.43,1.62c-.23.76-.57,1.91-.77,2.55s-.42,1.36-.51,1.59-.29.94-.46,1.58-.38,1.39-.47,1.67c-.41,1.27-.95,3.07-1.88,6.25-.2.68-.47,1.58-.6,2-.58,1.81-1.58,5.28-1.6,5.58s.07.33,2.55.33h2.58l.24-.5a10.4,10.4,0,0,0,.54-1.75c1-4.17.57-3.8,4.36-3.82,3.06,0,3.34.06,3.58.86,1.71,5.92,1.19,5.33,4.62,5.26,2.7,0,2.72-.07,2.11-1.68-.18-.48-.65-2-1-3.28s-.83-2.8-1-3.25-.37-1.14-.47-1.5-.25-.9-.34-1.17-.34-1.06-.54-1.75-.5-1.7-.67-2.25c-.71-2.26-.85-2.71-1.14-3.75-.17-.6-.47-1.61-.68-2.25s-.45-1.47-.56-1.83a5.63,5.63,0,0,0-.33-.88,29.82,29.82,0,0,0-6.82,0m19.34,0c-1.62.17-2.05.28-2.37.6s-.4,22.08,0,22.47c.6.6,8.13.76,10.3.22A12,12,0,0,1,292.3,92a3.45,3.45,0,0,0,1.12-.32,3.3,3.3,0,0,1,.91-.33c1,0,4.2-2.55,4.92-3.89l.66-1.2a12.39,12.39,0,0,0,1.21-5.58C301.45,71.85,295,67.73,282.8,69m34.49,0a.6.6,0,0,0-.29.4,13.19,13.19,0,0,1-.42,1.62c-.23.76-.58,1.91-.77,2.55s-.43,1.36-.51,1.59-.3.94-.47,1.58-.38,1.39-.47,1.67c-.41,1.27-.95,3.07-1.87,6.25-.2.68-.47,1.58-.61,2-.58,1.81-1.58,5.28-1.6,5.58s.07.33,2.55.33h2.58l.24-.5a11.22,11.22,0,0,0,.55-1.75c1-4.17.57-3.8,4.35-3.82,3.07,0,3.35.06,3.58.86,1.71,5.92,1.2,5.33,4.62,5.26,2.7,0,2.72-.07,2.11-1.68-.18-.48-.64-2-1-3.28s-.82-2.8-1-3.25-.37-1.14-.46-1.5-.26-.9-.35-1.17-.33-1.06-.53-1.75-.51-1.7-.68-2.25c-.7-2.26-.84-2.71-1.14-3.75-.17-.6-.47-1.61-.67-2.25l-.57-1.83a4.12,4.12,0,0,0-.33-.88,29.81,29.81,0,0,0-6.82,0m19.35,0c-1.62.17-2.05.28-2.38.6s-.39,22.66.07,22.91a10.32,10.32,0,0,0,2.63.13l2.29,0,.08-4,.09-4,2.16-.1c6.17-.3,9.32-3.09,9.33-8.23,0-2.42-2-6.08-3.25-6.08a1.82,1.82,0,0,1-.61-.29c-1.28-.84-6.55-1.29-10.41-.89m18.07,0c-.17.07-.21,2.59-.21,11.82V92.49l.38.1a21.78,21.78,0,0,0,2.62,0l2.25,0,.08-3.92.09-3.91.74-1a4.52,4.52,0,0,1,.89-1,1.41,1.41,0,0,1,1,.88c.14.3.43.84.65,1.21s.54.93.72,1.25l1,1.78,1,1.84c.2.34.56,1,.8,1.46.79,1.48.61,1.42,3.78,1.42s3.39-.11,2.68-.89a7.65,7.65,0,0,1-1.13-1.86,11.25,11.25,0,0,0-.58-1c-.17-.28-.64-1-1-1.72l-1.09-1.84-.75-1.26-.55-.91-.91-1.52c-.4-.69-.87-1.43-1-1.65-.56-.75-.4-1.31.86-2.94l1.74-2.25c.32-.41.69-.9.84-1.08l1.09-1.42c.45-.59.92-1.2,1-1.34,1.77-2.11,1.72-2.17-2-2.12l-2.91,0-2.71,4c-1.48,2.2-2.82,4.22-3,4.5-.72,1.36-.91,1.61-1.12,1.37,0,0-.07-2.25-.12-5l-.09-4.91-2.42,0a21.58,21.58,0,0,0-2.62,0m-204.53.4A14.94,14.94,0,0,1,154,70.9a7.38,7.38,0,0,1,1,.91,3.25,3.25,0,0,0,.84.69c.08,0,.15.11.15.24a.54.54,0,0,0,.21.38,1.63,1.63,0,0,1,.42.55c.11.23.27.53.35.66a13.39,13.39,0,0,1,1.51,7.84l-.4,2.07a5.41,5.41,0,0,1-.49,1.58,2,2,0,0,0-.35.71,1.53,1.53,0,0,1-.35.65.64.64,0,0,0-.23.41c0,.39-1.7,2.19-2.74,2.89-1.47,1-2,1.18-4.85,1.85a10.21,10.21,0,0,1-4-.07,12.8,12.8,0,0,0-1.38-.36,5.26,5.26,0,0,1-1.25-.42,3.11,3.11,0,0,0-.72-.31A12,12,0,0,1,138.41,88c-.06-.16-.16-.29-.24-.29s-.23-.29-.35-.63a3.08,3.08,0,0,0-.41-.87,3,3,0,0,1-.33-1,5.14,5.14,0,0,0-.38-1.25,15.93,15.93,0,0,1,0-6,5.42,5.42,0,0,0,.39-1.25,2.91,2.91,0,0,1,.43-1.15,1.47,1.47,0,0,0,.31-.62,5.6,5.6,0,0,1,1.08-1.75.87.87,0,0,0,.26-.42,1.62,1.62,0,0,1,.52-.57c.28-.22.71-.58.94-.79a1.78,1.78,0,0,1,.55-.37.75.75,0,0,0,.35-.22c1.39-1.37,5.88-2.11,8.65-1.44m48.86,0a4.72,4.72,0,0,1,.53.88c.15.32.46.88.69,1.25a13.45,13.45,0,0,1,.65,1.19,2,2,0,0,0,.41.63,1.39,1.39,0,0,1,.27.61.92.92,0,0,0,.33.59.92.92,0,0,1,.33.57,1.2,1.2,0,0,0,.27.59,2.16,2.16,0,0,1,.42.75c.15.36.32.65.4.65s.18.22.24.48a1.7,1.7,0,0,0,.43.78,1,1,0,0,1,.32.58,1.48,1.48,0,0,0,.31.68,2.85,2.85,0,0,1,.43.77c.07.21.18.38.26.38s.19.22.25.49A2.49,2.49,0,0,0,206,82a4.13,4.13,0,0,1,.5,1,1.92,1.92,0,0,0,.36.72.57.57,0,0,1,.15.42c0,.41,1.17,1.72,1.37,1.52s0-.35-.07-.63-.22-2.51-.26-8.28L208,69l2.22.05,2.22,0V92.42l-2.51,0c-2.87.05-2.79.09-3.65-1.58a5.32,5.32,0,0,0-.69-1.06.66.66,0,0,1-.24-.4,1.44,1.44,0,0,0-.31-.61,3,3,0,0,1-.43-.78,6.45,6.45,0,0,0-.65-1.17,15.41,15.41,0,0,1-1.36-2.4c-.16-.35-.34-.63-.41-.63a1.62,1.62,0,0,1-.4-.62,7.42,7.42,0,0,0-.88-1.57,3.5,3.5,0,0,1-.38-.85c-.11-.34-.27-.62-.35-.62s-.24-.3-.35-.67a2.43,2.43,0,0,0-.42-.86.59.59,0,0,1-.22-.33,9.52,9.52,0,0,0-.52-1.28c-1.1-2.37-1.15-2.07-1.15,7.42v8.06l-2.21-.05-2.21,0,0-11.5c0-6.33,0-11.6,0-11.71.14-.37,5.63-.29,6,.08m23,9.17c0,8.3,0,9.51.26,9.84s.31.37,4.4.37c5.14,0,4.67-.2,4.67,1.91,0,1.41,0,1.74-.26,1.82s-13.46.13-13.81,0-.41-23.15,0-23.29a21.43,21.43,0,0,1,2.5-.1H222v9.46m24.76-9a11.63,11.63,0,0,1,2.08.78l1.23.69a12.1,12.1,0,0,1,2.6,2.66,1.56,1.56,0,0,0,.33.62,1.51,1.51,0,0,1,.33.67,1.46,1.46,0,0,0,.31.64c.76,1,1.24,5.41.8,7.31-.14.6-.3,1.42-.36,1.84a3,3,0,0,1-.32,1,2.8,2.8,0,0,0-.39.76,10.77,10.77,0,0,1-3.45,4.13c-.28.15-.62.35-.75.43a8.41,8.41,0,0,1-2.34.93l-1.58.39a12.66,12.66,0,0,1-8.07-1.56c-1.14-.82-3.35-3.4-3.35-3.91a1,1,0,0,0-.24-.51,2.75,2.75,0,0,1-.41-1.09,6.72,6.72,0,0,0-.43-1.37c-.35-.69-.31-5.65,0-6.07a3.42,3.42,0,0,0,.38-1.15,2.15,2.15,0,0,1,.32-1,1.41,1.41,0,0,0,.36-.67,4,4,0,0,1,.51-1,1.58,1.58,0,0,0,.31-.54c0-.38,2.33-2.43,3.4-3a7.11,7.11,0,0,1,2.26-.93,8.83,8.83,0,0,0,1.3-.33,11.93,11.93,0,0,1,5.13.23m23.34-.33a1.82,1.82,0,0,1,.3.86,6.07,6.07,0,0,0,.34,1.25,10.8,10.8,0,0,1,.4,1.18c.09.36.28,1,.42,1.33a4.5,4.5,0,0,1,.27,1.09,1.71,1.71,0,0,0,.25.78,3.31,3.31,0,0,1,.36,1.16,3.94,3.94,0,0,0,.42,1.32,2.4,2.4,0,0,1,.31,1,2.94,2.94,0,0,0,.33,1.11,3,3,0,0,1,.34,1.08,3.31,3.31,0,0,0,.33,1.13,3.3,3.3,0,0,1,.32,1,3.57,3.57,0,0,0,.28,1,11.26,11.26,0,0,1,.49,1.54,31.93,31.93,0,0,0,.93,3.08,11.71,11.71,0,0,1,.34,1.34,3,3,0,0,0,.4,1.09,1.11,1.11,0,0,1,.24.63c0,.51-4.95.57-5.1.07a6.18,6.18,0,0,0-.34-.78,5.07,5.07,0,0,1-.35-1.25,5,5,0,0,0-.39-1.35,5.33,5.33,0,0,1-.4-1.35c-.15-1.08-.37-1.15-3.84-1.15s-3.69,0-3.84,1.12a2.86,2.86,0,0,1-.33,1,3.46,3.46,0,0,0-.32,1.15,4.83,4.83,0,0,1-.3,1.25,4.1,4.1,0,0,0-.29.93l-.09.59-2.54,0a22,22,0,0,1-2.54,0,3.36,3.36,0,0,1,.25-.55A2.23,2.23,0,0,0,257,91a3.36,3.36,0,0,1,.32-1.08,7.53,7.53,0,0,0,.43-1.45,3.72,3.72,0,0,1,.34-1.08,3.94,3.94,0,0,0,.34-1.17,3.7,3.7,0,0,1,.33-1.17,4,4,0,0,0,.33-1.08,3.43,3.43,0,0,1,.34-1.08,3.69,3.69,0,0,0,.34-1.09,6,6,0,0,1,.42-1.41,3.76,3.76,0,0,0,.31-1.18,1.8,1.8,0,0,1,.24-.85,3.22,3.22,0,0,0,.37-1.08,6.55,6.55,0,0,1,.41-1.39,3.39,3.39,0,0,0,.31-1.09,3.53,3.53,0,0,1,.34-1.08,3.42,3.42,0,0,0,.32-1,3.87,3.87,0,0,1,.27-1,9.32,9.32,0,0,0,.42-1.45,2.08,2.08,0,0,1,.44-1,30.5,30.5,0,0,1,6.48-.08m20.07,0c.41.08,1.27.23,1.91.33A10.89,10.89,0,0,1,294,70a4.16,4.16,0,0,0,1.11.32.79.79,0,0,1,.53.26,2.25,2.25,0,0,0,.73.48,12.34,12.34,0,0,1,2.6,2.32,4,4,0,0,0,.42.71,2.35,2.35,0,0,1,.41.9.71.71,0,0,0,.25.49,2,2,0,0,1,.34,1,8.09,8.09,0,0,0,.34,1.41,11.91,11.91,0,0,1,.07,4.37,11.64,11.64,0,0,0-.35,1.64,4.81,4.81,0,0,1-.39,1.44,2.21,2.21,0,0,0-.34.67,2.92,2.92,0,0,1-.44.81,1.47,1.47,0,0,0-.31.6A12.53,12.53,0,0,1,296.61,90c-.2.11-.66.36-1,.54s-.78.4-.91.48a12,12,0,0,1-3.42,1c-.83.12-2,.31-2.58.42a27.67,27.67,0,0,1-7.45-.28l-.72-.27v-11c0-12.25-.09-11.32,1.12-11.32a1.1,1.1,0,0,0,.64-.16c.3-.3,6.54-.44,7.91-.18m33.76,0a1.72,1.72,0,0,1,.3.86,6.78,6.78,0,0,0,.34,1.25,7.75,7.75,0,0,1,.4,1.18c.1.36.29,1,.43,1.33a4.42,4.42,0,0,1,.26,1.09,1.61,1.61,0,0,0,.26.78,3.31,3.31,0,0,1,.36,1.16,5,5,0,0,0,.41,1.38,2.68,2.68,0,0,1,.31,1,2.86,2.86,0,0,0,.33,1,2.78,2.78,0,0,1,.34,1.08,3.31,3.31,0,0,0,.33,1.13,3.11,3.11,0,0,1,.33,1,3.2,3.2,0,0,0,.27,1,11.26,11.26,0,0,1,.49,1.54,31.93,31.93,0,0,0,.93,3.08,11.71,11.71,0,0,1,.34,1.34,3,3,0,0,0,.4,1.09,1.11,1.11,0,0,1,.24.63c0,.51-4.95.57-5.1.07a5.89,5.89,0,0,0-.33-.78,4.33,4.33,0,0,1-.35-1.25,5.33,5.33,0,0,0-.4-1.35,5,5,0,0,1-.39-1.35c-.15-1.08-.37-1.15-3.84-1.15s-3.7,0-3.85,1.12a2.89,2.89,0,0,1-.32,1,3,3,0,0,0-.32,1.15,4.76,4.76,0,0,1-.31,1.25,3.67,3.67,0,0,0-.28.93l-.1.59-2.54,0a22.12,22.12,0,0,1-2.54,0,4.7,4.7,0,0,1,.25-.55,2.23,2.23,0,0,0,.25-.86,3.64,3.64,0,0,1,.32-1.08,7.56,7.56,0,0,0,.44-1.45,3.75,3.75,0,0,1,.33-1.08,3.66,3.66,0,0,0,.34-1.17,4.32,4.32,0,0,1,.33-1.17,3.37,3.37,0,0,0,.33-1.08,3.72,3.72,0,0,1,.34-1.08,3.42,3.42,0,0,0,.34-1.09,7.19,7.19,0,0,1,.42-1.41,3.51,3.51,0,0,0,.31-1.18,1.7,1.7,0,0,1,.25-.85,3.23,3.23,0,0,0,.36-1.08,6,6,0,0,1,.42-1.39,4,4,0,0,0,.31-1.09,3.21,3.21,0,0,1,.33-1.08,3.22,3.22,0,0,0,.33-1,3.43,3.43,0,0,1,.26-1,7.55,7.55,0,0,0,.42-1.45,2.17,2.17,0,0,1,.44-1,30.5,30.5,0,0,1,6.48-.08m20.82.27c2.2.48,4.75,2,4.75,2.83a1,1,0,0,0,.33.52,1,1,0,0,1,.34.6,5.15,5.15,0,0,0,.35,1.18,5.92,5.92,0,0,1-.1,3.85,3.22,3.22,0,0,0-.25,1,6.28,6.28,0,0,1-1.88,2.73c-1.56,1.33-4,2.09-7.12,2.21-2.17.08-2-.29-2,4.34v3.88l-2.38-.05-2.37,0-.05-11.24c0-6.74,0-11.31.11-11.4.74-.73,7.51-1,10.27-.38m14.88,4.54c0,4,.08,4.89.28,5.06s.55.1.78-.39a18.93,18.93,0,0,1,1.39-2.29l.67-1c.09-.15,1.07-1.63,2.17-3.29l2-3h2.87a16.46,16.46,0,0,1,2.88.11A9,9,0,0,1,371.35,71a17.1,17.1,0,0,0-1.43,2,1.44,1.44,0,0,1-.28.35,18.36,18.36,0,0,0-1.81,2.35,1.09,1.09,0,0,1-.28.42c-1.86,1.85-2.32,3.19-1.47,4.2a1.77,1.77,0,0,1,.42.73,1.17,1.17,0,0,0,.25.56,9.67,9.67,0,0,1,1.08,1.72,1,1,0,0,0,.34.44,1,1,0,0,1,.33.6,1.67,1.67,0,0,0,.38.76,7.23,7.23,0,0,1,1,1.68c.14.3.32.54.4.54s.2.22.26.49a1.37,1.37,0,0,0,.37.7,2,2,0,0,1,.41.56c.08.18.33.64.55,1s.51.89.64,1.17a2.53,2.53,0,0,0,.51.73c.52.43.07.52-2.65.52h-2.74l-.25-.54c-.14-.3-.44-.84-.66-1.21s-.52-.89-.67-1.17-.44-.8-.67-1.16-.48-.86-.58-1.09a4,4,0,0,0-.34-.66,8.21,8.21,0,0,1-.43-.75c-.14-.28-.44-.8-.66-1.17s-.49-.85-.61-1.08c-.65-1.35-1.21-1.45-2-.38-.33.44-.7.9-.82,1s-.23,1.33-.29,4.17l-.09,3.92-2.08,0a19.47,19.47,0,0,1-2.46,0l-.37-.09V80.76c0-9.1,0-11.58.21-11.65a20.24,20.24,0,0,1,2.45-.06l2.25,0,.05,4.86m-19.7-1.28c-.74.24-.76.35-.76,4,0,3.85,0,3.9.72,3.87l.53,0-.5-.11-.5-.1-.05-3.48c-.05-4.27-.22-4,2.22-3.91,1.73,0,1.9.09,2.55.54,2.72,1.89,1.58,6.28-1.8,6.95l-.59.11.63,0c2.91.09,4.64-4.55,2.51-6.72a5.79,5.79,0,0,0-5-1.1m-221.32.28a1.31,1.31,0,0,0-.09.63l0,.51.11-.5a.65.65,0,0,1,.6-.6l.5-.11-.51,0a1.26,1.26,0,0,0-.63.09m4.26,0a12.22,12.22,0,0,1,2.6,1,6.79,6.79,0,0,1,2,1.94.92.92,0,0,0,.24.42c1.46,1.63,1,7.37-.7,9.58a7.78,7.78,0,0,1-5.12,2.6l-1,.12,1.12,0a3.17,3.17,0,0,0,1.75-.31,2.82,2.82,0,0,1,.93-.33c.92,0,3.31-2.67,3.55-4a3.36,3.36,0,0,1,.37-1c.68-1,.16-5.79-.75-6.87a.92.92,0,0,1-.22-.43A5.14,5.14,0,0,0,126,74.08c-.18-.06-.33-.17-.33-.25s-.28-.23-.63-.34a4.79,4.79,0,0,1-1-.43,2.24,2.24,0,0,0-1.09-.21l-.75,0,.62.12m22.47.26a7.92,7.92,0,0,0-2.34,2,1.71,1.71,0,0,1-.33.58,1.45,1.45,0,0,0-.34.69,3.65,3.65,0,0,1-.33.94,3.6,3.6,0,0,0-.31,1.66l0,1,.13-.91c1-7.46,8.87-8.42,10.95-1.34a15.92,15.92,0,0,1,0,5.84,7.33,7.33,0,0,1-2.22,3.76c-4,2.44-7.52.55-8.73-4.68l-.15-.67v.75a3.66,3.66,0,0,0,.31,1.42,3.61,3.61,0,0,1,.33.93A7,7,0,0,0,144,87.4a1.11,1.11,0,0,1,.42.38.49.49,0,0,0,.34.22,3,3,0,0,1,.82.33c.78.42,3.29.49,3.61.1a1.29,1.29,0,0,1,.6-.33,3.82,3.82,0,0,0,1.85-1.34,9.34,9.34,0,0,0,1.23-2.48,2.35,2.35,0,0,1,.29-.83,11.88,11.88,0,0,0,0-5.37,2.25,2.25,0,0,1-.28-.83,1.91,1.91,0,0,0-.24-.75c-.13-.23-.34-.64-.47-.92a5.48,5.48,0,0,0-2.23-2.11,2.65,2.65,0,0,1-.81-.48c-.21-.34-3-.16-3.74.26m96,0c-1.33.74-3,2.66-3,3.43a2.21,2.21,0,0,1-.29.75c-.43.74-.43,6.13,0,6.79a1.79,1.79,0,0,1,.3.74c0,.8,1.61,2.55,3,3.27,2.88,1.5,7-.64,7.59-4a4.64,4.64,0,0,1,.34-1.07,12.72,12.72,0,0,0,0-4.88,4.35,4.35,0,0,1-.35-1.12,1.56,1.56,0,0,0-.27-.77,2,2,0,0,1-.38-.63c-1-2.35-4.73-3.73-6.89-2.54m44.12,0c-.18.46-.24,14.69-.07,15.14.07.17.29.26.63.25l.52,0-.5-.11-.5-.11,0-7.27c-.05-7.59,0-8.06.66-8.19.34-.06.33-.07-.08-.09a.51.51,0,0,0-.62.4m4.5-.18c3.39,1,4.6,2.14,5.3,5,1.35,5.41-1.32,9.79-6.38,10.45l-1,.13,1.08,0a3.69,3.69,0,0,0,1.75-.31,3.87,3.87,0,0,1,.87-.32c.58,0,3.05-2.25,3.05-2.76,0-.14.07-.25.16-.25s.24-.32.34-.71.31-1.06.44-1.49c.3-.93.26-4.6-.05-5a2.61,2.61,0,0,1-.31-.8,6.19,6.19,0,0,0-3.52-3.62,2.86,2.86,0,0,1-.81-.34,2.09,2.09,0,0,0-1-.22l-.67,0,.75.22m-44.73.29c4,1.61,5.35,8.34,2.47,12.81a5.1,5.1,0,0,1-8.7-.35c-1.5-2.53-1.56-8.16-.1-9.84a1,1,0,0,0,.23-.43,6.2,6.2,0,0,1,2-1.92,5.53,5.53,0,0,1,2.41-.63,5.3,5.3,0,0,1,1.73.36m20.92.41a8.37,8.37,0,0,0-.51,2,4.83,4.83,0,0,1-.32,1.41A5.42,5.42,0,0,0,265,78.5a8,8,0,0,1-.41,1.5c-.42.85-.48,2.45-.11,2.65a14,14,0,0,0,4.66,0c.29-.29.25-1-.12-1.93a8.34,8.34,0,0,1-.42-1.53,3.07,3.07,0,0,0-.26-.93,4.32,4.32,0,0,1-.34-1.18,7.84,7.84,0,0,0-.35-1.39,7.93,7.93,0,0,1-.38-1.5c-.24-1.38-.55-1.49-1.07-.39m53.84,0a8.35,8.35,0,0,0-.52,2,4.94,4.94,0,0,1-.31,1.41,5,5,0,0,0-.37,1.29,8.72,8.72,0,0,1-.42,1.5c-.42.85-.48,2.45-.1,2.65a14,14,0,0,0,4.66,0c.29-.29.24-1-.12-1.93a7.66,7.66,0,0,1-.43-1.53,2.57,2.57,0,0,0-.26-.93,4.07,4.07,0,0,1-.33-1.18,8.64,8.64,0,0,0-.36-1.39,9,9,0,0,1-.37-1.5c-.24-1.38-.56-1.49-1.07-.39m-52.93.67c.21,1.07.44,1.93,1.5,5.72.69,2.47.87,2.25-1.85,2.25h-2.33l0-.67a7.72,7.72,0,0,1,.29-1.5l.67-2.22a10.43,10.43,0,0,0,.42-1.8,10.77,10.77,0,0,1,1-3,7.69,7.69,0,0,1,.3,1.21m53.84,0c.2,1.07.43,1.93,1.49,5.72.69,2.47.87,2.25-1.85,2.25h-2.33l0-.67a7,7,0,0,1,.28-1.5l.67-2.22a9.82,9.82,0,0,0,.43-1.8,10.8,10.8,0,0,1,1-3,6.25,6.25,0,0,1,.31,1.21M118.57,88.17c0,.34.1.42.51.43s.46,0,.06,0a.54.54,0,0,1-.52-.44c-.06-.3-.07-.29-.05.06" style="fill:#848484;fill-rule:evenodd"/></g></svg>