<?xml version="1.0" encoding="utf-8"?>
<!-- Generator: Adobe Illustrator 19.0.0, SVG Export Plug-In . SVG Version: 6.00 Build 0)  -->
<svg version="1.1" id="Layer_1" xmlns="http://www.w3.org/2000/svg" xmlns:xlink="http://www.w3.org/1999/xlink" x="0px" y="0px"
	 viewBox="372 -81.9 1000 333" style="enable-background:new 372 -81.9 1000 333;" xml:space="preserve">
<style type="text/css">
	.st0{fill:#A6A6A6;}
	.st1{fill:#FFFFFF;}
	.st2{fill:#0091EA;}
</style>
<path class="st0" d="M1322,227.5c18.7,0,34.4-15.2,34.3-33.8V-24.6c0-18.6-15.7-33.8-34.3-33.8H425.1c-18.6,0-33.8,15.2-33.8,33.8
	v218.3c0,18.6,15.2,33.8,33.8,33.8L1322,227.5L1322,227.5z"/>
<path d="M1349.5,193.7V-24.6c0-15.1-12.2-27.4-27.4-27.4H425.2c-15.1,0-27.4,12.3-27.4,27.4v218.3c0,15.1,12.3,27.4,27.4,27.4h896.9
	C1337.2,221.1,1349.5,208.8,1349.5,193.7L1349.5,193.7z"/>
<g>
	<path class="st1" d="M1002.6,2.7c0.5,1.7,1,3.3,1.4,4.9c0.2,0.7,0.4,1.4,0.6,2.2s0.4,1.5,0.5,2.3c0.2,0.8,0.3,1.5,0.4,2.2
		c0.1,0.7,0.2,1.4,0.3,2c0,0.2,0,0.4,0.1,0.7c0.1,0.3,0,0.5,0,0.8c0,1.6-0.2,3.1-0.7,4.5c-0.5,1.5-1.1,2.9-1.9,4.2
		c-0.8,1.4-1.8,2.7-2.9,3.9c-1.1,1.2-2.3,2.4-3.7,3.5c-1.3,1.1-2.7,2.1-4.2,3s-2.9,1.8-4.4,2.5l-2.3-4.7c1.9-0.9,3.7-2,5.5-3.2
		c1.8-1.2,3.3-2.6,4.7-4c1.4-1.5,2.5-3,3.3-4.6s1.3-3.3,1.3-5c0-0.1,0-0.2,0-0.4s0-0.4-0.1-0.6l0,0c-0.1-0.6-0.1-1.2-0.3-1.8
		c-0.1-0.7-0.3-1.3-0.4-2c-0.2-0.7-0.3-1.4-0.5-2.1s-0.4-1.4-0.5-2c-0.4-1.5-0.9-3-1.4-4.5L1002.6,2.7z M1003.8-8.2l-4.4,4.4
		L995-8.2l4.4-4.4L1003.8-8.2z"/>
	<path class="st1" d="M1015.1,20.1c0.3-4.1,0.4-7.9,0.5-11.5s0.1-7,0-10c-0.1-3.1-0.2-5.8-0.3-8.3c-0.2-2.5-0.3-4.5-0.5-6.3
		c-0.2-1.7-0.3-3-0.4-4c-0.1-0.9-0.2-1.4-0.2-1.5l5.3-0.8c0,0.1,0.2,1.2,0.4,3.3c0.1,1,0.2,2.1,0.3,3.3c0.1,1.2,0.2,2.5,0.3,3.8
		c0.1,1.4,0.2,2.7,0.2,3.9s0.1,2.4,0.1,3.5c0.1,3.3,0.1,7,0.1,11.2s-0.2,8.7-0.5,13.6L1015.1,20.1z"/>
	<path class="st1" d="M1088.2,15.7c-0.7-0.8-1.3-1.8-1.7-2.9c-4.7,4.9-12.2,7.4-22.4,7.4c-5.4,0-9.9-0.7-13.5-2s-6.2-3.3-7.8-6
		c-0.5-0.9-0.9-1.8-1.2-2.7c-0.3-0.9-0.5-1.9-0.5-2.8c-0.1-0.9-0.1-1.8,0-2.7c0.1-0.9,0.2-1.7,0.4-2.5s0.4-1.6,0.7-2.3
		c0.2-0.7,0.4-1.3,0.6-1.8s0.4-0.9,0.5-1.2c0.1-0.3,0.2-0.5,0.3-0.5l4.6,2.5c0,0-0.1,0.2-0.2,0.5c-0.2,0.3-0.3,0.8-0.5,1.3
		c-0.2,0.6-0.4,1.2-0.6,1.9s-0.3,1.5-0.3,2.3s0,1.6,0.1,2.5c0.1,0.8,0.4,1.6,0.9,2.4c1.1,1.8,3,3.2,5.8,4.1
		c2.8,0.9,6.4,1.4,10.8,1.4c4,0,7.3-0.3,10.1-1s5.1-1.8,6.9-3.3c0.8-0.6,1.5-1.4,2.1-2.1c0.6-0.8,1.1-1.6,1.5-2.4s0.8-1.7,1.1-2.5
		s0.5-1.7,0.8-2.5l5.1,1.4c-0.1,0.4-0.2,0.8-0.3,1.2c-0.1,0.4-0.2,0.9-0.3,1.4c-0.2,1.1-0.3,2-0.3,2.7c0,0.8,0.1,1.6,0.3,2.4
		c0.2,0.8,0.6,1.6,1.1,2.3c1.3,1.6,3.4,2.4,6.4,2.4c0.8,0,1.4,0.3,1.9,0.8s0.8,1.1,0.8,1.9s-0.3,1.4-0.8,1.9s-1.1,0.8-1.9,0.8h-0.2
		C1093.9,20.1,1090.5,18.6,1088.2,15.7z M1065.2-6.3l-4.3,4.4l-4.4-4.4l4.3-4.4L1065.2-6.3z M1076.2-6.3l-4.4,4.4l-4.4-4.4l4.4-4.4
		L1076.2-6.3z"/>
	<path class="st1" d="M1096.5,17.5c0-0.8,0.3-1.4,0.8-1.9s1.2-0.8,1.9-0.8c2,0,3.8-0.1,5.5-0.3s3.2-0.4,4.5-0.7s2.4-0.6,3.3-1
		c0.9-0.4,1.6-0.7,2-1.1c0.2-0.2,0.4-0.4,0.6-0.5c0.1-0.2,0.3-0.3,0.4-0.5h-2.7c-1,0-1.9-0.1-2.8-0.2c-0.9-0.2-1.8-0.4-2.6-0.7
		c-0.8-0.3-1.5-0.7-2.2-1.1c-0.7-0.5-1.2-1-1.7-1.6c-0.3-0.3-0.5-0.7-0.8-1.2s-0.5-1-0.6-1.6c-0.2-0.6-0.3-1.3-0.3-2s0-1.6,0.2-2.5
		c0.3-1.4,0.6-2.6,1.1-3.8c0.5-1.1,1.1-2.2,1.8-3c0.8-1.1,1.7-1.9,2.7-2.4s2-0.8,3.1-0.8c2.4,0,4.5,1,6.4,3.1c0.8,0.9,1.6,2,2.2,3.2
		c0.6,1.2,1.1,2.5,1.5,3.9c0.4,1.4,0.7,2.8,0.8,4.3s0.1,2.9,0,4.4l0,0c-0.1,0.7-0.3,1.4-0.5,2.2c-0.1,0.2-0.1,0.5-0.2,0.9
		c-0.1,0.4-0.3,0.8-0.5,1.2c-0.3,0.5-0.6,0.9-1,1.5c-0.4,0.5-1,1-1.6,1.5c-0.9,0.7-1.9,1.3-3.3,1.8c-1.3,0.5-2.8,0.9-4.4,1.3
		c-1.6,0.3-3.3,0.6-5.1,0.8s-3.6,0.3-5.5,0.3h-0.5c-0.7,0-1.4-0.3-1.9-0.8C1096.8,18.8,1096.5,18.2,1096.5,17.5z M1114.3-19.4
		l-4.4,4.4l-4.4-4.4l4.4-4.4L1114.3-19.4z M1110.7-4.8c-0.3,0-0.5,0.1-0.9,0.4c-0.3,0.2-0.7,0.6-1,1.1c-0.3,0.5-0.6,1.1-0.9,1.8
		s-0.5,1.5-0.6,2.4c-0.3,1.3-0.1,2.3,0.5,3c0.4,0.4,0.9,0.8,1.6,1c0.7,0.3,1.5,0.4,2.5,0.5c0.9,0,1.8,0.1,2.6,0.1
		c0.8,0,1.5,0,2.1-0.1c-0.1-1.7-0.5-3.4-1-4.9s-1.3-2.8-2.2-3.8c-0.3-0.3-0.6-0.6-1.1-1C1111.7-4.6,1111.2-4.8,1110.7-4.8z"/>
	<path class="st1" d="M1141.5,20.1c-2,0-3.7-0.2-5.1-0.7c-1.4-0.5-2.6-1.2-3.6-2.1c-0.6-0.6-1-1.2-1.4-1.9c-0.3-0.7-0.5-1.4-0.7-2
		c-0.1-0.7-0.2-1.3-0.3-1.9c0-0.6,0-1.1,0-1.5V9.5c0,0,0-0.3,0-1c0-0.6,0-1.5,0-2.6s0-2.3,0-3.7s0-2.9,0-4.5c0-1.5,0-3.1-0.1-4.8
		c0-1.7-0.1-3.3-0.2-4.8c-0.1-1.6-0.2-3-0.3-4.3c-0.1-1.3-0.3-2.4-0.4-3.2l5.3-1c0.2,0.9,0.3,2,0.4,3.4c0.1,1.3,0.2,2.8,0.3,4.3
		c0.1,1.6,0.1,3.2,0.2,4.9c0,1.7,0,3.3,0,5c0,1.6,0,3.1,0,4.5s0,2.7,0,3.9c0,1.1,0,2.1,0,2.8s0,1.2,0,1.3v0.5c0,0.8,0,1.5,0.1,2.1
		s0.3,1.1,0.7,1.5c0.8,0.8,2.3,1.3,4.6,1.3h0.2c0.4,0,0.7,0.1,1,0.2s0.6,0.3,0.8,0.6c0.2,0.2,0.4,0.5,0.6,0.8c0.1,0.3,0.2,0.7,0.2,1
		c0,0.8-0.3,1.4-0.8,1.9S1142.2,20.1,1141.5,20.1z"/>
	<path class="st1" d="M1137.4,17.5c0-0.8,0.3-1.4,0.8-1.9s1.1-0.8,1.9-0.8h3c0.6,0,1.3,0,2,0c0.7,0,1.5,0,2.2-0.1
		c0.8-0.1,1.5-0.2,2.2-0.3c0.7-0.1,1.4-0.3,2-0.6c0.6-0.2,1.1-0.5,1.6-0.9s0.8-0.8,1.1-1.3c0.4-0.8,0.5-1.9,0.3-3.3
		c-0.1-1.4-0.5-3.1-1.1-5c-0.2-0.6-0.4-1.2-0.7-1.9c-0.3-0.7-0.5-1.3-0.8-1.9c-0.3-0.7-0.6-1.4-0.9-2l4.8-2.4c0,0,0.1,0.2,0.3,0.5
		c0.2,0.4,0.4,0.8,0.6,1.4c0.3,0.6,0.5,1.3,0.8,2.1c0.3,0.8,0.6,1.6,0.9,2.5c1.7,5.1,1.9,9.1,0.6,12c-1.3,2.9-3.5,4.8-6.8,5.7
		c-0.5,0.1-1.1,0.3-1.9,0.3c-0.8,0.1-1.5,0.1-2.3,0.2c-0.8,0-1.5,0.1-2.3,0.1c-0.7,0-1.3,0-1.7,0h-3.9h-0.2c-0.7,0-1.4-0.3-1.9-0.8
		C1137.7,18.9,1137.4,18.2,1137.4,17.5z M1150.4,29.4l-4.3,4.4l-4.4-4.4l4.3-4.4L1150.4,29.4z M1161.4,29.4l-4.4,4.4l-4.4-4.4
		l4.4-4.3L1161.4,29.4z"/>
	<path class="st1" d="M1178,2.7c0.5,1.7,1,3.3,1.4,4.9c0.2,0.7,0.4,1.4,0.6,2.2s0.4,1.5,0.5,2.3c0.2,0.8,0.3,1.5,0.4,2.2
		c0.1,0.7,0.2,1.4,0.3,2c0,0.2,0,0.4,0.1,0.7c0.1,0.3,0,0.5,0,0.8c0,1.6-0.2,3.1-0.7,4.5c-0.5,1.5-1.1,2.9-1.9,4.2
		c-0.8,1.4-1.8,2.7-2.9,3.9c-1.1,1.2-2.3,2.4-3.7,3.5c-1.3,1.1-2.7,2.1-4.2,3s-2.9,1.8-4.4,2.5l-2.3-4.7c1.9-0.9,3.7-2,5.5-3.2
		c1.8-1.2,3.3-2.6,4.7-4c1.4-1.5,2.5-3,3.3-4.6s1.3-3.3,1.3-5c0-0.1,0-0.2,0-0.4s0-0.4-0.1-0.6l0,0c-0.1-0.6-0.1-1.2-0.3-1.8
		c-0.1-0.7-0.3-1.3-0.4-2c-0.2-0.7-0.3-1.4-0.5-2.1s-0.4-1.4-0.5-2c-0.4-1.5-0.9-3-1.4-4.5L1178,2.7z"/>
	<path class="st1" d="M1199.2,20.1c-0.9,0-1.9-0.1-3-0.3c-1.2-0.2-2.3-0.5-3.5-0.8c-1.2-0.3-2.2-0.7-3.2-1.1s-1.7-0.8-2.1-1.2l2.2-5
		c0.7,0.4,1.5,0.8,2.4,1.3c0.9,0.4,1.9,0.8,3,1c1.1,0.3,2.1,0.5,3.3,0.7c1.1,0.1,2.2,0.2,3.2,0.1s2-0.3,2.9-0.7
		c0.9-0.4,1.6-0.9,2.3-1.6c0.5-0.6,0.5-1.6,0.2-3.1c-0.2-0.9-0.5-1.8-1-2.8c-0.4-1-1-1.9-1.6-2.9c-0.6-1-1.3-1.9-2.1-2.8
		c-0.8-0.9-1.5-1.8-2.4-2.5c-0.8-0.8-1.6-1.5-2.5-2.1c-0.8-0.6-1.7-1.1-2.5-1.5l2.2-4.9c1.1,0.5,2.1,1.1,3.2,1.9
		c1.1,0.8,2.1,1.6,3.1,2.6s2,2,2.9,3.1c0.9,1.1,1.8,2.3,2.5,3.5c0.8,1.2,1.4,2.4,2,3.6c0.6,1.2,1,2.4,1.2,3.5c0.2,1,0.3,1.9,0.3,2.7
		s-0.1,1.5-0.2,2.1c-0.2,0.6-0.4,1.2-0.6,1.6c-0.3,0.5-0.5,0.9-0.8,1.2c-1.7,2-4,3.3-6.9,3.9c-0.7,0.2-1.4,0.3-2.1,0.4
		C1200.9,20.1,1200.1,20.1,1199.2,20.1z"/>
</g>
<g id="XMLID_7_">
	<g id="XMLID_8_">
		<path id="XMLID_12_" class="st1" d="M895.9,131.3c2.8,0,5.2-1,7.2-3c0.6-0.6,1.1-1.3,1.5-1.9c0.4,0.7,0.9,1.3,1.4,1.9
			c2,2,4.3,3,7.1,3s5.2-1,7.1-3c2-2,2.9-4.4,2.9-7.2s-1-5.2-2.9-7.1c-1.9-1.9-4.3-2.9-7.1-2.9s-5.2,1-7.1,2.9
			c-0.6,0.6-1.1,1.2-1.4,1.9c-0.4-0.7-0.9-1.3-1.5-1.9c-2-2-4.4-2.9-7.2-2.9c-2.7,0-5.2,1-7.1,3c-2,2-3,4.3-3,7.1s1,5.2,2.9,7.2
			C890.7,130.3,893,131.3,895.9,131.3z"/>
		<path id="XMLID_11_" class="st1" d="M1101.1,114.1c-2.4,0-4.4,0.8-5.9,2.6c-1.6,1.7-2.4,3.8-2.4,6.2c0,1.7,0.5,4.3,1.3,7.7
			c0.8,3.3,1.3,5.9,1.3,7.7c0,6.1-4.4,9.2-13.1,9.2h-3.1h-5h-2.1c-7.8,0-15.2-3.4-22.3-10.2c-8.3-8.2-13.8-13.7-16.7-16.6
			c-10.2-9.9-18.9-17.7-26.2-23.7c-1.2-1-1.8-2.1-1.8-3.3s0.8-2.1,2.2-2.7c14.6-5.7,30.3-10.5,46.9-14.3c5.2-1.1,7.7-3.9,7.7-8.2
			c0-5.7-3.3-8.6-10-8.6c-1.1,0-2.5,0.2-4,0.5c-24.4,5.7-42.2,12.1-53.6,19c-5.1,3.1-7.6,8.2-7.6,15.2c0,3.4,0.5,6.1,1.7,8.2
			c2,3.5,8.5,10.1,19.6,19.6c9.9,8.5,14.8,14.3,14.8,17.3c0,4.1-4.2,6.5-12.6,7.4c-1.8,0.2-8.6,0.2-20.5,0.2h-2.5h-2.8
			c-7.9,0-12.4-3.2-13.6-9.6c-0.7-3.6-1.1-5.8-1.3-6.7c-1.1-2.6-3.1-3.9-6.1-3.9c-2.7,0-4.9,1.7-6.4,5.2c-2.5,5.6-4,8.9-4.8,9.8
			c-5.2,6.6-19,9.9-41.3,9.9h-10.8c-15.2,0-25.6-1.7-31.2-5.3c-3.8-2.4-5.7-6.1-5.7-11c0-1.4,0.3-3.6,0.9-6.4c0.6-2.9,0.9-5,0.9-6.4
			c0-4.3-2.1-6.4-6.4-6.4c-4,0-7.2,3.5-9.3,10.5c-1.5,4.9-2.3,10-2.3,15.3c0,20.4,17.4,30.6,52.2,30.6c33.4,0,54.1-5.2,62-15.7
			c3.4,7.2,10.1,10.8,20,10.8h1h5.1h0.2c15.1,0,25.7-0.9,31.9-2.8c9.5-2.9,15.3-8.9,17.5-17.9c9.8,13.8,22,20.7,36.5,20.7h0.9h5h2
			c9.8,0,17.4-2.9,23-8.6c5.6-5.7,8.3-13.5,8.3-23.4C1112.4,121.4,1108.6,114.1,1101.1,114.1z"/>
		<path id="XMLID_10_" class="st1" d="M1086.7,178.8c-2.7,0-5.2,1-7.1,3c-1.3,1.3-2.1,2.8-2.6,4.4c-0.5-1.7-1.3-3.1-2.6-4.4
			c-2-2-4.3-3-7.1-3c-2.8,0-5.2,1-7.2,2.9s-3,4.3-3,7.1s1,5.2,3,7.2s4.4,3,7.2,3c2.8,0,5.2-1,7.1-3c1.3-1.3,2-2.8,2.5-4.5
			c0.5,1.7,1.2,3.2,2.5,4.5c2,2,4.3,3,7.1,3c2.8,0,5.2-1,7.2-3s3-4.4,3-7.2s-1-5.2-3-7.1C1091.8,179.8,1089.5,178.8,1086.7,178.8z"
			/>
		<path id="XMLID_9_" class="st1" d="M1210.6,128.3c-3.6-5.7-8.8-8.6-15.5-8.6c-5.6,0-11.1,3-16.7,9c-1.1,1.3-3.9,5.1-8.3,11.4
			c-2,2.9-3.9,4.9-5.8,5.8c-1.8,1-4.4,1.5-7.8,1.5h-2.3c-9.2,0-13.8-5.7-13.8-17V71.1c0-7.9-3-11.8-9-11.8c-3,0-5.4,1.3-7,3.8
			c-1.4,2.2-2,4.9-2,8l2,56c0.5,14,2,23.4,4.3,28.5c3.9,8.3,11.7,12.4,23.4,12.4h0.9h5h0.5c6.5,0,12-2.3,16.5-6.7
			c5.1,6.1,11.6,9.1,19.7,9.1c6.3,0,11.4-2.5,15.2-7.6c3.5-4.5,5.2-10,5.2-16.5C1215.3,139,1213.7,133.1,1210.6,128.3z
			 M1194.3,153.3c-2,0-4-0.6-6.4-1.7c-2.7-1.4-4-3-4-4.7c0-2.3,1.1-4.5,3.4-6.5c2.3-2,4.5-3.1,6.8-3.1c2.3,0,4.1,1.1,5.5,3.2
			c1.1,1.8,1.7,3.9,1.7,6.4C1201.4,151.2,1199,153.3,1194.3,153.3z"/>
	</g>
</g>
<g id="XMLID_1_">
	<g id="XMLID_2_">
		<circle id="XMLID_6_" class="st2" cx="558" cy="87.1" r="89.6"/>
		<g id="XMLID_3_">
			<path id="XMLID_5_" class="st1" d="M613,76.5c-0.7-17-14.7-30.4-31.8-30.4c-9.5,0-18.1,4.2-23.9,10.8
				c-5.8-6.6-14.4-10.8-23.9-10.8c-16.8,0-30.5,13-31.8,29.5c0,0.4-0.1,0.8-0.1,1.2v35.9c0,4.4,3.6,8,8,8h0.2c4.4,0,8-3.6,8-8V77.9
				l0,0c0-8.7,7.1-15.8,15.8-15.8s15.8,7.1,15.8,15.8l0,0v29.4c0,4.4,3.6,8,8,8h0.2c4.4,0,8-3.6,8-8V77.9c0-8.7,7.1-15.7,15.8-15.7
				s15.8,7,15.8,15.8l0,0v34.9c0,4.4,3.5,7.9,7.9,7.9h0.2c4.4,0,7.9-3.5,7.9-7.9V77.3C613,77,613,76.7,613,76.5z"/>
			<path id="XMLID_4_" class="st1" d="M582.8,123.8c-0.4-0.6-1.5,0.6-1.5,0.6c-4.4,4.8-13.6,7.9-23.1,7.9s-18.6-3.1-23.1-7.9
				c0,0-1.2-1.2-1.5-0.6c-0.5,0.7,0.2,1.8,0.2,1.8c5.7,8.2,14.3,11.8,24.4,11.8c10.1,0,18.7-3.7,24.4-11.8
				C582.6,125.7,583.3,124.5,582.8,123.8z"/>
		</g>
	</g>
</g>
<rect x="718.2" y="-52.1" class="st1" width="7.7" height="273.1"/>
</svg>
