<svg id="Layer_1" data-name="Layer 1" xmlns="http://www.w3.org/2000/svg" viewBox="0 0 1000 333"><path d="M948.4,309.5H51.2a33.89,33.89,0,0,1-33.8-33.8V57.3A33.89,33.89,0,0,1,51.2,23.5H948.4c18.6,0,34.3,15.2,34.3,33.8V275.7c0,18.5-15.8,33.8-34.3,33.8Z" style="fill:#a6a6a6"/><path d="M975.8,275.6A27.44,27.44,0,0,1,948.4,303H51.2a27.46,27.46,0,0,1-27.5-27.4V57.2A27.46,27.46,0,0,1,51.2,29.8H948.4a27.38,27.38,0,0,1,27.4,27.4Z"/><circle cx="184" cy="169" r="89.6" style="fill:#0091ea"/><path d="M129,159.1v35.6a7.92,7.92,0,0,0,7.9,7.9h.2a7.92,7.92,0,0,0,7.9-7.9V159.8a15.8,15.8,0,1,1,31.6,0v29.4a8,8,0,0,0,8,8h.2a8,8,0,0,0,8-8V159.8a15.8,15.8,0,0,1,31.6,0v34.8a8,8,0,0,0,8,8h.2a8,8,0,0,0,8-8v-36a4.87,4.87,0,0,0-.1-1.2,31.88,31.88,0,0,0-55.7-18.7A31.91,31.91,0,0,0,129,158.3Z" style="fill:#fff"/><path d="M159.5,207.6c5.7,8.2,14.3,11.8,24.4,11.8s18.7-3.7,24.4-11.8c0,0,.7-1.1.2-1.8s-1.5.6-1.5.6c-4.4,4.8-13.6,7.9-23.1,7.9s-18.6-3.1-23.1-7.9c0,0-1.2-1.2-1.5-.6-.6.7.1,1.8.2,1.8Z" style="fill:#fff"/><path d="M344.2,29.8h7.7V303h-7.7ZM474.5,89.7V84.3H494v17.1c-6,4.8-12.4,7.2-19.1,7.2a27.27,27.27,0,0,1-12.4-2.9,20,20,0,0,1-8.4-8.4A26.5,26.5,0,0,1,451.3,85a27.92,27.92,0,0,1,2.8-12.5,19.05,19.05,0,0,1,8.1-8.7A25.25,25.25,0,0,1,474.4,61a24.92,24.92,0,0,1,9,1.6,14.22,14.22,0,0,1,6.3,4.5,20.11,20.11,0,0,1,3.5,7.5l-5.5,1.5a17.63,17.63,0,0,0-2.6-5.5,9.89,9.89,0,0,0-4.4-3.2,16.08,16.08,0,0,0-6.3-1.2,20.23,20.23,0,0,0-5.7.7,17.07,17.07,0,0,0-4.3,2,14.39,14.39,0,0,0-3.1,2.9,17.52,17.52,0,0,0-2,3.5,24.08,24.08,0,0,0-1.8,9.3,22.48,22.48,0,0,0,2.1,10.3,13.1,13.1,0,0,0,6.2,6.1,19.73,19.73,0,0,0,8.6,2,20.69,20.69,0,0,0,7.7-1.5,25.58,25.58,0,0,0,3.3-1.6,9.23,9.23,0,0,0,2.4-1.7V89.6H474.5Zm56.1,8a14.86,14.86,0,0,1-5.1,8,15.4,15.4,0,0,1-9.6,2.8c-4.9,0-8.8-1.5-11.6-4.5S500,96.8,500,91.3s1.4-10,4.3-13.1a14.71,14.71,0,0,1,11.3-4.7,13.92,13.92,0,0,1,10.9,4.6c2.8,3.1,4.2,7.3,4.2,12.8v1.5H505.8c.2,3.7,1.3,6.5,3.1,8.4a9.35,9.35,0,0,0,7,2.9,8.55,8.55,0,0,0,5.3-1.6,10.85,10.85,0,0,0,3.5-5.2l5.9.8Zm-5.8-9.8a12.28,12.28,0,0,0-2.1-6.3,8.58,8.58,0,0,0-7-3.3,9.3,9.3,0,0,0-6.6,2.6,10.22,10.22,0,0,0-2.9,7Zm25.8,19.8a23.69,23.69,0,0,1-4.3.5,9.27,9.27,0,0,1-4.8-1,5.77,5.77,0,0,1-2.4-2.5c-.5-1-.7-3.3-.7-6.7V78.8h-4.1V74.4h4.1V66.1l5.6-3.4V74.4h5.7v4.4H544V98.3a10,10,0,0,0,.3,3.1,2.13,2.13,0,0,0,1,1.1,3.58,3.58,0,0,0,1.9.4h1.1a7.84,7.84,0,0,0,1.4-.2l.9,5Zm30.2-39.5V61.7h5.7v6.5Zm0,39.6V74.4h5.7v33.4Zm13.4,0V74.4h5.1v4.7a12,12,0,0,1,10.6-5.5,14.21,14.21,0,0,1,5.5,1.1,9.43,9.43,0,0,1,3.8,2.8,11.78,11.78,0,0,1,1.1,1.9,18.66,18.66,0,0,1,.7,2.2,11,11,0,0,1,.2,2.2c0,.9.1,2,.1,3.4v20.5h-5.7V87.4a14.11,14.11,0,0,0-.7-5.2,4.55,4.55,0,0,0-2.4-2.7,7.09,7.09,0,0,0-3.9-1,9.59,9.59,0,0,0-6.3,2.3c-1.7,1.6-2.6,4.4-2.6,8.7v18.2l-5.5.1ZM650,91.1c0-6.2,1.7-10.7,5.2-13.7a16.58,16.58,0,0,1,21.8.8c2.9,3,4.4,7.1,4.4,12.4,0,4.3-.7,7.7-2,10.1a13.4,13.4,0,0,1-5.6,5.7,16.11,16.11,0,0,1-8,2c-4.7,0-8.5-1.5-11.3-4.5C651.4,101,650,96.7,650,91.1Zm5.8,0c0,4.3.9,7.5,2.8,9.6a9.26,9.26,0,0,0,14,0c1.9-2.2,2.8-5.4,2.8-9.8,0-4.1-.9-7.2-2.8-9.4a9.07,9.07,0,0,0-7-3.2,8.93,8.93,0,0,0-7,3.2C656.8,83.6,655.8,86.8,655.8,91.1Zm32,16.7V74.4h5.1v4.7a12,12,0,0,1,10.6-5.5,14.21,14.21,0,0,1,5.5,1.1,9.43,9.43,0,0,1,3.8,2.8,11.78,11.78,0,0,1,1.1,1.9,18.66,18.66,0,0,1,.7,2.2,11,11,0,0,1,.2,2.2c0,.9.1,2,.1,3.4v20.5h-5.7V87.4a14.11,14.11,0,0,0-.7-5.2,4.55,4.55,0,0,0-2.4-2.7,7.09,7.09,0,0,0-3.9-1,9.59,9.59,0,0,0-6.3,2.3c-1.7,1.6-2.6,4.4-2.6,8.7v18.2l-5.5.1Z" style="fill:#fff"/><path d="M528.7,213.3v28.6c0,4.6-1,7.9-3.1,10.2a10.48,10.48,0,0,1-8.1,3.4,9.87,9.87,0,0,1-7.9-3.4c-2-2.2-3.1-5.7-3.1-10.2V207.5a100.18,100.18,0,0,0-.6-12.6,13.5,13.5,0,0,0-3-7.3c-1.7-2-4.2-2.9-7.7-2.9-7.1,0-11.7,2.4-13.9,7.3s-3.3,11.8-3.3,20.8v29.1c0,4.5-1,7.9-3.1,10.1a10.08,10.08,0,0,1-8,3.4,10.22,10.22,0,0,1-8-3.4c-2-2.3-3.2-5.7-3.2-10.1V180.3c0-4.1.9-7.2,2.8-9.2a10.15,10.15,0,0,1,14.6-.2,11,11,0,0,1,3,8.2v2a36.45,36.45,0,0,1,12-9.9,31.85,31.85,0,0,1,14.2-3.2,27.76,27.76,0,0,1,13.9,3.3,25.37,25.37,0,0,1,9.7,9.8,36.84,36.84,0,0,1,11.7-9.9,30.27,30.27,0,0,1,13.9-3.2c5.9,0,11,1.1,15.2,3.4a23.5,23.5,0,0,1,9.6,9.9c1.9,3.9,2.8,10,2.8,18.4v42.1c0,4.6-1,7.9-3.1,10.2a10.48,10.48,0,0,1-8.1,3.4,10.22,10.22,0,0,1-8-3.4c-2-2.3-3.2-5.7-3.2-10.1V205.6a83.49,83.49,0,0,0-.6-11.2,13.63,13.63,0,0,0-3.2-7.1c-1.8-1.9-4.4-2.9-7.9-2.9a14.07,14.07,0,0,0-8.1,2.5,16.28,16.28,0,0,0-5.9,6.8c-1.5,3.9-2.3,10.4-2.3,19.6Z" style="fill:#fff"/><path d="M620,258.1l2-4.8-26.5-66.7c-1.7-3.8-2.4-6.6-2.4-8.4a10,10,0,0,1,1.4-5.1,9.52,9.52,0,0,1,3.9-3.8,10.67,10.67,0,0,1,5.2-1.4c3.1,0,5.5,1,7.1,3a26.86,26.86,0,0,1,4.2,8.5l18.2,53.1,17.3-49.4a88,88,0,0,1,3.7-9.4c1.1-2.2,2.2-3.8,3.5-4.6a10.5,10.5,0,0,1,5.2-1.2,9.77,9.77,0,0,1,4.7,1.3,7.21,7.21,0,0,1,3.4,3.5,9.87,9.87,0,0,1,1.2,4.6c-.2,1-.6,2.4-1,4.3a40.43,40.43,0,0,1-1.8,5.6l-28.1,73.6a84.8,84.8,0,0,1-7.1,15.2,23.5,23.5,0,0,1-9.2,8.5c-3.8,2-8.9,3-15.4,3-6.3,0-11.1-.6-14.2-2a7.59,7.59,0,0,1-4.7-7.5,7.47,7.47,0,0,1,2.2-5.8c1.5-1.4,3.7-2,6.7-2a13.32,13.32,0,0,1,3.4.5,17.23,17.23,0,0,0,3.5.5,13.47,13.47,0,0,0,5.9-1.1,9.85,9.85,0,0,0,3.8-3.8,73.08,73.08,0,0,0,3.9-8.2Z" style="fill:#fff"/><path d="M741.5,245.6l-19.1-31.2-11.7,11.1v17.1c0,4.2-1.1,7.3-3.3,9.6a10.34,10.34,0,0,1-7.5,3.3,9.77,9.77,0,0,1-7.8-3.3c-1.9-2.2-2.9-5.5-2.9-9.8V150.5c0-4.8.9-8.5,2.8-11a9.29,9.29,0,0,1,7.9-3.7,9.87,9.87,0,0,1,7.9,3.4c2,2.2,2.9,5.6,2.9,10v52.2L735,175.9a58.35,58.35,0,0,1,6.9-6.5,10,10,0,0,1,5.8-1.8,9,9,0,0,1,6.7,2.6,8.38,8.38,0,0,1,2.7,6.4c0,3.2-2.9,7.3-8.7,12.6L737,199.7l22.1,34.8c1.7,2.6,2.8,4.6,3.5,5.9a8,8,0,0,1,1,3.8c0,3.4-.9,6.1-2.8,8.1a9.73,9.73,0,0,1-7.3,3,8.12,8.12,0,0,1-6-2.1,32,32,0,0,1-6-7.6Z" style="fill:#fff"/><path d="M834.5,217H792.3a27.9,27.9,0,0,0,3,12.9,21.8,21.8,0,0,0,7.6,8.5,20.24,20.24,0,0,0,10.5,2.9,26.54,26.54,0,0,0,7.1-.9,23.2,23.2,0,0,0,6.2-2.9,46.87,46.87,0,0,0,5.5-4.2c1.7-1.5,3.9-3.4,6.6-6a7.31,7.31,0,0,1,4.7-1.4,7.59,7.59,0,0,1,5.4,1.9,6.29,6.29,0,0,1,2,5.1,13.07,13.07,0,0,1-2.3,6.8,26.49,26.49,0,0,1-6.9,7.5,38.26,38.26,0,0,1-11.6,5.9,49.26,49.26,0,0,1-16.1,2.3c-13.9,0-24.6-3.9-32.3-11.8s-11.5-18.6-11.5-32.2a51.54,51.54,0,0,1,2.9-17.8,37.77,37.77,0,0,1,8.3-14,34.65,34.65,0,0,1,13.4-8.9,49.79,49.79,0,0,1,17.7-3.2c8.5,0,15.6,1.8,21.7,5.3a36,36,0,0,1,13.6,13.8,34.83,34.83,0,0,1,4.5,17.2c0,5.4-1.6,8.9-4.6,10.5q-4.8,2.7-13.2,2.7Zm-42.2-12.3h39c-.6-7.3-2.5-12.9-5.9-16.5s-8-5.5-13.7-5.5a17.15,17.15,0,0,0-13.2,5.6c-3.4,3.7-5.4,9.2-6.2,16.4Z" style="fill:#fff"/><path d="M871.6,169.8h2.3V156.9c0-3.4.1-6.2.3-8.2a10.26,10.26,0,0,1,1.6-5.1,8.91,8.91,0,0,1,3.6-3.6,10.52,10.52,0,0,1,12.7,1.7,9.32,9.32,0,0,1,2.8,5,43.83,43.83,0,0,1,.6,8.4v14.7h7.9c3.1,0,5.4.7,7,2.1a7.26,7.26,0,0,1,2.4,5.6c0,2.9-1.1,4.9-3.4,6a23.31,23.31,0,0,1-9.9,1.8h-4v39.6a53.87,53.87,0,0,0,.4,7.8,8,8,0,0,0,1.9,4.5c1,1.1,2.7,1.7,5,1.7a28.56,28.56,0,0,0,5.1-.6,21.36,21.36,0,0,1,5-.6,6.39,6.39,0,0,1,4.7,2.1,7.17,7.17,0,0,1,2.1,5.2c0,3.4-1.9,6.1-5.7,8s-9.2,2.8-16.4,2.8c-6.8,0-11.8-1.1-15.3-3.4a15.52,15.52,0,0,1-6.8-9.4c-1.1-4-1.6-9.4-1.6-16V185.6H871c-3.1,0-5.5-.7-7.1-2.2a6.94,6.94,0,0,1-2.4-5.6,6.82,6.82,0,0,1,2.6-5.6C865.8,170.4,868.4,169.8,871.6,169.8Z" style="fill:#fff"/></svg>